<svg xmlns="http://www.w3.org/2000/svg" xmlns:xlink="http://www.w3.org/1999/xlink" width="755" zoomAndPan="magnify" viewBox="0 0 566.25 218.249992" height="291" preserveAspectRatio="xMidYMid meet" version="1.0"><path fill="#580f1a" d="M 483.984375 99.003906 C 483.984375 106.925781 482.574219 113.113281 479.757812 117.566406 C 477.476562 121.257812 471.449219 124.242188 461.679688 126.527344 C 453.871094 128.472656 446.925781 129.449219 440.84375 129.449219 C 433.898438 129.449219 430.429688 125.808594 430.429688 118.535156 C 430.429688 115.9375 430.914062 112.460938 431.886719 108.117188 C 432.542969 105.191406 433.085938 103.671875 433.523438 103.5625 L 434.820312 106.164062 C 435.800781 109.09375 439.492188 110.558594 445.890625 110.558594 C 458.589844 110.558594 469.765625 107.738281 479.429688 102.101562 C 479.648438 98.300781 476.878906 92.601562 471.128906 85 C 464.726562 76.632812 458.761719 72.238281 453.222656 71.808594 C 452.785156 71.808594 451.320312 72.132812 448.820312 72.78125 C 447.628906 73.105469 446.871094 71.808594 446.542969 68.878906 C 446.433594 67.144531 446.433594 65.351562 446.542969 63.503906 C 446.871094 58.617188 448.277344 55.355469 450.773438 53.726562 C 454.253906 52.101562 458.160156 52.699219 462.496094 55.527344 C 476.820312 64.964844 483.984375 79.457031 483.984375 99.003906 Z M 483.984375 99.003906 " fill-opacity="1" fill-rule="nonzero"/><path fill="#580f1a" d="M 534.449219 111.703125 C 534.449219 131.679688 524.898438 149.371094 505.792969 164.785156 C 498.519531 170.648438 493.144531 173.582031 489.675781 173.582031 C 481.320312 173.582031 469.710938 171.46875 454.835938 167.238281 C 450.605469 166.039062 448.484375 164.953125 448.484375 163.980469 C 448.484375 163.433594 450.164062 163.214844 453.53125 163.324219 C 468.074219 163.980469 482.671875 160.289062 497.324219 152.25 C 511.976562 144.214844 522.882812 133.847656 530.046875 121.152344 C 528.855469 116.808594 527.769531 113.550781 526.789062 111.375 C 523.859375 104.320312 520.011719 98.566406 515.238281 94.109375 C 516.757812 80.765625 517.679688 74.199219 518.007812 74.414062 C 528.96875 83.207031 534.449219 95.636719 534.449219 111.703125 Z M 534.449219 111.703125 " fill-opacity="1" fill-rule="nonzero"/><path fill="#580f1a" d="M 88.84375 115.511719 C 88.84375 117.960938 88.289062 120.675781 87.183594 123.667969 C 85.851562 127.324219 84.183594 129.15625 82.183594 129.15625 C 66.003906 129.15625 56.695312 118.34375 54.25 96.714844 C 53.25 99.714844 50.425781 103.820312 45.773438 109.027344 C 42.890625 110.804688 37.957031 111.691406 30.976562 111.691406 C 20.558594 111.691406 15.347656 109.199219 15.347656 104.203125 C 15.347656 99.4375 18.5625 93.449219 24.996094 86.238281 C 28.871094 83.476562 36.574219 77.765625 48.105469 69.113281 C 49.210938 68.335938 49.542969 66.671875 49.101562 64.125 C 48.4375 60.238281 48.105469 58.628906 48.105469 59.300781 C 48.105469 56.308594 49.210938 51.097656 51.425781 43.667969 C 52.429688 43.667969 54.699219 54.203125 58.246094 75.269531 C 59.238281 81.035156 60.011719 85.246094 60.570312 87.90625 C 61.789062 93.78125 63.175781 97.773438 64.726562 99.882812 C 67.941406 104.433594 71.988281 107.480469 76.871094 109.027344 L 84.847656 110.359375 C 87.511719 110.804688 88.84375 112.523438 88.84375 115.511719 Z M 53.257812 90.234375 C 52.152344 84.691406 51.320312 80.03125 50.757812 76.261719 C 48.65625 78.816406 42.671875 84.308594 32.808594 92.734375 C 32.808594 93.503906 35.242188 93.667969 40.117188 93.222656 C 45.445312 92.78125 49.824219 91.785156 53.257812 90.234375 Z M 53.257812 90.234375 " fill-opacity="1" fill-rule="nonzero"/><path fill="#580f1a" d="M 120.265625 115.183594 C 120.265625 117.625 119.707031 120.335938 118.59375 123.328125 C 117.269531 127.210938 115.664062 129.15625 113.769531 129.15625 L 99.640625 129.484375 L 82.179688 129.15625 C 80.523438 129.15625 79.691406 127.492188 79.691406 124.167969 C 79.691406 121.722656 80.191406 119.058594 81.1875 116.179688 C 82.519531 112.410156 84.183594 110.523438 86.175781 110.523438 L 101.132812 110.6875 L 117.765625 110.523438 C 119.429688 110.523438 120.265625 112.078125 120.265625 115.183594 Z M 120.265625 115.183594 " fill-opacity="1" fill-rule="nonzero"/><path fill="#580f1a" d="M 151.855469 115.183594 C 151.855469 117.625 151.296875 120.335938 150.183594 123.328125 C 148.859375 127.210938 147.253906 129.15625 145.363281 129.15625 L 131.230469 129.484375 L 113.769531 129.15625 C 112.113281 129.15625 111.285156 127.492188 111.285156 124.167969 C 111.285156 121.722656 111.78125 119.058594 112.777344 116.179688 C 114.109375 112.410156 115.773438 110.523438 117.765625 110.523438 L 132.726562 110.6875 L 149.355469 110.523438 C 151.019531 110.523438 151.855469 112.078125 151.855469 115.183594 Z M 151.855469 115.183594 " fill-opacity="1" fill-rule="nonzero"/><path fill="#580f1a" d="M 183.445312 115.183594 C 183.445312 117.625 182.886719 120.335938 181.773438 123.328125 C 180.449219 127.210938 178.84375 129.15625 176.953125 129.15625 L 162.820312 129.484375 L 145.363281 129.15625 C 143.703125 129.15625 142.875 127.492188 142.875 124.167969 C 142.875 121.722656 143.375 119.058594 144.367188 116.179688 C 145.699219 112.410156 147.363281 110.523438 149.355469 110.523438 L 164.316406 110.6875 L 180.945312 110.523438 C 182.609375 110.523438 183.445312 112.078125 183.445312 115.183594 Z M 183.445312 115.183594 " fill-opacity="1" fill-rule="nonzero"/><path fill="#580f1a" d="M 215.035156 115.183594 C 215.035156 117.625 214.476562 120.335938 213.367188 123.328125 C 212.039062 127.210938 210.433594 129.15625 208.542969 129.15625 L 194.410156 129.484375 L 176.953125 129.15625 C 175.292969 129.15625 174.464844 127.492188 174.464844 124.167969 C 174.464844 121.722656 174.964844 119.058594 175.960938 116.179688 C 177.289062 112.410156 178.953125 110.523438 180.945312 110.523438 L 195.90625 110.6875 L 212.535156 110.523438 C 214.199219 110.523438 215.035156 112.078125 215.035156 115.183594 Z M 215.035156 115.183594 " fill-opacity="1" fill-rule="nonzero"/><path fill="#580f1a" d="M 246.625 115.183594 C 246.625 117.625 246.070312 120.335938 244.957031 123.328125 C 243.632812 127.210938 242.023438 129.15625 240.132812 129.15625 L 226.003906 129.484375 L 208.542969 129.15625 C 206.882812 129.15625 206.054688 127.492188 206.054688 124.167969 C 206.054688 121.722656 206.554688 119.058594 207.550781 116.179688 C 208.882812 112.410156 210.546875 110.523438 212.535156 110.523438 L 227.496094 110.6875 L 244.128906 110.523438 C 245.792969 110.523438 246.625 112.078125 246.625 115.183594 Z M 246.625 115.183594 " fill-opacity="1" fill-rule="nonzero"/><path fill="#580f1a" d="M 278.21875 115.183594 C 278.21875 117.625 277.660156 120.335938 276.546875 123.328125 C 275.222656 127.210938 273.617188 129.15625 271.722656 129.15625 L 257.59375 129.484375 L 240.132812 129.15625 C 238.476562 129.15625 237.644531 127.492188 237.644531 124.167969 C 237.644531 121.722656 238.144531 119.058594 239.140625 116.179688 C 240.472656 112.410156 242.136719 110.523438 244.128906 110.523438 L 259.085938 110.6875 L 275.71875 110.523438 C 277.382812 110.523438 278.21875 112.078125 278.21875 115.183594 Z M 278.21875 115.183594 " fill-opacity="1" fill-rule="nonzero"/><path fill="#580f1a" d="M 309.808594 115.183594 C 309.808594 117.625 309.25 120.335938 308.136719 123.328125 C 306.8125 127.210938 305.207031 129.15625 303.3125 129.15625 L 289.183594 129.484375 L 271.722656 129.15625 C 270.066406 129.15625 269.234375 127.492188 269.234375 124.167969 C 269.234375 121.722656 269.734375 119.058594 270.730469 116.179688 C 272.0625 112.410156 273.726562 110.523438 275.71875 110.523438 L 290.679688 110.6875 L 307.308594 110.523438 C 308.972656 110.523438 309.808594 112.078125 309.808594 115.183594 Z M 309.808594 115.183594 " fill-opacity="1" fill-rule="nonzero"/><path fill="#580f1a" d="M 341.398438 115.183594 C 341.398438 117.625 340.839844 120.335938 339.726562 123.328125 C 338.402344 127.210938 336.796875 129.15625 334.90625 129.15625 L 320.773438 129.484375 L 303.3125 129.15625 C 301.65625 129.15625 300.828125 127.492188 300.828125 124.167969 C 300.828125 121.722656 301.324219 119.058594 302.320312 116.179688 C 303.652344 112.410156 305.316406 110.523438 307.308594 110.523438 L 322.269531 110.6875 L 338.898438 110.523438 C 340.5625 110.523438 341.398438 112.078125 341.398438 115.183594 Z M 341.398438 115.183594 " fill-opacity="1" fill-rule="nonzero"/><path fill="#580f1a" d="M 411.0625 100.210938 C 411.0625 104.539062 410.285156 109.085938 408.738281 113.851562 C 406.625 120.171875 403.800781 123.328125 400.257812 123.328125 C 399.585938 123.328125 396.042969 121.886719 389.617188 119.003906 C 382.851562 116.015625 378.304688 114.296875 375.976562 113.851562 C 359.464844 124.054688 345.773438 129.15625 334.90625 129.15625 C 333.246094 129.15625 332.417969 127.492188 332.417969 124.167969 C 332.417969 121.722656 332.917969 119.058594 333.910156 116.179688 C 335.242188 112.410156 336.90625 110.523438 338.898438 110.523438 C 346.214844 110.523438 352.257812 109.363281 357.023438 107.03125 C 355.355469 104.929688 354.523438 102.101562 354.523438 98.550781 C 354.523438 90.570312 357.960938 81.589844 364.835938 71.613281 C 363.285156 70.605469 362.511719 68.335938 362.511719 64.789062 C 362.511719 55.921875 364.28125 51.484375 367.828125 51.484375 C 373.261719 51.484375 381.246094 55.976562 391.78125 64.953125 C 404.632812 75.933594 411.0625 87.6875 411.0625 100.210938 Z M 405.910156 105.875 C 405.910156 103.101562 403.804688 99.050781 399.59375 93.726562 C 395.929688 89.179688 392.609375 85.742188 389.617188 83.410156 C 389.617188 89.292969 387.453125 95.449219 383.125 101.878906 C 395.097656 105.3125 402.027344 107.03125 403.914062 107.03125 C 405.246094 107.03125 405.910156 106.644531 405.910156 105.875 Z M 381.792969 89.90625 C 381.792969 87.578125 381.1875 85.136719 379.972656 82.582031 C 378.414062 79.589844 376.636719 78.09375 374.648438 78.09375 C 372.429688 78.09375 369.542969 79.761719 365.992188 83.082031 C 362.449219 86.410156 360.679688 89.179688 360.679688 91.402344 C 360.679688 95.0625 364.117188 98.113281 370.992188 100.546875 C 378.191406 98.554688 381.792969 95.007812 381.792969 89.90625 Z M 381.792969 89.90625 " fill-opacity="1" fill-rule="nonzero"/><path fill="#580f1a" d="M 534.15625 45.25 C 534.15625 45.25 533.695312 46.695312 532.777344 49.582031 C 532.363281 50.714844 532.101562 51.277344 531.996094 51.277344 C 531.589844 51.074219 531.179688 50.769531 530.769531 50.355469 C 529.21875 49.117188 527.722656 48.085938 526.285156 47.257812 C 522.992188 52.304688 518.148438 56.683594 511.769531 60.386719 C 508.886719 62.140625 504.410156 64.203125 498.335938 66.566406 C 495.355469 67.804688 493.65625 68.015625 493.246094 67.1875 C 492.832031 66.777344 494.429688 65.539062 498.035156 63.484375 C 504.621094 59.777344 508.941406 57.199219 510.996094 55.75 C 515.941406 52.355469 519.59375 48.960938 521.964844 45.5625 C 521.246094 45.253906 520.011719 44.894531 518.261719 44.476562 C 514.140625 43.039062 512.082031 40.925781 512.082031 38.144531 C 512.082031 35.0625 513.550781 31.695312 516.484375 28.042969 C 519.421875 24.382812 522.378906 22.550781 525.363281 22.550781 C 528.964844 22.550781 530.769531 25.488281 530.769531 31.359375 C 530.769531 34.753906 530.097656 38.050781 528.761719 41.242188 C 532.355469 43.097656 534.15625 44.429688 534.15625 45.25 Z M 525.664062 34.140625 C 525.664062 31.359375 524.429688 29.96875 521.964844 29.96875 C 518.359375 29.96875 516.554688 31.460938 516.554688 34.441406 C 516.554688 35.472656 519.335938 37.171875 524.894531 39.535156 C 525.410156 37.582031 525.664062 35.785156 525.664062 34.140625 Z M 525.664062 34.140625 " fill-opacity="1" fill-rule="nonzero"/></svg>