<?xml version="1.0" encoding="UTF-8"?>
<svg xmlns="http://www.w3.org/2000/svg" viewBox="0 0 400 400" width="400" height="400">
  <path fill="#590d1a" fill-rule="evenodd" d="M 251.81 326.88 C 251.10 327.33 248.57 326.97 247.19 327.00 C 245.80 327.03 243.95 327.05 242.56 327.07 C 241.18 327.08 239.33 327.09 237.94 327.10 C 236.55 327.10 234.70 327.10 233.31 327.10 C 231.92 327.09 230.07 327.08 228.68 327.07 C 227.29 327.06 225.44 327.05 224.05 327.03 C 222.66 327.02 220.81 327.00 219.42 326.99 C 218.03 326.97 216.18 326.96 214.79 326.94 C 213.40 326.93 211.54 326.91 210.15 326.91 C 208.76 326.90 206.91 326.89 205.52 326.89 C 204.13 326.88 202.28 326.88 200.89 326.89 C 199.50 326.89 197.65 326.90 196.26 326.91 C 194.87 326.92 193.02 326.93 191.63 326.95 C 190.25 326.96 188.39 326.98 187.00 326.99 C 185.62 327.00 183.76 327.02 182.38 327.04 C 180.99 327.05 179.14 327.07 177.75 327.08 C 176.36 327.09 174.51 327.10 173.12 327.11 C 171.73 327.12 169.87 327.13 168.49 327.13 C 167.10 327.13 165.24 327.14 163.85 327.13 C 162.46 327.13 160.60 327.20 159.22 327.10 C 157.84 327.01 155.09 327.01 154.67 326.52 C 154.26 326.03 155.48 324.23 156.46 323.84 C 157.44 323.45 159.82 323.90 161.23 323.92 C 162.63 323.93 164.42 323.93 165.81 323.93 C 167.20 323.93 169.09 323.92 170.48 323.91 C 171.87 323.91 173.69 323.88 175.08 323.90 C 176.47 323.91 178.76 324.15 179.77 323.99 C 180.78 323.83 182.15 323.31 181.81 322.83 C 181.48 322.35 178.82 321.41 177.56 320.78 C 176.31 320.16 174.66 319.36 173.45 318.69 C 172.24 318.01 170.66 317.05 169.51 316.29 C 168.35 315.53 166.84 314.45 165.75 313.61 C 164.65 312.77 163.22 311.59 162.18 310.67 C 161.14 309.75 159.80 308.48 158.83 307.49 C 157.86 306.50 156.61 305.13 155.71 304.08 C 154.81 303.03 153.65 301.58 152.83 300.47 C 152.00 299.36 150.95 297.84 150.20 296.67 C 149.46 295.51 148.51 293.92 147.85 292.70 C 147.19 291.49 146.35 289.84 145.78 288.59 C 145.20 287.33 144.48 285.63 144.00 284.33 C 143.51 283.04 142.92 281.29 142.52 279.97 C 142.13 278.66 141.68 276.91 141.36 275.55 C 141.05 274.19 140.26 272.04 140.41 270.88 C 140.55 269.73 141.34 268.31 142.32 267.83 C 143.30 267.36 145.53 267.72 146.92 267.72 C 148.32 267.71 150.24 267.79 151.63 267.79 C 153.03 267.79 154.87 267.74 156.24 267.73 C 157.61 267.72 159.36 267.72 160.77 267.73 C 162.18 267.74 164.40 267.91 165.62 267.81 C 166.85 267.70 169.06 267.43 168.94 267.04 C 168.82 266.65 166.07 265.75 164.83 265.21 C 163.60 264.66 161.92 263.98 160.69 263.38 C 159.46 262.78 157.83 261.91 156.64 261.21 C 155.44 260.52 153.86 259.52 152.71 258.74 C 151.57 257.95 150.07 256.84 148.99 255.98 C 147.91 255.12 146.52 253.92 145.51 252.99 C 144.51 252.06 143.17 250.80 142.27 249.78 C 141.37 248.76 139.50 247.18 139.54 246.18 C 139.57 245.18 141.46 243.95 142.49 243.12 C 143.51 242.29 145.18 241.36 146.36 240.62 C 147.53 239.87 149.13 238.90 150.31 238.15 C 151.49 237.40 153.05 236.40 154.22 235.64 C 155.39 234.88 156.94 233.86 158.11 233.09 C 159.27 232.33 160.81 231.30 161.97 230.53 C 163.13 229.76 164.66 228.73 165.82 227.96 C 166.97 227.18 168.51 226.15 169.66 225.39 C 170.82 224.62 172.36 223.59 173.51 222.83 C 174.67 222.07 176.21 221.06 177.37 220.30 C 178.53 219.54 180.08 218.54 181.25 217.79 C 182.41 217.03 183.96 216.03 185.12 215.27 C 186.29 214.52 187.84 213.51 189.00 212.75 C 190.17 211.99 191.72 210.97 192.88 210.20 C 194.05 209.43 195.60 208.40 196.76 207.61 C 197.92 206.83 199.66 205.72 200.62 204.97 C 201.58 204.22 203.45 202.87 203.16 202.62 C 202.88 202.37 200.06 203.07 198.72 203.29 C 197.38 203.51 195.59 203.89 194.23 204.09 C 192.87 204.28 191.03 204.48 189.65 204.58 C 188.28 204.68 186.43 204.76 185.04 204.77 C 183.66 204.78 181.80 204.73 180.42 204.65 C 179.04 204.56 177.20 204.38 175.82 204.20 C 174.45 204.01 172.63 203.70 171.27 203.43 C 169.91 203.15 168.12 202.71 166.78 202.34 C 165.45 201.96 163.69 201.40 162.39 200.93 C 161.09 200.46 159.37 199.78 158.11 199.22 C 156.84 198.66 155.18 197.85 153.96 197.21 C 152.73 196.57 151.13 195.65 149.95 194.92 C 148.78 194.19 147.24 193.17 146.11 192.36 C 144.99 191.55 143.53 190.43 142.46 189.54 C 141.40 188.66 140.01 187.44 139.01 186.48 C 138.01 185.53 136.71 184.21 135.78 183.19 C 134.84 182.17 133.65 180.76 132.79 179.67 C 131.93 178.59 130.84 177.10 130.06 175.95 C 129.28 174.80 128.31 173.23 127.62 172.02 C 126.93 170.82 126.07 169.17 125.47 167.93 C 124.87 166.69 124.12 165.05 123.59 163.77 C 123.07 162.48 122.13 160.59 121.95 159.37 C 121.77 158.16 121.61 156.32 122.39 155.64 C 123.17 154.95 125.74 155.03 127.12 154.80 C 128.51 154.57 130.28 154.30 131.63 154.08 C 132.98 153.86 134.76 153.56 136.12 153.34 C 137.48 153.12 139.32 152.83 140.69 152.62 C 142.06 152.40 143.90 152.11 145.27 151.90 C 146.64 151.68 148.47 151.39 149.84 151.17 C 151.20 150.96 153.03 150.67 154.39 150.45 C 155.76 150.23 157.57 149.94 158.93 149.72 C 160.30 149.50 162.11 149.20 163.47 148.98 C 164.83 148.76 166.64 148.47 168.01 148.25 C 169.37 148.03 171.19 147.74 172.56 147.53 C 173.93 147.32 175.77 147.04 177.15 146.84 C 178.53 146.63 180.44 146.43 181.79 146.18 C 183.13 145.92 185.68 145.51 186.12 145.13 C 186.56 144.76 185.65 144.07 184.73 143.67 C 183.81 143.28 181.34 142.87 179.97 142.48 C 178.61 142.09 176.94 141.54 175.65 141.07 C 174.37 140.61 172.68 139.91 171.42 139.35 C 170.17 138.79 168.50 137.97 167.28 137.31 C 166.06 136.66 164.45 135.72 163.27 134.98 C 162.10 134.24 160.56 133.20 159.44 132.38 C 158.33 131.57 156.88 130.43 155.82 129.53 C 154.77 128.64 153.41 127.41 152.42 126.44 C 151.43 125.48 150.16 124.15 149.24 123.11 C 148.32 122.08 147.14 120.66 146.29 119.56 C 145.45 118.46 144.36 116.96 143.59 115.80 C 142.82 114.65 141.85 113.07 141.16 111.87 C 140.47 110.66 139.60 109.02 139.00 107.77 C 138.39 106.52 137.64 104.83 137.13 103.54 C 136.62 102.26 135.99 100.52 135.57 99.20 C 135.16 97.89 134.66 96.12 134.35 94.78 C 134.03 93.44 133.68 91.65 133.46 90.29 C 133.23 88.92 133.01 87.10 132.84 85.68 C 132.68 84.27 132.11 81.99 132.35 80.86 C 132.60 79.72 133.50 78.48 134.50 78.12 C 135.49 77.76 137.62 78.29 138.99 78.44 C 140.35 78.59 142.22 78.95 143.60 79.15 C 144.98 79.35 146.81 79.59 148.19 79.77 C 149.56 79.95 151.39 80.17 152.76 80.33 C 154.13 80.50 155.96 80.71 157.32 80.88 C 158.69 81.04 160.52 81.26 161.88 81.43 C 163.25 81.60 165.08 81.83 166.45 82.01 C 167.82 82.18 169.64 82.42 171.02 82.60 C 172.39 82.78 174.22 83.02 175.59 83.19 C 176.97 83.37 178.81 83.61 180.19 83.78 C 181.56 83.95 183.41 84.18 184.76 84.34 C 186.12 84.51 187.82 84.71 189.22 84.89 C 190.61 85.07 193.05 85.81 194.07 85.55 C 195.09 85.28 195.69 84.20 196.01 83.12 C 196.33 82.03 195.83 79.60 196.22 78.30 C 196.61 77.01 197.68 75.43 198.62 74.49 C 199.57 73.54 201.23 72.46 202.50 72.03 C 203.77 71.59 205.78 71.40 207.10 71.59 C 208.42 71.78 210.20 72.53 211.27 73.31 C 212.35 74.08 213.62 75.59 214.28 76.75 C 214.95 77.91 215.68 79.68 215.70 81.04 C 215.72 82.40 214.32 84.70 214.40 85.79 C 214.49 86.88 215.27 87.85 216.25 88.34 C 217.23 88.82 219.56 88.83 220.95 89.01 C 222.33 89.19 224.13 89.37 225.50 89.53 C 226.86 89.70 228.69 89.94 230.06 90.11 C 231.43 90.29 233.26 90.53 234.63 90.71 C 236.01 90.88 237.84 91.10 239.22 91.27 C 240.60 91.43 242.43 91.65 243.81 91.82 C 245.18 91.98 247.01 92.20 248.37 92.37 C 249.74 92.54 251.54 92.78 252.91 92.95 C 254.28 93.12 256.17 93.26 257.49 93.51 C 258.81 93.76 261.14 93.80 261.71 94.62 C 262.28 95.43 261.62 97.62 261.31 98.93 C 261.00 100.23 260.15 102.03 259.63 103.31 C 259.11 104.60 258.44 106.26 257.85 107.50 C 257.27 108.74 256.43 110.38 255.75 111.59 C 255.07 112.79 254.11 114.37 253.34 115.53 C 252.58 116.69 251.50 118.21 250.66 119.31 C 249.81 120.41 248.63 121.85 247.71 122.89 C 246.79 123.93 245.52 125.27 244.53 126.24 C 243.55 127.21 242.19 128.46 241.14 129.35 C 240.09 130.24 238.66 131.37 237.54 132.18 C 236.42 133.00 234.82 134.01 233.67 134.78 C 232.53 135.55 230.02 136.84 229.89 137.32 C 229.76 137.80 231.69 137.99 232.83 137.96 C 233.96 137.93 236.10 137.33 237.46 137.12 C 238.81 136.90 240.44 136.76 241.84 136.52 C 243.24 136.28 245.53 135.49 246.77 135.52 C 248.01 135.55 249.55 135.86 250.10 136.72 C 250.66 137.59 250.46 139.91 250.47 141.29 C 250.47 142.68 250.28 144.59 250.12 145.96 C 249.96 147.34 249.67 149.13 249.42 150.48 C 249.17 151.83 248.78 153.62 248.44 154.96 C 248.11 156.29 247.60 158.08 247.17 159.40 C 246.74 160.71 246.09 162.47 245.56 163.75 C 245.04 165.04 244.26 166.74 243.65 167.98 C 243.03 169.22 242.15 170.84 241.46 172.02 C 240.76 173.19 239.81 174.65 239.02 175.82 C 238.23 177.00 236.55 179.02 236.17 179.85 C 235.79 180.67 235.80 181.47 236.49 181.31 C 237.17 181.15 239.53 179.54 240.72 178.76 C 241.90 177.98 243.24 176.72 244.40 176.12 C 245.56 175.52 247.53 174.32 248.46 174.77 C 249.38 175.22 249.63 178.40 250.56 179.10 C 251.50 179.81 253.39 179.32 254.69 179.47 C 255.99 179.62 258.02 179.59 259.25 180.08 C 260.48 180.57 262.01 181.75 262.90 182.74 C 263.78 183.74 264.74 185.43 265.12 186.70 C 265.51 187.97 265.68 189.90 265.44 191.21 C 265.20 192.53 264.36 194.40 263.49 195.45 C 262.63 196.50 260.83 197.52 259.70 198.21 C 258.58 198.90 256.60 199.10 255.97 200.06 C 255.34 201.02 255.62 203.23 255.53 204.60 C 255.44 205.97 255.47 207.83 255.38 209.21 C 255.28 210.58 255.09 212.42 254.89 213.79 C 254.69 215.15 254.37 216.97 254.07 218.32 C 253.78 219.67 253.32 221.46 252.93 222.78 C 252.54 224.11 251.96 225.86 251.47 227.15 C 250.99 228.45 250.28 230.16 249.71 231.42 C 249.14 232.67 248.31 234.33 247.65 235.55 C 246.99 236.76 246.05 238.36 245.31 239.53 C 244.57 240.69 243.52 242.22 242.70 243.34 C 241.88 244.45 240.73 245.90 239.84 246.96 C 238.94 248.01 237.69 249.38 236.73 250.37 C 235.76 251.35 234.42 252.63 233.39 253.55 C 232.35 254.46 230.93 255.64 229.83 256.48 C 228.73 257.32 227.22 258.40 226.06 259.16 C 224.90 259.92 223.31 260.89 222.10 261.57 C 220.89 262.25 219.22 263.10 217.99 263.69 C 216.75 264.28 214.94 264.97 213.87 265.51 C 212.79 266.06 210.64 266.99 210.80 267.34 C 210.96 267.69 213.58 267.77 214.91 267.83 C 216.23 267.90 218.24 267.78 219.65 267.77 C 221.07 267.75 222.94 267.74 224.33 267.73 C 225.73 267.73 227.58 267.73 228.96 267.73 C 230.35 267.73 232.19 267.73 233.57 267.74 C 234.95 267.74 236.79 267.75 238.18 267.75 C 239.56 267.76 241.41 267.76 242.81 267.76 C 244.20 267.76 246.06 267.76 247.46 267.76 C 248.85 267.76 250.72 267.76 252.11 267.76 C 253.50 267.75 255.36 267.75 256.75 267.75 C 258.13 267.74 259.97 267.73 261.35 267.73 C 262.74 267.73 264.59 267.66 265.96 267.73 C 267.34 267.80 269.81 267.50 270.49 268.23 C 271.18 268.95 270.67 271.23 270.53 272.57 C 270.39 273.91 269.90 275.80 269.56 277.14 C 269.22 278.49 268.70 280.24 268.26 281.55 C 267.83 282.86 267.20 284.59 266.68 285.87 C 266.16 287.15 265.41 288.83 264.80 290.08 C 264.20 291.32 263.34 292.96 262.64 294.16 C 261.95 295.36 260.97 296.93 260.20 298.08 C 259.42 299.23 258.33 300.72 257.47 301.82 C 256.62 302.91 255.42 304.33 254.49 305.35 C 253.56 306.38 252.27 307.72 251.27 308.68 C 250.28 309.64 248.90 310.88 247.84 311.77 C 246.78 312.66 245.32 313.79 244.21 314.60 C 243.09 315.42 241.56 316.45 240.40 317.17 C 239.23 317.90 237.65 318.81 236.43 319.46 C 235.20 320.12 233.32 320.94 232.21 321.54 C 231.10 322.15 228.83 323.15 229.01 323.50 C 229.19 323.86 232.07 323.83 233.41 323.89 C 234.75 323.96 236.56 323.93 237.95 323.93 C 239.33 323.93 241.24 323.89 242.63 323.90 C 244.03 323.90 245.84 323.94 247.23 323.96 C 248.62 323.98 251.24 323.58 251.93 324.02 C 252.62 324.45 252.52 326.44 251.81 326.88 Z M 157.55 176.25 C 157.81 176.21 158.16 176.12 158.41 176.05 C 158.67 175.97 159.01 175.85 159.26 175.76 C 159.50 175.66 159.83 175.51 160.07 175.38 C 160.31 175.26 160.62 175.08 160.85 174.93 C 161.08 174.79 161.37 174.58 161.59 174.42 C 161.80 174.25 162.08 174.02 162.28 173.84 C 162.48 173.66 162.73 173.40 162.92 173.20 C 163.10 173.00 163.33 172.72 163.49 172.51 C 163.66 172.30 163.86 172.00 164.01 171.77 C 164.15 171.55 164.33 171.23 164.45 171.00 C 164.57 170.76 164.72 170.43 164.83 170.19 C 164.93 169.94 165.05 169.60 165.13 169.35 C 165.21 169.09 165.30 168.75 165.36 168.49 C 165.41 168.23 165.47 167.88 165.51 167.62 C 165.54 167.35 165.57 167.00 165.58 166.74 C 165.60 166.47 165.59 166.12 165.58 165.86 C 165.57 165.59 165.54 165.24 165.50 164.98 C 165.46 164.72 165.40 164.38 165.33 164.12 C 165.27 163.87 165.17 163.53 165.09 163.28 C 165.00 163.03 164.87 162.70 164.76 162.46 C 164.66 162.22 164.50 161.90 164.37 161.67 C 164.24 161.44 164.05 161.14 163.90 160.92 C 163.75 160.71 163.54 160.42 163.37 160.22 C 163.21 160.01 162.97 159.75 162.78 159.56 C 162.60 159.37 162.34 159.13 162.14 158.96 C 161.93 158.79 161.65 158.57 161.44 158.42 C 161.22 158.27 160.92 158.08 160.69 157.95 C 160.46 157.82 160.14 157.66 159.90 157.55 C 159.66 157.43 159.33 157.30 159.08 157.21 C 158.83 157.12 158.48 157.02 158.23 156.95 C 157.97 156.88 157.62 156.81 157.36 156.76 C 157.10 156.72 156.74 156.67 156.48 156.65 C 156.21 156.63 155.86 156.61 155.59 156.62 C 155.33 156.62 154.97 156.63 154.71 156.66 C 154.44 156.68 154.09 156.73 153.83 156.78 C 153.57 156.83 153.23 156.91 152.97 156.99 C 152.72 157.06 152.38 157.17 152.14 157.27 C 151.89 157.37 151.57 157.51 151.33 157.63 C 151.09 157.74 150.78 157.91 150.56 158.05 C 150.33 158.19 150.03 158.39 149.82 158.54 C 149.61 158.70 149.33 158.92 149.13 159.10 C 148.94 159.27 148.68 159.52 148.50 159.71 C 148.32 159.90 148.09 160.17 147.92 160.37 C 147.76 160.58 147.55 160.87 147.41 161.09 C 147.27 161.31 147.09 161.61 146.97 161.85 C 146.84 162.08 146.69 162.40 146.59 162.64 C 146.49 162.89 146.37 163.22 146.29 163.47 C 146.21 163.72 146.11 164.06 146.05 164.32 C 146.00 164.57 145.93 164.92 145.90 165.18 C 145.86 165.44 145.83 165.79 145.82 166.05 C 145.80 166.32 145.80 166.67 145.81 166.93 C 145.82 167.19 145.85 167.54 145.89 167.80 C 145.92 168.06 145.99 168.40 146.05 168.66 C 146.10 168.91 146.20 169.25 146.28 169.50 C 146.37 169.75 146.49 170.07 146.60 170.31 C 146.70 170.56 146.86 170.87 146.98 171.10 C 147.11 171.33 147.29 171.63 147.44 171.85 C 147.59 172.07 147.80 172.36 147.96 172.57 C 148.13 172.77 148.36 173.04 148.55 173.23 C 148.73 173.42 148.99 173.67 149.19 173.85 C 149.39 174.02 149.67 174.25 149.89 174.40 C 150.11 174.56 150.41 174.76 150.64 174.90 C 150.87 175.04 151.19 175.21 151.43 175.33 C 151.67 175.45 152.00 175.60 152.26 175.70 C 152.51 175.79 152.85 175.91 153.11 175.99 C 153.37 176.06 153.72 176.15 153.99 176.20 C 154.25 176.26 154.61 176.31 154.88 176.34 C 155.14 176.37 155.50 176.39 155.77 176.40 C 156.04 176.40 156.40 176.39 156.66 176.37 C 156.93 176.35 157.28 176.30 157.55 176.25 Z"/>
</svg>
