<svg xmlns="http://www.w3.org/2000/svg" viewBox="0 0 2048 2048" width="2048" height="2048">
  <path d="M 1206 385 L 1169 386 L 1123 399 L 1087 420 L 1050 457 L 1005 455 L 962 471 L 924 510 L 904 567 L 777 590 L 723 607 L 668 632 L 633 655 L 612 676 L 596 701 L 585 734 L 566 735 L 552 746 L 554 809 L 571 872 L 606 942 L 650 999 L 715 1057 L 776 1095 L 862 1131 L 954 1153 L 954 1467 L 857 1480 L 800 1493 L 762 1506 L 723 1529 L 706 1557 L 711 1586 L 734 1609 L 785 1632 L 855 1649 L 959 1661 L 1042 1663 L 1139 1657 L 1218 1644 L 1284 1624 L 1319 1605 L 1339 1580 L 1341 1557 L 1337 1545 L 1318 1524 L 1292 1509 L 1221 1486 L 1093 1467 L 1093 1153 L 1165 1137 L 1236 1112 L 1312 1071 L 1370 1026 L 1427 963 L 1467 894 L 1491 820 L 1497 751 L 1482 735 L 1462 734 L 1452 703 L 1436 677 L 1414 655 L 1376 630 L 1322 606 L 1267 589 L 1139 564 L 1126 515 L 1093 473 L 1135 440 L 1167 429 L 1211 422 L 1218 413 L 1219 399 Z M 748 1563 L 778 1545 L 816 1532 L 884 1518 L 950 1511 L 954 1514 L 954 1543 L 961 1555 L 970 1560 L 980 1560 L 992 1552 L 996 1541 L 996 1158 L 1000 1155 L 1047 1155 L 1051 1158 L 1051 1541 L 1055 1552 L 1067 1560 L 1077 1560 L 1085 1556 L 1093 1544 L 1093 1514 L 1097 1511 L 1165 1518 L 1232 1532 L 1272 1546 L 1295 1559 L 1300 1566 L 1282 1579 L 1264 1587 L 1218 1601 L 1185 1608 L 1094 1619 L 995 1621 L 913 1615 L 834 1602 L 804 1594 L 770 1581 L 750 1569 Z M 1453 779 L 1451 803 L 1442 841 L 1427 879 L 1412 908 L 1393 937 L 1373 962 L 1346 990 L 1323 1010 L 1267 1049 L 1224 1071 L 1190 1085 L 1117 1105 L 1045 1113 L 1000 1113 L 964 1110 L 892 1096 L 857 1085 L 812 1066 L 780 1049 L 752 1031 L 712 1000 L 688 977 L 669 956 L 642 919 L 624 887 L 612 860 L 601 826 L 594 789 L 594 780 L 598 777 L 1449 776 Z M 631 729 L 636 716 L 650 697 L 666 683 L 685 671 L 732 649 L 770 636 L 808 626 L 861 615 L 913 608 L 918 612 L 924 626 L 937 644 L 959 663 L 979 674 L 997 680 L 1030 683 L 1047 681 L 1067 675 L 1092 661 L 1114 640 L 1126 622 L 1130 611 L 1134 608 L 1187 615 L 1240 626 L 1277 636 L 1332 656 L 1359 669 L 1390 690 L 1409 712 L 1415 725 L 1416 732 L 1411 735 L 635 735 L 631 732 Z M 1015 496 L 1025 496 L 1027 497 L 1029 499 L 1029 503 L 1026 510 L 1025 514 L 1025 526 L 1027 531 L 1031 536 L 1034 538 L 1041 541 L 1049 541 L 1053 540 L 1057 538 L 1062 534 L 1065 528 L 1067 519 L 1070 516 L 1072 515 L 1074 516 L 1081 523 L 1089 535 L 1092 542 L 1095 551 L 1096 556 L 1096 579 L 1094 588 L 1089 601 L 1084 609 L 1080 614 L 1070 624 L 1060 631 L 1052 635 L 1044 638 L 1035 640 L 1027 641 L 1020 641 L 1012 640 L 1004 638 L 998 636 L 986 630 L 980 626 L 974 620 L 973 620 L 968 615 L 962 607 L 956 596 L 953 587 L 951 578 L 951 558 L 953 549 L 956 540 L 959 534 L 965 525 L 972 517 L 980 510 L 986 506 L 999 500 L 1005 498 Z" fill="#430d1a" fill-rule="evenodd"/>
</svg>
