<?xml version="1.0" encoding="UTF-8"?>
<svg xmlns="http://www.w3.org/2000/svg" viewBox="0 0 400 400" width="400" height="400">
  <path d="M 133 78 L 133 89 L 134 90 L 134 94 L 135 95 L 137 103 L 139 106 L 139 108 L 141 110 L 142 113 L 144 115 L 146 119 L 158 131 L 159 131 L 164 135 L 174 140 L 176 140 L 180 142 L 183 142 L 184 143 L 188 143 L 189 144 L 186 146 L 174 147 L 173 148 L 161 149 L 160 150 L 155 150 L 154 151 L 149 151 L 148 152 L 143 152 L 142 153 L 137 153 L 136 154 L 130 154 L 129 155 L 124 155 L 123 156 L 121 156 L 122 157 L 124 165 L 127 171 L 129 173 L 131 177 L 134 180 L 134 181 L 142 189 L 143 189 L 149 194 L 161 200 L 167 201 L 168 202 L 171 202 L 172 203 L 177 203 L 178 204 L 189 204 L 190 203 L 197 203 L 198 202 L 201 202 L 202 201 L 204 201 L 205 202 L 195 209 L 194 209 L 192 211 L 191 211 L 189 213 L 188 213 L 186 215 L 185 215 L 183 217 L 182 217 L 180 219 L 179 219 L 177 221 L 174 222 L 172 224 L 171 224 L 169 226 L 168 226 L 145 242 L 139 245 L 139 246 L 151 257 L 152 257 L 157 261 L 163 264 L 165 264 L 168 266 L 170 266 L 171 267 L 170 268 L 140 268 L 141 270 L 141 275 L 142 276 L 143 282 L 145 285 L 145 287 L 148 293 L 150 295 L 154 302 L 164 312 L 165 312 L 168 315 L 184 323 L 183 324 L 155 324 L 154 326 L 252 326 L 252 324 L 227 324 L 226 323 L 239 317 L 241 315 L 245 313 L 257 301 L 257 300 L 260 297 L 261 294 L 263 292 L 265 288 L 265 286 L 267 283 L 268 277 L 269 276 L 269 273 L 270 272 L 270 268 L 209 268 L 208 267 L 228 257 L 233 252 L 234 252 L 242 243 L 250 229 L 250 227 L 251 226 L 251 224 L 253 220 L 253 216 L 254 215 L 254 207 L 255 206 L 255 201 L 254 200 L 256 198 L 260 197 L 264 193 L 264 191 L 265 190 L 264 185 L 261 181 L 259 180 L 251 180 L 249 178 L 247 174 L 236 182 L 234 181 L 240 173 L 245 163 L 245 161 L 246 160 L 246 158 L 248 154 L 248 150 L 249 149 L 249 135 L 248 136 L 236 137 L 235 138 L 230 138 L 229 139 L 227 138 L 229 136 L 232 135 L 234 133 L 238 131 L 250 119 L 250 118 L 254 113 L 259 103 L 259 101 L 261 97 L 261 94 L 256 94 L 255 93 L 248 93 L 247 92 L 240 92 L 239 91 L 231 91 L 230 90 L 224 90 L 223 89 L 216 89 L 213 87 L 214 83 L 215 82 L 214 77 L 212 75 L 212 74 L 211 74 L 209 72 L 202 72 L 200 73 L 196 78 L 196 85 L 195 86 L 193 86 L 192 85 L 185 85 L 184 84 L 177 84 L 176 83 L 168 83 L 167 82 L 161 82 L 160 81 L 153 81 L 152 80 L 145 80 L 144 79 L 137 79 L 136 78 Z M 152 156 L 159 156 L 160 157 L 161 157 L 164 160 L 164 161 L 166 164 L 166 168 L 165 169 L 165 171 L 161 175 L 160 175 L 159 176 L 156 176 L 155 177 L 154 176 L 151 176 L 146 171 L 146 170 L 145 169 L 145 163 L 146 162 L 146 161 L 150 157 L 151 157 Z" fill="#590d1a" fill-rule="evenodd"/>
</svg>
