<?xml version="1.0" standalone="no"?>
<!DOCTYPE svg PUBLIC "-//W3C//DTD SVG 1.1//EN" "http://www.w3.org/Graphics/SVG/1.1/DTD/svg11.dtd" >
<svg xmlns="http://www.w3.org/2000/svg" xmlns:xlink="http://www.w3.org/1999/xlink" version="1.1">
<metadata>
Created by FontForge 20230101 at Tue Jul 15 04:58:37 2014
 By Unknown
(c) 1998-2000 Diwan Software Ltd. All rights reserved
</metadata>
<defs>
<font id="DiwanMishafiGold" horiz-adv-x="0" >
  <font-face 
    font-family="Mishafi Gold"
    font-weight="400"
    font-stretch="normal"
    units-per-em="2048"
    panose-1="0 0 4 0 0 0 0 0 0 0"
    ascent="1638"
    descent="-410"
    bbox="-1994 -1190 10107 1610"
    underline-thickness="40"
    underline-position="-820"
    unicode-range="U+0020-FEF4"
  />
<missing-glyph horiz-adv-x="1024" 
d="M128 0v1610h768v-1610h-768zM256 128h512v1354h-512v-1354z" />
    <glyph glyph-name="S3LamLamHeh" unicode="&#xfedf;&#xfee0;&#xfeea;" horiz-adv-x="856" arabic-form="isolated" 
d="M556 818q0 -60 -13 -60q0 7 -9 56q-12 69 -63 126q7 29 16 53q69 -77 69 -175zM623 661q0 -66 -55 -66q-19 0 -29 9q-27 -33 -52 -35q-49 -5 -55 45q-3 23 8 52q18 47 27 43q7 -5 1 -24q-8 -24 -7 -32q2 -24 26 -24q25 3 37 24q2 30 17 62q6 1 7 -19q2 -25 5 -30
q6 -10 20 -8q12 1 21 12q5 6 2 33q-3 23 6 24q12 0 19 -41q2 -12 2 -25zM836 127q0 -61 -13 -94q-24 -61 -77 -61q-65 0 -103 53q-13 23 -23 62q-7 28 -10 30q-3 -5 -12 -33q-40 -131 -149 -131q-67 0 -105 51q-26 35 -29 98q-34 -56 -53 -69q-26 -19 -88 -19q-99 0 -74 62
q19 48 45 74q45 45 115 78q60 28 62 32q0 29 2 37q18 45 24 45q4 -8 4 -55q0 -124 2 -137q12 -80 97 -80q135 0 135 108q0 32 -39 184q-10 39 -10 50q0 43 24 88q9 0 19 -45q24 -109 39 -169q33 -127 55 -155q38 -48 106 -43q25 2 25 14q0 25 -57.5 165t-57.5 175q0 28 6 66
q3 17 6 18q4 -1 9 -14q70 -175 112 -291q13 -35 13 -94zM315 217q-145 -71 -145 -86q0 -6 32 -9q41 -4 72 7q14 1 39 14q0 12 1 37t1 37z" />
    <glyph glyph-name="D2Shaddafatha" unicode="&#x651;&#x64e;" 
d="M241 1284q14 0 -12 -22q-22 -19 -33 -24q-34 -13 -118 -44l-73 -27q-4 5 16 26q10 9 41 29q19 13 91.5 38.5t87.5 23.5zM213 1135q3 -17 3 -31q0 -67 -50 -67q-20 0 -32 14q-14 -29 -48 -34q-47 -7 -55 41q-3 19 3 50q18 45 24 40q6 -3 2 -21q-5 -24 -3 -30q5 -28 25 -23
q29 4 35 24q1 30 15 61q6 1 9 -20q4 -28 6 -31q6 -14 20 -11q28 6 21 55q-4 24 5 26q12 1 20 -43z" />
    <glyph glyph-name="D2Shaddadamma" unicode="&#x651;&#x64f;" 
d="M203 1280q0 -4 -5.5 -19.5t-7.5 -15.5q-2 1 -8 6.5t-25 17.5q-38 -60 -126 -93q-11 -4 -18 -4q-5 0 -6 3q-4 3 28 22q77 45 96 81q-6 4 -20 7q-37 14 -37 37q0 27 25.5 59t51.5 32q32 0 32 -50q0 -29 -11 -59q31 -16 31 -24zM213 1135q3 -17 3 -31q0 -67 -50 -67
q-20 0 -32 14q-14 -29 -48 -34q-47 -7 -55 41q-3 19 3 50q18 45 24 40q6 -3 2 -21q-5 -24 -3 -30q5 -28 25 -23q29 4 35 24q1 30 15 61q6 1 9 -20q4 -28 6 -31q6 -14 20 -11q28 6 21 55q-4 24 5 26q12 1 20 -43zM153 1344q0 26 -22 26q-31 0 -31 -27q0 -8 48 -28q5 16 5 29z
" />
    <glyph glyph-name="D2Shaddakasra" unicode="&#x651;&#x650;" 
d="M213 1222q3 -17 3 -31q0 -68 -50 -68q-20 0 -32 14q-15 -30 -48 -33q-47 -9 -55 41q-3 19 3 49q18 46 24 41q6 -3 2 -22q-5 -23 -3 -30q5 -27 25 -22q29 4 35 24q1 29 15 61q6 1 9 -21q4 -26 6 -31q6 -13 20 -10q13 3 20 16q5 10 1 39q-4 24 5 25q12 2 20 -42zM263 1117
q4 -2 -19 -26t-31 -28q-107 -39 -214 -77q-3 6 19 28q11 11 44 33q19 13 101 42t100 28z" />
    <glyph glyph-name="D2Shaddafathatan" unicode="&#x651;&#x64b;" 
d="M252 1353q16 -1 -6 -22t-43 -32q-107 -39 -214 -77q-12 14 64 63q19 13 100 41t99 27zM284 1290q15 0 -11.5 -22.5t-38.5 -28.5q-37 -14 -131 -48l-81 -30q-5 5 18 28q10 10 45 33q21 14 100 42q83 29 99 26zM243 1135q3 -17 3 -31q0 -67 -50 -67q-20 0 -32 14
q-14 -29 -48 -34q-47 -7 -55 41q-3 19 3 50q18 45 24 40q6 -3 2 -21q-5 -24 -3 -30q5 -28 25 -23q29 4 35 24q1 30 15 61q6 1 9 -20q4 -28 6 -31q6 -14 20 -11q28 6 21 55q-4 24 5 26q12 1 20 -43z" />
    <glyph glyph-name="D2Shaddadammatan" unicode="&#x651;&#x64c;" 
d="M234 1270q-3 -7 -10 -28q-4 -11 -5 -11q-3 2 -7 6q-8 6 -30 20q-25 -44 -94 -85q-45 -27 -97 -44q-18 -6 -23 -2q-2 6 33 26q66 38 83 50q48 33 70 66q-44 15 -60 33q-46 -29 -73 -29q-32 0 -32 42q0 55 59 120q83 92 146 92q38 0 38 -50q0 -38 -30 -81q8 -17 8 -35
q0 -38 -11 -64q35 -18 35 -26zM263 1135q3 -17 3 -31q0 -67 -50 -67q-20 0 -32 14q-14 -29 -48 -34q-47 -7 -55 41q-3 19 3 50q18 45 24 40q6 -3 2 -21q-5 -24 -3 -30q5 -28 25 -23q29 4 35 24q1 30 15 61q6 1 9 -20q4 -28 6 -31q6 -14 20 -11q28 6 21 55q-4 24 5 26
q12 1 20 -43zM188 1473q-7 7 -19 7q-29 0 -79 -42q-65 -54 -65 -99q0 -7 2 -10q6 -7 18 -7q17 0 45 12q21 82 78 82q9 0 18 -4q13 17 13 33q0 15 -11 28zM173 1309q3 13 3 27q0 13 -3 22q-7 13 -20 13q-8 0 -21 -10t-13 -17q0 -10 54 -35z" />
    <glyph glyph-name="D2Shaddakasratan" unicode="&#x651;&#x64d;" 
d="M196 1290q4 -20 4 -32q0 -66 -49 -66q-21 0 -34 15q-13 -29 -46 -35q-49 -8 -57 41q-4 24 5 49q16 45 24 41q6 -3 2 -22q-6 -24 -5 -30q4 -28 27 -22q26 4 33 24q1 30 15 61q8 1 11 -20q4 -27 6 -32q5 -13 20 -10q13 3 20 16q5 9 -1 39q-4 24 5 26q11 1 20 -43zM250 1183
q16 0 -13 -25q-24 -21 -37 -28q-37 -12 -131 -46q-41 -16 -83 -32q-3 5 20 28q3 3 45 33q20 14 100.5 43t98.5 27zM283 1121q4 -2 -19 -26t-31 -28q-107 -39 -214 -77q-3 5 19 27q14 14 44 34q16 11 104 42q82 29 97 28z" />
    <glyph glyph-name="D2Shaddaalef" unicode="&#x651;&#x670;" 
d="M139 1235q0 12 -9 62q-13 76 -70 141q7 32 18 61q76 -86 76 -195q0 -69 -15 -69zM228 1165q3 -15 3 -31q0 -68 -51 -68q-20 0 -32 14q-15 -30 -48 -33q-47 -9 -55 41q-3 19 4 49q17 46 24 41q6 -3 2 -22q-5 -24 -4 -30q5 -27 26 -22q28 4 35 24q1 30 15 61q6 1 9 -20
q4 -29 5 -32q7 -13 21 -10q13 3 20 16q5 9 0 39q-4 24 5 25q12 2 21 -42z" />
    <glyph glyph-name="M2TatweelalefMadda" unicode="&#x670;&#x6e4;" horiz-adv-x="280" 
d="M280 751q2 -2 2 -5q0 -38 -57 -76q-43 -29 -103 -29q-38 0 -74 16q-26 10 -34 10q-9 0 -24 -18t-20 -18q-4 0 -4 5q0 18 21 52q24 40 48 40q9 -2 37 -12q87 -31 149 -2q21 10 42 27q14 12 17 10zM183 215q-4 -21 -11 -21q-9 0 -9 23q0 139 -104 252q-1 2 -1 8q0 12 7 38
q11 38 21 38q9 0 40 -54q82 -141 57 -284zM300 47q0 -22 -10 -49q-12 -35 -29 -35l-120 -2l-170 2q-15 0 -15 30q0 22 9 48q12 34 30 34l144 -1l146 1q15 0 15 -28z" />
    <glyph glyph-name="S2HamzaYehdotless" unicode="&#xfe8b;&#xfef0;" horiz-adv-x="899" 
d="M727 883q3 -1 3 -6q0 -11 -10 -41q-1 -5 -18 -15q-75 -28 -137 -78q-17 -14 -17 4q0 23 39 54q-43 23 -45 51q-2 33 34 73t69 42q26 2 28 -21q0 -26 -18 -55q-3 -6 -7 -4q-3 2 -3 8q-3 16 -35 10q-26 -5 -25 -22q2 -29 49 -33q11 -2 18 -2q13 0 19 6q48 29 56 29zM879 59
q-3 -98 -174 -211q-205 -135 -359 -135q-246 0 -246 258q0 34 20.5 115t37.5 111q13 24 20 24q11 0 2 -26q-37 -110 -37 -172q0 -70 50 -127q63 -72 180 -72q150 0 407 164q49 31 49 41q0 33 -145 45q-135 11 -135 20q0 67 20 72q158 11 158 53q0 58 -62 138q-41 53 -81 85
q-9 7 -7 68q1 61 11 61q23 0 94 -102q80 -115 80 -199q0 -76 -35 -129q154 0 152 -82z" />
    <glyph glyph-name="S2HamzaAlefmaksura" unicode="&#xfe8b;&#xfc90;" horiz-adv-x="899" 
d="M365 336q-3 -19 -10 -19q-8 0 -8 21q0 126 -94 229q-2 3 -2 8q0 10 7 34q10 34 19 34t37 -49q74 -128 51 -258zM879 59q-3 -98 -174 -211q-205 -135 -359 -135q-246 0 -246 258q0 34 20.5 115t37.5 111q13 24 20 24q11 0 2 -26q-37 -110 -37 -172q0 -70 50 -127
q63 -72 180 -72q150 0 407 164q49 31 49 41q0 33 -145 45q-135 11 -135 20q0 67 20 72q158 11 158 53q0 58 -62 138q-41 53 -81 85q-9 7 -7 68q1 61 11 61q23 0 94 -102q80 -115 80 -199q0 -76 -35 -129q154 0 152 -82zM727 883q3 -1 3 -6q0 -11 -10 -41q-1 -5 -18 -15
q-75 -28 -137 -78q-17 -14 -17 4q0 23 39 54q-43 23 -45 51q-2 33 34 73t69 42q26 2 28 -21q0 -26 -18 -55q-3 -6 -7 -4q-3 2 -3 8q-3 16 -35 10q-26 -5 -25 -22q2 -29 49 -33q11 -2 18 -2q13 0 19 6q48 29 56 29z" />
    <glyph glyph-name="S2BehBeh" unicode="&#xfe91;&#xfe90;" horiz-adv-x="1243" 
d="M1220 -216q-28 -55 -53 -96q-48 21 -101 66q6 14 53 94q42 -27 101 -64zM1223 162q0 -52 -19 -96q-26 -58 -71 -58q-29 0 -75 24q-39 20 -54 36q-6 -9 -25 -27q-56 -53 -249 -81q-142 -21 -271 -21q-201 0 -294 81q-65 56 -65 132q0 32 21 98q24 71 41 63q2 -1 2 -5
q0 -8 -8.5 -34.5t-8.5 -40.5q0 -68 80 -120q99 -64 283 -64q138 0 284 27q82 15 125 28q87 27 107 64q12 21 14 22q12 0 12 -15q0 -16 -14 -50q28 -18 87 -24q55 -6 57 1q2 11 -8 44l-11 32q0 90 39 90q8 0 15 -47q6 -39 6 -59zM628 -292q-28 -55 -53 -96q-48 21 -101 66
q6 14 53 94q42 -27 101 -64z" />
    <glyph glyph-name="S2BehTeh" unicode="&#xfe91;&#xfe96;" horiz-adv-x="1243" 
d="M721 426q-20 -46 -53 -98q-26 12 -84 53q-25 -54 -43 -76q-55 31 -101 66q10 21 54 94q4 -2 84 -51q17 34 43 75q10 -7 100 -63zM1220 -216q-28 -55 -53 -96q-48 21 -101 66q6 14 53 94q42 -27 101 -64zM1223 162q0 -52 -19 -96q-26 -58 -71 -58q-29 0 -75 24
q-39 20 -54 36q-6 -9 -25 -27q-56 -53 -249 -81q-142 -21 -271 -21q-201 0 -294 81q-65 56 -65 132q0 32 21 98q24 71 41 63q2 -1 2 -5q0 -8 -8.5 -34.5t-8.5 -40.5q0 -68 80 -120q99 -64 283 -64q138 0 284 27q82 15 125 28q87 27 107 64q12 21 14 22q12 0 12 -15
q0 -16 -14 -50q28 -18 87 -24q55 -6 57 1q2 11 -8 44l-11 32q0 90 39 90q8 0 15 -47q6 -39 6 -59z" />
    <glyph glyph-name="S2BehTheh" unicode="&#xfe91;&#xfe9a;" horiz-adv-x="1243" 
d="M610 559q-19 -56 -54 -96q-42 26 -100 63q13 29 53 96q42 -26 101 -63zM1237 -154q-28 -55 -53 -96q-48 21 -101 66q6 14 53 94q42 -27 101 -64zM716 413q-25 -57 -53 -96q-20 7 -84 51q-22 -47 -43 -73q-29 12 -101 63q13 29 54 96q28 -18 84 -53q17 35 43 76
q10 -7 100 -64zM1223 162q0 -52 -19 -96q-26 -58 -71 -58q-29 0 -75 24q-39 20 -54 36q-6 -9 -25 -27q-56 -53 -249 -81q-142 -21 -271 -21q-201 0 -294 81q-65 56 -65 132q0 32 21 98q24 71 41 63q2 -1 2 -5q0 -8 -8.5 -34.5t-8.5 -40.5q0 -68 80 -120q99 -64 283 -64
q138 0 284 27q82 15 125 28q87 27 107 64q12 21 14 22q12 0 12 -15q0 -16 -14 -50q28 -18 87 -24q55 -6 57 1q2 11 -8 44l-11 32q0 90 39 90q8 0 15 -47q6 -39 6 -59z" />
    <glyph glyph-name="S2BehReh" unicode="&#xfe91;&#xfeae;" horiz-adv-x="510" 
d="M481 -271q-28 -55 -53 -96q-48 21 -101 66q6 14 53 94q42 -27 101 -64zM451 169q-4 -40 -13 -65q-29 -85 -127 -106q0 -95 -89 -222q-95 -136 -185 -136q-58 0 -159 36q-95 34 -95 45q0 7 33 3q62 -8 110 -7q154 4 295 155q58 62 58 81q0 28 -43 72q-6 6 -3 16
q18 59 33 92q1 2 1 5q1 1 2 0q2 -2 5 -7q21 -20 52 -20q50 0 75 28q14 15 26 52q9 28 17 28q12 0 7 -50z" />
    <glyph glyph-name="S2BehZain" unicode="&#xfe91;&#xfeb0;" horiz-adv-x="510" 
d="M270 367q-28 -55 -53 -96q-48 21 -101 66q6 14 53 94q42 -27 101 -64zM497 -261q-28 -55 -53 -96q-48 21 -101 66q6 14 53 94q42 -27 101 -64zM451 169q-4 -40 -13 -65q-29 -85 -127 -106q0 -95 -89 -222q-95 -136 -185 -136q-58 0 -159 36q-95 34 -95 45q0 7 33 3
q62 -8 110 -7q154 4 295 155q58 62 58 81q0 28 -43 72q-6 6 -3 16q18 59 33 92q1 2 1 5q1 1 2 0q2 -2 5 -7q21 -20 52 -20q50 0 75 28q14 15 26 52q9 28 17 28q12 0 7 -50z" />
    <glyph glyph-name="S2BehSad" unicode="&#xfe91;&#xfeba;" horiz-adv-x="1520" 
d="M1383 -254q-28 -55 -53 -96q-48 21 -101 66q6 14 53 94q42 -27 101 -64zM1499 162q0 -67 -41 -105q-117 -108 -429 -108q-55 0 -99 6q-62 -19 -170 -19q-57 0 -88 7q-7 -155 -30 -219q-36 -99 -135 -156q-91 -53 -202 -53q-99 0 -152 61t-53 160q0 81 47 196q9 23 20 23
q4 -1 4 -6q0 -7 -3 -15q-31 -81 -27 -139q12 -164 203 -164q101 0 197 59q84 52 86 85q1 24 1 47q0 135 -50 223q-1 2 -1 6q0 13 11 54q15 53 20 53q6 -8 37 -62q15 -26 30 -33q9 -4 52 -8q223 250 342 250q36 0 90 -21q63 -24 64 -53q1 -46 -24.5 -102.5t-61.5 -85.5
q111 4 228 41q98 31 99 45q3 48 -69 145q-13 13 14 111q14 0 47 -59q43 -76 43 -164zM1149 145q-3 25 -67 42q-49 12 -85 12q-72 0 -221 -150q16 -3 36 -3q70 0 187 32q41 11 90 32q61 26 60 35z" />
    <glyph glyph-name="S2BehDad" unicode="&#xfe91;&#xfebe;" horiz-adv-x="1520" 
d="M890 508q-28 -55 -53 -96q-48 21 -101 66q6 14 53 94q42 -27 101 -64zM1382 -257q-28 -55 -53 -96q-48 21 -101 66q6 14 53 94q42 -27 101 -64zM1499 162q0 -67 -41 -105q-117 -108 -429 -108q-55 0 -99 6q-62 -19 -170 -19q-57 0 -88 7q-7 -155 -30 -219
q-36 -99 -135 -156q-91 -53 -202 -53q-99 0 -152 61t-53 160q0 81 47 196q9 23 20 23q4 -1 4 -6q0 -7 -3 -15q-31 -81 -27 -139q12 -164 203 -164q101 0 197 59q84 52 86 85q1 24 1 47q0 135 -50 223q-1 2 -1 6q0 13 11 54q15 53 20 53q6 -8 37 -62q15 -26 30 -33
q9 -4 52 -8q223 250 342 250q36 0 90 -21q63 -24 64 -53q1 -46 -24.5 -102.5t-61.5 -85.5q111 4 228 41q98 31 99 45q3 48 -69 145q-13 13 14 111q14 0 47 -59q43 -76 43 -164zM1149 145q-3 25 -67 42q-49 12 -85 12q-72 0 -221 -150q16 -3 36 -3q70 0 187 32q41 11 90 32
q61 26 60 35z" />
    <glyph glyph-name="S2BehTah" unicode="&#xfe91;&#xfec2;" horiz-adv-x="1161" 
d="M1143 178q0 -129 -182 -172q-119 -28 -290 -28q-48 0 -91 4q-163 -48 -277 -48q-47 0 -118 44q-17 10 -68 45q-18 8 -17 14q3 2 19 2q148 -3 252 8l61 70q4 91 -39 360q-10 64 -47 291q-14 14 -14 47q0 25 12 67q15 52 33 52q5 0 5 -5q-1 -4 -3 -9q-11 -42 24 -64l8 -5
q19 -12 19 -22q-5 -10 -33 -75q61 -344 68 -455q6 -92 -4 -154q158 164 248 164q40 0 90 -17q63 -22 65 -54q2 -39 -35.5 -99.5t-72.5 -85.5q153 12 264 46q84 26 84 40q0 27 -19 64q-13 25 -57 84q-10 13 16 114q14 0 51 -59q48 -76 48 -164zM981 -224q-28 -55 -53 -96
q-48 21 -101 66q6 14 53 94q42 -27 101 -64zM801 164q7 8 -38 32q-50 27 -108 27q-92 0 -239 -172q85 9 203 38q147 37 182 75z" />
    <glyph glyph-name="S2BehAin" unicode="&#xfe91;&#xfeca;" horiz-adv-x="684" 
d="M620 -94q-28 -55 -53 -96q-48 21 -101 66q6 14 53 94q42 -27 101 -64zM991 -662q-11 -7 -80 -30q-57 -20 -172 -58q-70 -22 -153 -22q-486 0 -486 379q0 355 226 545q-37 39 -69 39q-13 0 -30 -7q-12 -7 -16 -6t-4 11q0 58 29 92q16 19 64 35q44 14 73 14q50 0 88 -21
q45 -26 45 -73t-31 -82q46 -29 98 -29q60 0 60 43q0 47 -40 113q-26 43 -46 63q-14 14 24 109q16 0 52 -76q41 -86 41 -162q0 -59 -21 -111q-27 -67 -78 -67q-66 0 -168 67q-120 -47 -193 -177q-69 -121 -69 -257q0 -336 510 -336q42 0 168 5q99 4 167 3q11 0 11 -4z" />
    <glyph glyph-name="S2BehGhain" unicode="&#xfe91;&#xfece;" horiz-adv-x="684" 
d="M375 573q-28 -55 -53 -96q-48 21 -101 66q6 14 53 94q42 -27 101 -64zM620 -94q-28 -55 -53 -96q-48 21 -101 66q6 14 53 94q42 -27 101 -64zM991 -662q-11 -7 -80 -30q-57 -20 -172 -58q-70 -22 -153 -22q-486 0 -486 379q0 355 226 545q-37 39 -69 39q-13 0 -30 -7
q-12 -7 -16 -6t-4 11q0 58 29 92q16 19 64 35q44 14 73 14q50 0 88 -21q45 -26 45 -73t-31 -82q46 -29 98 -29q60 0 60 43q0 47 -40 113q-26 43 -46 63q-14 14 24 109q16 0 52 -76q41 -86 41 -162q0 -59 -21 -111q-27 -67 -78 -67q-66 0 -168 67q-120 -47 -193 -177
q-69 -121 -69 -257q0 -336 510 -336q42 0 168 5q99 4 167 3q11 0 11 -4z" />
    <glyph glyph-name="S2BehQaf" unicode="&#xfe91;&#xfed6;" horiz-adv-x="970" 
d="M539 510q-17 -49 -54 -98q-37 22 -82 53q-31 -59 -43 -76q-71 41 -100 66q6 17 53 96q33 -21 82 -53q18 29 43 75q68 -43 101 -63zM970 -64q-28 -55 -53 -96q-48 21 -101 66q6 14 53 94q42 -27 101 -64zM854 289q0 -180 -113 -213q2 -79 -18 -150q-31 -112 -169 -199
q-131 -82 -253 -83q-98 -1 -152 64q-50 61 -49 163q1 63 26 142q23 71 36 71q4 -1 4 -6q0 -23 -12.5 -72t-12.5 -74q-1 -85 50.5 -132.5t136.5 -45.5q102 3 215 65q95 52 155 122q8 10 7 50q-2 42 -15 66q-58 -8 -94 -8q-110 0 -111 80q0 48 33 114q37 76 80 76
q63 0 127 -143q100 20 100 49q0 58 -65 148l-31 43q0 39 19 106q12 0 54 -67q52 -83 52 -166zM639 164q-36 45 -64 45q-10 0 -22 -7q-15 -9 -12 -18q0 -25 46 -25q21 0 52 5z" />
    <glyph glyph-name="S2BehMeem" unicode="&#xfe91;&#xfee2;" horiz-adv-x="592" 
d="M518 6q0 -33 -20 -78q-24 -53 -52 -53q-67 0 -120 35q-45 -83 -119 -135q-52 -37 -225 -70q-70 -13 -70 -4q0 8 29 23l194 97q143 76 164 113q-18 19 -18 41q0 26 25 88q28 68 48 68q32 0 70 9q53 14 53 36q0 107 -98 193q-4 5 -1 65q3 62 9 62q19 0 70 -84
q59 -97 59 -183q0 -38 -19.5 -90t-19.5 -49q0 22 20.5 -22.5t20.5 -61.5zM592 -363q-28 -55 -53 -96q-48 21 -101 66q6 14 53 94q42 -27 101 -64zM463 -14q0 28 -57 61q-28 16 -48 16t-20 -18q0 -21 46 -45q42 -23 66 -23q13 0 13 9z" />
    <glyph glyph-name="S2BehNoon" unicode="&#xfe91;&#xfee6;" horiz-adv-x="899" 
d="M479 473q-38 -76 -53 -96q-48 20 -100 65q16 33 53 95zM899 8q-28 -55 -53 -96q-48 21 -101 66q6 14 53 94q42 -27 101 -64zM812 320q0 -70 -35 -119q-39 -53 -107 -58q2 -37 2 -73q0 -162 -49 -236q-58 -87 -181 -132q-87 -32 -161 -32q-110 0 -155 86q-26 49 -26 113
q0 81 38 176q35 87 55 87q5 0 5 -4q0 47 -25.5 -54t-25.5 -137q0 -152 162 -152q117 0 227 63q91 52 91 78q0 111 -11 161q-13 61 -61 142q-1 3 -1 7q0 15 14.5 59.5t23.5 44.5q4 0 18 -31q22 -51 82 -51q79 0 99 70q8 29 12 30q9 0 9 -38z" />
    <glyph glyph-name="S2BehWawhamzaabove" unicode="&#xfe91;&#xfe86;" horiz-adv-x="602" 
d="M274 519q3 -1 3 -6q0 -11 -10 -41q-1 -5 -18 -15q-75 -28 -137 -78q-17 -14 -17 4q0 23 39 54q-43 23 -45 51q-2 33 34 73t69 42q26 2 28 -21q0 -26 -18 -55q-3 -6 -7 -4q-3 2 -3 8q-3 16 -35 10q-26 -5 -25 -22q2 -29 49 -33q11 -2 18 -2q13 0 19 6q48 29 56 29z
M602 -132q-28 -55 -53 -96q-48 21 -101 66q6 14 53 94q42 -27 101 -64zM526 197q0 -147 -133 -181q-37 -167 -144 -273q-82 -81 -136 -81q-108 0 -240 66q-23 11 -20 18q1 4 10 4t26 -4q54 -8 70 -8q118 0 242 78q58 37 110 102q47 59 47 84q0 8 -13 4q-29 -8 -69 -8
q-114 0 -114 88q0 47 32 108q36 70 78 70q26 0 69 -57q34 -44 50 -80q19 2 54 12q44 13 44 23q0 73 -86 155q-3 5 0 62q4 59 11 59q20 0 62 -71q50 -84 50 -170zM311 109q-33 47 -63 47q-27 0 -27 -27q0 -38 90 -20z" />
    <glyph glyph-name="S2BehYeh" unicode="&#xfe91;&#xfef2;" horiz-adv-x="918" 
d="M879 59q-3 -98 -174 -211q-205 -135 -359 -135q-246 0 -246 258q0 34 20.5 115t37.5 111q13 24 20 24q11 0 2 -26q-37 -110 -37 -172q0 -70 50 -127q63 -72 180 -72q150 0 407 164q49 31 49 41q0 33 -145 45q-135 11 -135 20q0 67 20 72q158 11 158 53q0 58 -62 138
q-41 53 -81 85q-9 7 -7 68q1 61 11 61q23 0 94 -102q80 -115 80 -199q0 -76 -35 -129q154 0 152 -82zM918 -284q-28 -55 -53 -96q-48 21 -101 66q6 14 53 94q42 -27 101 -64zM632 -402q-20 -46 -53 -98q-26 12 -84 53q-25 -54 -43 -76q-55 31 -101 66q10 21 54 94
q4 -2 84 -51q17 34 43 75q10 -7 100 -63z" />
    <glyph glyph-name="S2BehYehdotless" unicode="&#xfe91;&#xfef0;" horiz-adv-x="918" 
d="M879 59q-3 -98 -174 -211q-205 -135 -359 -135q-246 0 -246 258q0 34 20.5 115t37.5 111q13 24 20 24q11 0 2 -26q-37 -110 -37 -172q0 -70 50 -127q63 -72 180 -72q150 0 407 164q49 31 49 41q0 33 -145 45q-135 11 -135 20q0 67 20 72q158 11 158 53q0 58 -62 138
q-41 53 -81 85q-9 7 -7 68q1 61 11 61q23 0 94 -102q80 -115 80 -199q0 -76 -35 -129q154 0 152 -82zM918 -284q-28 -55 -53 -96q-48 21 -101 66q6 14 53 94q42 -27 101 -64z" />
    <glyph glyph-name="S2BehAlefmaksura" unicode="&#xfe91;&#xfc90;" horiz-adv-x="918" 
d="M331 323q-3 -19 -10 -19q-8 0 -8 21q0 126 -94 229q-2 3 -2 8q0 10 7 34q10 34 19 34t37 -49q74 -128 51 -258zM879 59q-3 -98 -174 -211q-205 -135 -359 -135q-246 0 -246 258q0 34 20.5 115t37.5 111q13 24 20 24q11 0 2 -26q-37 -110 -37 -172q0 -70 50 -127
q63 -72 180 -72q150 0 407 164q49 31 49 41q0 33 -145 45q-135 11 -135 20q0 67 20 72q158 11 158 53q0 58 -62 138q-41 53 -81 85q-9 7 -7 68q1 61 11 61q23 0 94 -102q80 -115 80 -199q0 -76 -35 -129q154 0 152 -82zM918 -284q-28 -55 -53 -96q-48 21 -101 66q6 14 53 94
q42 -27 101 -64z" />
    <glyph glyph-name="S2BehYehbarree" unicode="&#xfe91;&#xfbaf;" horiz-adv-x="1944" 
d="M1923 55q3 -1 3 -3q0 -16 -58 -103q-571 14 -1362 -15q-82 -3 -147 -3q-259 0 -259 98q0 40 35 104.5t68 87.5q10 7 215 129q41 24 41 43q0 43 -67 130q-61 79 -81 85q-7 2 -6 59q0 56 8 56q33 0 97 -91q75 -107 75 -214q0 -33 -19 -80q-21 -51 -46 -68
q-31 -22 -187 -108q-71 -39 -71 -64q0 -39 196 -51q202 -12 349 -6q751 32 1216 14zM690 272q-28 -55 -53 -96q-48 21 -101 66q6 14 53 94q42 -27 101 -64z" />
    <glyph glyph-name="S2TehBeh" unicode="&#xfe97;&#xfe90;" horiz-adv-x="1290" 
d="M1290 525q-20 -46 -53 -98q-26 12 -84 53q-25 -54 -43 -76q-55 31 -101 66q10 21 54 94q4 -2 84 -51q17 34 43 75q10 -7 100 -63zM1223 162q0 -52 -19 -96q-26 -58 -71 -58q-29 0 -75 24q-39 20 -54 36q-6 -9 -25 -27q-56 -53 -249 -81q-142 -21 -271 -21q-201 0 -294 81
q-65 56 -65 132q0 32 21 98q24 71 41 63q2 -1 2 -5q0 -8 -8.5 -34.5t-8.5 -40.5q0 -68 80 -120q99 -64 283 -64q138 0 284 27q82 15 125 28q87 27 107 64q12 21 14 22q12 0 12 -15q0 -16 -14 -50q28 -18 87 -24q55 -6 57 1q2 11 -8 44l-11 32q0 90 39 90q8 0 15 -47
q6 -39 6 -59zM628 -292q-28 -55 -53 -96q-48 21 -101 66q6 14 53 94q42 -27 101 -64z" />
    <glyph glyph-name="S2TehTeh" unicode="&#xfe97;&#xfe96;" horiz-adv-x="1273" 
d="M1273 498q-20 -46 -53 -98q-26 12 -84 53q-25 -54 -43 -76q-55 31 -101 66q10 21 54 94q4 -2 84 -51q17 34 43 75q10 -7 100 -63zM732 465q-20 -46 -53 -98q-26 12 -84 53q-25 -54 -43 -76q-55 31 -101 66q10 21 54 94q4 -2 84 -51q17 34 43 75q10 -7 100 -63zM1223 162
q0 -52 -19 -96q-26 -58 -71 -58q-29 0 -75 24q-39 20 -54 36q-6 -9 -25 -27q-56 -53 -249 -81q-142 -21 -271 -21q-201 0 -294 81q-65 56 -65 132q0 32 21 98q24 71 41 63q2 -1 2 -5q0 -8 -8.5 -34.5t-8.5 -40.5q0 -68 80 -120q99 -64 283 -64q138 0 284 27q82 15 125 28
q87 27 107 64q12 21 14 22q12 0 12 -15q0 -16 -14 -50q28 -18 87 -24q55 -6 57 1q2 11 -8 44l-11 32q0 90 39 90q8 0 15 -47q6 -39 6 -59z" />
    <glyph glyph-name="S2TehTheh" unicode="&#xfe97;&#xfe9a;" horiz-adv-x="1286" 
d="M1286 507q-20 -46 -53 -98q-26 12 -84 53q-25 -54 -43 -76q-55 31 -101 66q10 21 54 94q4 -2 84 -51q17 34 43 75q10 -7 100 -63zM610 583q-19 -56 -54 -96q-42 26 -100 63q13 29 53 96q42 -26 101 -63zM716 437q-25 -57 -53 -96q-20 7 -84 51q-22 -47 -43 -73
q-29 12 -101 63q13 29 54 96q28 -18 84 -53q17 35 43 76q10 -7 100 -64zM1223 162q0 -52 -19 -96q-26 -58 -71 -58q-29 0 -75 24q-39 20 -54 36q-6 -9 -25 -27q-56 -53 -249 -81q-142 -21 -271 -21q-201 0 -294 81q-65 56 -65 132q0 32 21 98q24 71 41 63q2 -1 2 -5
q0 -8 -8.5 -34.5t-8.5 -40.5q0 -68 80 -120q99 -64 283 -64q138 0 284 27q82 15 125 28q87 27 107 64q12 21 14 22q12 0 12 -15q0 -16 -14 -50q28 -18 87 -24q55 -6 57 1q2 11 -8 44l-11 32q0 90 39 90q8 0 15 -47q6 -39 6 -59z" />
    <glyph glyph-name="S2TehReh" unicode="&#xfe97;&#xfeae;" horiz-adv-x="557" 
d="M557 493q-20 -46 -53 -98q-26 12 -84 53q-25 -54 -43 -76q-55 31 -101 66q10 21 54 94q4 -2 84 -51q17 34 43 75q10 -7 100 -63zM451 169q-4 -40 -13 -65q-29 -85 -127 -106q0 -95 -89 -222q-95 -136 -185 -136q-58 0 -159 36q-95 34 -95 45q0 7 33 3q62 -8 110 -7
q154 4 295 155q58 62 58 81q0 28 -43 72q-6 6 -3 16q18 59 33 92q1 2 1 5q1 1 2 0q2 -2 5 -7q21 -20 52 -20q50 0 75 28q14 15 26 52q9 28 17 28q12 0 7 -50z" />
    <glyph glyph-name="S2TehZain" unicode="&#xfe97;&#xfeb0;" horiz-adv-x="540" 
d="M540 534q-20 -46 -53 -98q-26 12 -84 53q-25 -54 -43 -76q-55 31 -101 66q10 21 54 94q4 -2 84 -51q17 34 43 75q10 -7 100 -63zM247 314q-28 -55 -53 -96q-48 21 -101 66q6 14 53 94q42 -27 101 -64zM451 169q-4 -40 -13 -65q-29 -85 -127 -106q0 -95 -89 -222
q-95 -136 -185 -136q-58 0 -159 36q-95 34 -95 45q0 7 33 3q62 -8 110 -7q154 4 295 155q58 62 58 81q0 28 -43 72q-6 6 -3 16q18 59 33 92q1 2 1 5q1 1 2 0q2 -2 5 -7q21 -20 52 -20q50 0 75 28q14 15 26 52q9 28 17 28q12 0 7 -50z" />
    <glyph glyph-name="S2TehAin" unicode="&#xfe97;&#xfeca;" horiz-adv-x="684" 
d="M636 689q-20 -46 -53 -98q-26 12 -84 53q-25 -54 -43 -76q-55 31 -101 66q10 21 54 94q4 -2 84 -51q17 34 43 75q10 -7 100 -63zM991 -662q-11 -7 -80 -30q-57 -20 -172 -58q-70 -22 -153 -22q-486 0 -486 379q0 355 226 545q-37 39 -69 39q-13 0 -30 -7q-12 -7 -16 -6
t-4 11q0 58 29 92q16 19 64 35q44 14 73 14q50 0 88 -21q45 -26 45 -73t-31 -82q46 -29 98 -29q60 0 60 43q0 47 -40 113q-26 43 -46 63q-14 14 24 109q16 0 52 -76q41 -86 41 -162q0 -59 -21 -111q-27 -67 -78 -67q-66 0 -168 67q-120 -47 -193 -177q-69 -121 -69 -257
q0 -336 510 -336q42 0 168 5q99 4 167 3q11 0 11 -4z" />
    <glyph glyph-name="S2TehFeh" unicode="&#xfe97;&#xfed2;" horiz-adv-x="1431" 
d="M1431 631q-20 -46 -53 -98q-26 12 -84 53q-25 -54 -43 -76q-55 31 -101 66q10 21 54 94q4 -2 84 -51q17 34 43 75q10 -7 100 -63zM971 594q-28 -55 -53 -96q-48 21 -101 66q6 14 53 94q42 -27 101 -64zM1395 178q0 -54 -25 -106q-31 -64 -86 -64q-82 0 -223 62
q-269 -131 -576 -131q-239 0 -334 95q-51 51 -51 118q0 54 26 112q22 49 32 49q6 0 6 -5t-9.5 -34t-9.5 -47q0 -49 41 -90q89 -90 320 -90q242 0 473 82q-7 116 58 211q53 78 89 78q32 0 51 -53q13 -40 13 -80q0 -78 -43 -158q60 -21 123 -21q101 0 98 29q-6 54 -37 95
q-6 7 -33 38q-6 24 17 107q13 0 42 -48q37 -63 38 -149zM1145 213q4 21 -15.5 59t-37.5 39t-48 -39t-30 -61q0 -9 19 -30t28 -21q11 0 46.5 21.5t37.5 31.5z" />
    <glyph glyph-name="S2TehQaf" unicode="&#xfe97;&#xfed6;" horiz-adv-x="872" 
d="M840 754q-20 -46 -53 -98q-26 12 -84 53q-25 -54 -43 -76q-55 31 -101 66q10 21 54 94q4 -2 84 -51q17 34 43 75q10 -7 100 -63zM539 510q-17 -49 -54 -98q-37 22 -82 53q-31 -59 -43 -76q-71 41 -100 66q6 17 53 96q33 -21 82 -53q18 29 43 75q68 -43 101 -63zM854 289
q0 -180 -113 -213q2 -79 -18 -150q-31 -112 -169 -199q-131 -82 -253 -83q-98 -1 -152 64q-50 61 -49 163q1 63 26 142q23 71 36 71q4 -1 4 -6q0 -23 -12.5 -72t-12.5 -74q-1 -85 50.5 -132.5t136.5 -45.5q102 3 215 65q95 52 155 122q8 10 7 50q-2 42 -15 66q-58 -8 -94 -8
q-110 0 -111 80q0 48 33 114q37 76 80 76q63 0 127 -143q100 20 100 49q0 58 -65 148l-31 43q0 39 19 106q12 0 54 -67q52 -83 52 -166zM639 164q-36 45 -64 45q-10 0 -22 -7q-15 -9 -12 -18q0 -25 46 -25q21 0 52 5z" />
    <glyph glyph-name="S2TehMeem" unicode="&#xfe97;&#xfee2;" horiz-adv-x="539" 
d="M498 727q-20 -46 -53 -98q-26 12 -84 53q-25 -54 -43 -76q-55 31 -101 66q10 21 54 94q4 -2 84 -51q17 34 43 75q10 -7 100 -63zM518 6q0 -33 -20 -78q-24 -53 -52 -53q-67 0 -120 35q-45 -83 -119 -135q-52 -37 -225 -70q-70 -13 -70 -4q0 8 29 23l194 97
q143 76 164 113q-18 19 -18 41q0 26 25 88q28 68 48 68q32 0 70 9q53 14 53 36q0 107 -98 193q-4 5 -1 65q3 62 9 62q19 0 70 -84q59 -97 59 -183q0 -38 -19.5 -90t-19.5 -49q0 22 20.5 -22.5t20.5 -61.5zM463 -14q0 28 -57 61q-28 16 -48 16t-20 -18q0 -21 46 -45
q42 -23 66 -23q13 0 13 9z" />
    <glyph glyph-name="S2TehNoon" unicode="&#xfe97;&#xfee6;" horiz-adv-x="866" 
d="M866 585q-20 -46 -53 -98q-26 12 -84 53q-25 -54 -43 -76q-55 31 -101 66q10 21 54 94q4 -2 84 -51q17 34 43 75q10 -7 100 -63zM479 473q-38 -76 -53 -96q-48 20 -100 65q16 33 53 95zM812 320q0 -70 -35 -119q-39 -53 -107 -58q2 -37 2 -73q0 -162 -49 -236
q-58 -87 -181 -132q-87 -32 -161 -32q-110 0 -155 86q-26 49 -26 113q0 81 38 176q35 87 55 87q5 0 5 -4q0 47 -25.5 -54t-25.5 -137q0 -152 162 -152q117 0 227 63q91 52 91 78q0 111 -11 161q-13 61 -61 142q-1 3 -1 7q0 15 14.5 59.5t23.5 44.5q4 0 18 -31q22 -51 82 -51
q79 0 99 70q8 29 12 30q9 0 9 -38z" />
    <glyph glyph-name="S2TehWawhamzaabove" unicode="&#xfe97;&#xfe86;" horiz-adv-x="558" 
d="M558 675q-20 -46 -53 -98q-26 12 -84 53q-25 -54 -43 -76q-55 31 -101 66q10 21 54 94q4 -2 84 -51q17 34 43 75q10 -7 100 -63zM247 519q3 -1 3 -6q0 -11 -10 -41q-1 -5 -18 -15q-75 -28 -137 -78q-17 -14 -17 4q0 23 39 54q-43 23 -45 51q-2 33 34 73t69 42
q26 2 28 -21q0 -26 -18 -55q-3 -6 -7 -4q-3 2 -3 8q-3 16 -35 10q-26 -5 -25 -22q2 -29 49 -33q11 -2 18 -2q13 0 19 6q48 29 56 29zM526 197q0 -147 -133 -181q-37 -167 -144 -273q-82 -81 -136 -81q-108 0 -240 66q-23 11 -20 18q1 4 10 4t26 -4q54 -8 70 -8q118 0 242 78
q58 37 110 102q47 59 47 84q0 8 -13 4q-29 -8 -69 -8q-114 0 -114 88q0 47 32 108q36 70 78 70q26 0 69 -57q34 -44 50 -80q19 2 54 12q44 13 44 23q0 73 -86 155q-3 5 0 62q4 59 11 59q20 0 62 -71q50 -84 50 -170zM311 109q-33 47 -63 47q-27 0 -27 -27q0 -38 90 -20z" />
    <glyph glyph-name="S2TehYeh" unicode="&#xfe97;&#xfef2;" horiz-adv-x="899" 
d="M684 800q-20 -46 -53 -98q-26 12 -84 53q-25 -54 -43 -76q-55 31 -101 66q10 21 54 94q4 -2 84 -51q17 34 43 75q10 -7 100 -63zM879 59q-3 -98 -174 -211q-205 -135 -359 -135q-246 0 -246 258q0 34 20.5 115t37.5 111q13 24 20 24q11 0 2 -26q-37 -110 -37 -172
q0 -70 50 -127q63 -72 180 -72q150 0 407 164q49 31 49 41q0 33 -145 45q-135 11 -135 20q0 67 20 72q158 11 158 53q0 58 -62 138q-41 53 -81 85q-9 7 -7 68q1 61 11 61q23 0 94 -102q80 -115 80 -199q0 -76 -35 -129q154 0 152 -82zM632 -402q-20 -46 -53 -98
q-26 12 -84 53q-25 -54 -43 -76q-55 31 -101 66q10 21 54 94q4 -2 84 -51q17 34 43 75q10 -7 100 -63z" />
    <glyph glyph-name="S2TehYehdotless" unicode="&#xfe97;&#xfef0;" horiz-adv-x="899" 
d="M684 816q-20 -46 -53 -98q-26 12 -84 53q-25 -54 -43 -76q-55 31 -101 66q10 21 54 94q4 -2 84 -51q17 34 43 75q10 -7 100 -63zM879 59q-3 -98 -174 -211q-205 -135 -359 -135q-246 0 -246 258q0 34 20.5 115t37.5 111q13 24 20 24q11 0 2 -26q-37 -110 -37 -172
q0 -70 50 -127q63 -72 180 -72q150 0 407 164q49 31 49 41q0 33 -145 45q-135 11 -135 20q0 67 20 72q158 11 158 53q0 58 -62 138q-41 53 -81 85q-9 7 -7 68q1 61 11 61q23 0 94 -102q80 -115 80 -199q0 -76 -35 -129q154 0 152 -82z" />
    <glyph glyph-name="S2TehAlefmaksura" unicode="&#xfe97;&#xfc90;" horiz-adv-x="899" 
d="M684 816q-20 -46 -53 -98q-26 12 -84 53q-25 -54 -43 -76q-55 31 -101 66q10 21 54 94q4 -2 84 -51q17 34 43 75q10 -7 100 -63zM281 380q-3 -19 -10 -19q-8 0 -8 21q0 126 -94 229q-2 3 -2 8q0 10 7 34q10 34 19 34t37 -49q74 -128 51 -258zM879 59q-3 -98 -174 -211
q-205 -135 -359 -135q-246 0 -246 258q0 34 20.5 115t37.5 111q13 24 20 24q11 0 2 -26q-37 -110 -37 -172q0 -70 50 -127q63 -72 180 -72q150 0 407 164q49 31 49 41q0 33 -145 45q-135 11 -135 20q0 67 20 72q158 11 158 53q0 58 -62 138q-41 53 -81 85q-9 7 -7 68
q1 61 11 61q23 0 94 -102q80 -115 80 -199q0 -76 -35 -129q154 0 152 -82z" />
    <glyph glyph-name="S2ThehBeh" unicode="&#xfe9b;&#xfe90;" horiz-adv-x="1287" 
d="M1181 671q-19 -56 -54 -96q-42 26 -100 63q13 29 53 96q42 -26 101 -63zM1287 525q-25 -57 -53 -96q-20 7 -84 51q-22 -47 -43 -73q-29 12 -101 63q13 29 54 96q28 -18 84 -53q17 35 43 76q10 -7 100 -64zM1223 162q0 -52 -19 -96q-26 -58 -71 -58q-29 0 -75 24
q-39 20 -54 36q-6 -9 -25 -27q-56 -53 -249 -81q-142 -21 -271 -21q-201 0 -294 81q-65 56 -65 132q0 32 21 98q24 71 41 63q2 -1 2 -5q0 -8 -8.5 -34.5t-8.5 -40.5q0 -68 80 -120q99 -64 283 -64q138 0 284 27q82 15 125 28q87 27 107 64q12 21 14 22q12 0 12 -15
q0 -16 -14 -50q28 -18 87 -24q55 -6 57 1q2 11 -8 44l-11 32q0 90 39 90q8 0 15 -47q6 -39 6 -59zM628 -292q-28 -55 -53 -96q-48 21 -101 66q6 14 53 94q42 -27 101 -64z" />
    <glyph glyph-name="S2ThehTeh" unicode="&#xfe9b;&#xfe96;" horiz-adv-x="1267" 
d="M1161 682q-19 -56 -54 -96q-42 26 -100 63q13 29 53 96q42 -26 101 -63zM1267 536q-25 -57 -53 -96q-20 7 -84 51q-22 -47 -43 -73q-29 12 -101 63q13 29 54 96q28 -18 84 -53q17 35 43 76q10 -7 100 -64zM749 428q-20 -46 -53 -98q-26 12 -84 53q-25 -54 -43 -76
q-55 31 -101 66q10 21 54 94q4 -2 84 -51q17 34 43 75q10 -7 100 -63zM1223 162q0 -52 -19 -96q-26 -58 -71 -58q-29 0 -75 24q-39 20 -54 36q-6 -9 -25 -27q-56 -53 -249 -81q-142 -21 -271 -21q-201 0 -294 81q-65 56 -65 132q0 32 21 98q24 71 41 63q2 -1 2 -5
q0 -8 -8.5 -34.5t-8.5 -40.5q0 -68 80 -120q99 -64 283 -64q138 0 284 27q82 15 125 28q87 27 107 64q12 21 14 22q12 0 12 -15q0 -16 -14 -50q28 -18 87 -24q55 -6 57 1q2 11 -8 44l-11 32q0 90 39 90q8 0 15 -47q6 -39 6 -59z" />
    <glyph glyph-name="S2ThehTheh" unicode="&#xfe9b;&#xfe9a;" horiz-adv-x="1271" 
d="M1165 652q-19 -56 -54 -96q-42 26 -100 63q13 29 53 96q42 -26 101 -63zM1271 506q-25 -57 -53 -96q-20 7 -84 51q-22 -47 -43 -73q-29 12 -101 63q13 29 54 96q28 -18 84 -53q17 35 43 76q10 -7 100 -64zM617 578q-19 -56 -54 -96q-42 26 -100 63q13 29 53 96
q42 -26 101 -63zM723 432q-25 -57 -53 -96q-20 7 -84 51q-22 -47 -43 -73q-29 12 -101 63q13 29 54 96q28 -18 84 -53q17 35 43 76q10 -7 100 -64zM1223 162q0 -52 -19 -96q-26 -58 -71 -58q-29 0 -75 24q-39 20 -54 36q-6 -9 -25 -27q-56 -53 -249 -81q-142 -21 -271 -21
q-201 0 -294 81q-65 56 -65 132q0 32 21 98q24 71 41 63q2 -1 2 -5q0 -8 -8.5 -34.5t-8.5 -40.5q0 -68 80 -120q99 -64 283 -64q138 0 284 27q82 15 125 28q87 27 107 64q12 21 14 22q12 0 12 -15q0 -16 -14 -50q28 -18 87 -24q55 -6 57 1q2 11 -8 44l-11 32q0 90 39 90
q8 0 15 -47q6 -39 6 -59z" />
    <glyph glyph-name="S2ThehReh" unicode="&#xfe9b;&#xfeae;" horiz-adv-x="568" 
d="M462 627q-19 -56 -54 -96q-42 26 -100 63q13 29 53 96q42 -26 101 -63zM568 481q-25 -57 -53 -96q-20 7 -84 51q-22 -47 -43 -73q-29 12 -101 63q13 29 54 96q28 -18 84 -53q17 35 43 76q10 -7 100 -64zM451 169q-4 -40 -13 -65q-29 -85 -127 -106q0 -95 -89 -222
q-95 -136 -185 -136q-58 0 -159 36q-95 34 -95 45q0 7 33 3q62 -8 110 -7q154 4 295 155q58 62 58 81q0 28 -43 72q-6 6 -3 16q18 59 33 92q1 2 1 5q1 1 2 0q2 -2 5 -7q21 -20 52 -20q50 0 75 28q14 15 26 52q9 28 17 28q12 0 7 -50z" />
    <glyph glyph-name="S2ThehQaf" unicode="&#xfe9b;&#xfed6;" horiz-adv-x="872" 
d="M738 907q-19 -56 -54 -96q-42 26 -100 63q13 29 53 96q42 -26 101 -63zM844 761q-25 -57 -53 -96q-20 7 -84 51q-22 -47 -43 -73q-29 12 -101 63q13 29 54 96q28 -18 84 -53q17 35 43 76q10 -7 100 -64zM539 510q-17 -49 -54 -98q-37 22 -82 53q-31 -59 -43 -76
q-71 41 -100 66q6 17 53 96q33 -21 82 -53q18 29 43 75q68 -43 101 -63zM854 289q0 -180 -113 -213q2 -79 -18 -150q-31 -112 -169 -199q-131 -82 -253 -83q-98 -1 -152 64q-50 61 -49 163q1 63 26 142q23 71 36 71q4 -1 4 -6q0 -23 -12.5 -72t-12.5 -74q-1 -85 50.5 -132.5
t136.5 -45.5q102 3 215 65q95 52 155 122q8 10 7 50q-2 42 -15 66q-58 -8 -94 -8q-110 0 -111 80q0 48 33 114q37 76 80 76q63 0 127 -143q100 20 100 49q0 58 -65 148l-31 43q0 39 19 106q12 0 54 -67q52 -83 52 -166zM639 164q-36 45 -64 45q-10 0 -22 -7q-15 -9 -12 -18
q0 -25 46 -25q21 0 52 5z" />
    <glyph glyph-name="S2ThehNoon" unicode="&#xfe9b;&#xfee6;" horiz-adv-x="831" 
d="M727 673q-19 -56 -54 -96q-42 26 -100 63q13 29 53 96q42 -26 101 -63zM833 527q-25 -57 -53 -96q-20 7 -84 51q-22 -47 -43 -73q-29 12 -101 63q13 29 54 96q28 -18 84 -53q17 35 43 76q10 -7 100 -64zM479 473q-38 -76 -53 -96q-48 20 -100 65q16 33 53 95zM812 320
q0 -70 -35 -119q-39 -53 -107 -58q2 -37 2 -73q0 -162 -49 -236q-58 -87 -181 -132q-87 -32 -161 -32q-110 0 -155 86q-26 49 -26 113q0 81 38 176q35 87 55 87q5 0 5 -4q0 47 -25.5 -54t-25.5 -137q0 -152 162 -152q117 0 227 63q91 52 91 78q0 111 -11 161q-13 61 -61 142
q-1 3 -1 7q0 15 14.5 59.5t23.5 44.5q4 0 18 -31q22 -51 82 -51q79 0 99 70q8 29 12 30q9 0 9 -38z" />
    <glyph glyph-name="S2ThehWawhamzaabove" unicode="&#xfe9b;&#xfe86;" horiz-adv-x="562" 
d="M456 843q-19 -56 -54 -96q-42 26 -100 63q13 29 53 96q42 -26 101 -63zM562 697q-25 -57 -53 -96q-20 7 -84 51q-22 -47 -43 -73q-29 12 -101 63q13 29 54 96q28 -18 84 -53q17 35 43 76q10 -7 100 -64zM243 527q3 -1 3 -6q0 -11 -10 -41q-1 -5 -18 -15q-75 -28 -137 -78
q-17 -14 -17 4q0 23 39 54q-43 23 -45 51q-2 33 34 73t69 42q26 2 28 -21q0 -26 -18 -55q-3 -6 -7 -4q-3 2 -3 8q-3 16 -35 10q-26 -5 -25 -22q2 -29 49 -33q11 -2 18 -2q13 0 19 6q48 29 56 29zM526 197q0 -147 -133 -181q-37 -167 -144 -273q-82 -81 -136 -81
q-108 0 -240 66q-23 11 -20 18q1 4 10 4t26 -4q54 -8 70 -8q118 0 242 78q58 37 110 102q47 59 47 84q0 8 -13 4q-29 -8 -69 -8q-114 0 -114 88q0 47 32 108q36 70 78 70q26 0 69 -57q34 -44 50 -80q19 2 54 12q44 13 44 23q0 73 -86 155q-3 5 0 62q4 59 11 59q20 0 62 -71
q50 -84 50 -170zM311 109q-33 47 -63 47q-27 0 -27 -27q0 -38 90 -20z" />
    <glyph glyph-name="S2ThehYeh" unicode="&#xfe9b;&#xfef2;" horiz-adv-x="899" 
d="M626 913q-19 -56 -54 -96q-42 26 -100 63q13 29 53 96q42 -26 101 -63zM732 767q-25 -57 -53 -96q-20 7 -84 51q-22 -47 -43 -73q-29 12 -101 63q13 29 54 96q28 -18 84 -53q17 35 43 76q10 -7 100 -64zM879 59q-3 -98 -174 -211q-205 -135 -359 -135q-246 0 -246 258
q0 34 20.5 115t37.5 111q13 24 20 24q11 0 2 -26q-37 -110 -37 -172q0 -70 50 -127q63 -72 180 -72q150 0 407 164q49 31 49 41q0 33 -145 45q-135 11 -135 20q0 67 20 72q158 11 158 53q0 58 -62 138q-41 53 -81 85q-9 7 -7 68q1 61 11 61q23 0 94 -102q80 -115 80 -199
q0 -76 -35 -129q154 0 152 -82zM632 -402q-20 -46 -53 -98q-26 12 -84 53q-25 -54 -43 -76q-55 31 -101 66q10 21 54 94q4 -2 84 -51q17 34 43 75q10 -7 100 -63z" />
    <glyph glyph-name="S2ThehYehdotless" unicode="&#xfe9b;&#xfef0;" horiz-adv-x="899" 
d="M626 913q-19 -56 -54 -96q-42 26 -100 63q13 29 53 96q42 -26 101 -63zM732 767q-25 -57 -53 -96q-20 7 -84 51q-22 -47 -43 -73q-29 12 -101 63q13 29 54 96q28 -18 84 -53q17 35 43 76q10 -7 100 -64zM879 59q-3 -98 -174 -211q-205 -135 -359 -135q-246 0 -246 258
q0 34 20.5 115t37.5 111q13 24 20 24q11 0 2 -26q-37 -110 -37 -172q0 -70 50 -127q63 -72 180 -72q150 0 407 164q49 31 49 41q0 33 -145 45q-135 11 -135 20q0 67 20 72q158 11 158 53q0 58 -62 138q-41 53 -81 85q-9 7 -7 68q1 61 11 61q23 0 94 -102q80 -115 80 -199
q0 -76 -35 -129q154 0 152 -82z" />
    <glyph glyph-name="S2ThehAlefmaksura" unicode="&#xfe9b;&#xfc90;" horiz-adv-x="899" 
d="M626 913q-19 -56 -54 -96q-42 26 -100 63q13 29 53 96q42 -26 101 -63zM732 767q-25 -57 -53 -96q-20 7 -84 51q-22 -47 -43 -73q-29 12 -101 63q13 29 54 96q28 -18 84 -53q17 35 43 76q10 -7 100 -64zM281 374q-3 -19 -10 -19q-8 0 -8 21q0 126 -94 229q-2 3 -2 8
q0 10 7 34q10 34 19 34t37 -49q74 -128 51 -258zM879 59q-3 -98 -174 -211q-205 -135 -359 -135q-246 0 -246 258q0 34 20.5 115t37.5 111q13 24 20 24q11 0 2 -26q-37 -110 -37 -172q0 -70 50 -127q63 -72 180 -72q150 0 407 164q49 31 49 41q0 33 -145 45q-135 11 -135 20
q0 67 20 72q158 11 158 53q0 58 -62 138q-41 53 -81 85q-9 7 -7 68q1 61 11 61q23 0 94 -102q80 -115 80 -199q0 -76 -35 -129q154 0 152 -82z" />
    <glyph glyph-name="S2NoonBeh" unicode="&#xfee7;&#xfe90;" horiz-adv-x="1243" 
d="M1229 482q-28 -55 -53 -96q-48 21 -101 66q6 14 53 94q42 -27 101 -64zM1223 162q0 -52 -19 -96q-26 -58 -71 -58q-29 0 -75 24q-39 20 -54 36q-6 -9 -25 -27q-56 -53 -249 -81q-142 -21 -271 -21q-201 0 -294 81q-65 56 -65 132q0 32 21 98q24 71 41 63q2 -1 2 -5
q0 -8 -8.5 -34.5t-8.5 -40.5q0 -68 80 -120q99 -64 283 -64q138 0 284 27q82 15 125 28q87 27 107 64q12 21 14 22q12 0 12 -15q0 -16 -14 -50q28 -18 87 -24q55 -6 57 1q2 11 -8 44l-11 32q0 90 39 90q8 0 15 -47q6 -39 6 -59zM628 -292q-28 -55 -53 -96q-48 21 -101 66
q6 14 53 94q42 -27 101 -64z" />
    <glyph glyph-name="S2NoonTeh" unicode="&#xfee7;&#xfe96;" horiz-adv-x="1243" 
d="M1216 516q-28 -55 -53 -96q-48 21 -101 66q6 14 53 94q42 -27 101 -64zM753 408q-20 -46 -53 -98q-26 12 -84 53q-25 -54 -43 -76q-55 31 -101 66q10 21 54 94q4 -2 84 -51q17 34 43 75q10 -7 100 -63zM1223 162q0 -52 -19 -96q-26 -58 -71 -58q-29 0 -75 24
q-39 20 -54 36q-6 -9 -25 -27q-56 -53 -249 -81q-142 -21 -271 -21q-201 0 -294 81q-65 56 -65 132q0 32 21 98q24 71 41 63q2 -1 2 -5q0 -8 -8.5 -34.5t-8.5 -40.5q0 -68 80 -120q99 -64 283 -64q138 0 284 27q82 15 125 28q87 27 107 64q12 21 14 22q12 0 12 -15
q0 -16 -14 -50q28 -18 87 -24q55 -6 57 1q2 11 -8 44l-11 32q0 90 39 90q8 0 15 -47q6 -39 6 -59z" />
    <glyph glyph-name="S2NoonTheh" unicode="&#xfee7;&#xfe9a;" horiz-adv-x="1243" 
d="M1237 494q-28 -55 -53 -96q-48 21 -101 66q6 14 53 94q42 -27 101 -64zM672 574q-19 -56 -54 -96q-42 26 -100 63q13 29 53 96q42 -26 101 -63zM778 428q-25 -57 -53 -96q-20 7 -84 51q-22 -47 -43 -73q-29 12 -101 63q13 29 54 96q28 -18 84 -53q17 35 43 76
q10 -7 100 -64zM1223 162q0 -52 -19 -96q-26 -58 -71 -58q-29 0 -75 24q-39 20 -54 36q-6 -9 -25 -27q-56 -53 -249 -81q-142 -21 -271 -21q-201 0 -294 81q-65 56 -65 132q0 32 21 98q24 71 41 63q2 -1 2 -5q0 -8 -8.5 -34.5t-8.5 -40.5q0 -68 80 -120q99 -64 283 -64
q138 0 284 27q82 15 125 28q87 27 107 64q12 21 14 22q12 0 12 -15q0 -16 -14 -50q28 -18 87 -24q55 -6 57 1q2 11 -8 44l-11 32q0 90 39 90q8 0 15 -47q6 -39 6 -59z" />
    <glyph glyph-name="S2NoonReh" unicode="&#xfee7;&#xfeae;" horiz-adv-x="510" 
d="M482 420q-28 -55 -53 -96q-48 21 -101 66q6 14 53 94q42 -27 101 -64zM451 169q-4 -40 -13 -65q-29 -85 -127 -106q0 -95 -89 -222q-95 -136 -185 -136q-58 0 -159 36q-95 34 -95 45q0 7 33 3q62 -8 110 -7q154 4 295 155q58 62 58 81q0 28 -43 72q-6 6 -3 16
q18 59 33 92q1 2 1 5q1 1 2 0q2 -2 5 -7q21 -20 52 -20q50 0 75 28q14 15 26 52q9 28 17 28q12 0 7 -50z" />
    <glyph glyph-name="S2NoonZain" unicode="&#xfee7;&#xfeb0;" horiz-adv-x="510" 
d="M518 452q-28 -55 -53 -96q-48 21 -101 66q6 14 53 94q42 -27 101 -64zM269 314q-28 -55 -53 -96q-48 21 -101 66q6 14 53 94q42 -27 101 -64zM451 169q-4 -40 -13 -65q-29 -85 -127 -106q0 -95 -89 -222q-95 -136 -185 -136q-58 0 -159 36q-95 34 -95 45q0 7 33 3
q62 -8 110 -7q154 4 295 155q58 62 58 81q0 28 -43 72q-6 6 -3 16q18 59 33 92q1 2 1 5q1 1 2 0q2 -2 5 -7q21 -20 52 -20q50 0 75 28q14 15 26 52q9 28 17 28q12 0 7 -50z" />
    <glyph glyph-name="S2NoonSad" unicode="&#xfee7;&#xfeba;" horiz-adv-x="1520" 
d="M1404 603q-28 -55 -53 -96q-48 21 -101 66q6 14 53 94q42 -27 101 -64zM1499 162q0 -67 -41 -105q-117 -108 -429 -108q-55 0 -99 6q-62 -19 -170 -19q-57 0 -88 7q-7 -155 -30 -219q-36 -99 -135 -156q-91 -53 -202 -53q-99 0 -152 61t-53 160q0 81 47 196q9 23 20 23
q4 -1 4 -6q0 -7 -3 -15q-31 -81 -27 -139q12 -164 203 -164q101 0 197 59q84 52 86 85q1 24 1 47q0 135 -50 223q-1 2 -1 6q0 13 11 54q15 53 20 53q6 -8 37 -62q15 -26 30 -33q9 -4 52 -8q223 250 342 250q36 0 90 -21q63 -24 64 -53q1 -46 -24.5 -102.5t-61.5 -85.5
q111 4 228 41q98 31 99 45q3 48 -69 145q-13 13 14 111q14 0 47 -59q43 -76 43 -164zM1149 145q-3 25 -67 42q-49 12 -85 12q-72 0 -221 -150q16 -3 36 -3q70 0 187 32q41 11 90 32q61 26 60 35z" />
    <glyph glyph-name="S2NoonDad" unicode="&#xfee7;&#xfebe;" horiz-adv-x="1520" 
d="M1399 598q-28 -55 -53 -96q-48 21 -101 66q6 14 53 94q42 -27 101 -64zM888 511q-28 -55 -53 -96q-48 21 -101 66q6 14 53 94q42 -27 101 -64zM1499 162q0 -67 -41 -105q-117 -108 -429 -108q-55 0 -99 6q-62 -19 -170 -19q-57 0 -88 7q-7 -155 -30 -219
q-36 -99 -135 -156q-91 -53 -202 -53q-99 0 -152 61t-53 160q0 81 47 196q9 23 20 23q4 -1 4 -6q0 -7 -3 -15q-31 -81 -27 -139q12 -164 203 -164q101 0 197 59q84 52 86 85q1 24 1 47q0 135 -50 223q-1 2 -1 6q0 13 11 54q15 53 20 53q6 -8 37 -62q15 -26 30 -33
q9 -4 52 -8q223 250 342 250q36 0 90 -21q63 -24 64 -53q1 -46 -24.5 -102.5t-61.5 -85.5q111 4 228 41q98 31 99 45q3 48 -69 145q-13 13 14 111q14 0 47 -59q43 -76 43 -164zM1149 145q-3 25 -67 42q-49 12 -85 12q-72 0 -221 -150q16 -3 36 -3q70 0 187 32q41 11 90 32
q61 26 60 35z" />
    <glyph glyph-name="S2NoonTah" unicode="&#xfee7;&#xfec2;" horiz-adv-x="1161" 
d="M1066 608q-28 -55 -53 -96q-48 21 -101 66q6 14 53 94q42 -27 101 -64zM1143 178q0 -129 -182 -172q-119 -28 -290 -28q-48 0 -91 4q-163 -48 -277 -48q-47 0 -118 44q-17 10 -68 45q-18 8 -17 14q3 2 19 2q148 -3 252 8l61 70q4 91 -39 360q-10 64 -47 291
q-14 14 -14 47q0 25 12 67q15 52 33 52q5 0 5 -5q-1 -4 -3 -9q-11 -42 24 -64l8 -5q19 -12 19 -22q-5 -10 -33 -75q61 -344 68 -455q6 -92 -4 -154q158 164 248 164q40 0 90 -17q63 -22 65 -54q2 -39 -35.5 -99.5t-72.5 -85.5q153 12 264 46q84 26 84 40q0 27 -19 64
q-13 25 -57 84q-10 13 16 114q14 0 51 -59q48 -76 48 -164zM801 164q7 8 -38 32q-50 27 -108 27q-92 0 -239 -172q85 9 203 38q147 37 182 75z" />
    <glyph glyph-name="S2NoonAin" unicode="&#xfee7;&#xfeca;" horiz-adv-x="684" 
d="M566 653q-28 -55 -53 -96q-48 21 -101 66q6 14 53 94q42 -27 101 -64zM991 -662q-11 -7 -80 -30q-57 -20 -172 -58q-70 -22 -153 -22q-486 0 -486 379q0 355 226 545q-37 39 -69 39q-13 0 -30 -7q-12 -7 -16 -6t-4 11q0 58 29 92q16 19 64 35q44 14 73 14q50 0 88 -21
q45 -26 45 -73t-31 -82q46 -29 98 -29q60 0 60 43q0 47 -40 113q-26 43 -46 63q-14 14 24 109q16 0 52 -76q41 -86 41 -162q0 -59 -21 -111q-27 -67 -78 -67q-66 0 -168 67q-120 -47 -193 -177q-69 -121 -69 -257q0 -336 510 -336q42 0 168 5q99 4 167 3q11 0 11 -4z" />
    <glyph glyph-name="S2NoonFeh" unicode="&#xfee7;&#xfed2;" horiz-adv-x="1415" 
d="M1383 613q-28 -55 -53 -96q-48 21 -101 66q6 14 53 94q42 -27 101 -64zM1010 613q-28 -55 -53 -96q-48 21 -101 66q6 14 53 94q42 -27 101 -64zM1395 178q0 -54 -25 -106q-31 -64 -86 -64q-82 0 -223 62q-269 -131 -576 -131q-239 0 -334 95q-51 51 -51 118q0 54 26 112
q22 49 32 49q6 0 6 -5t-9.5 -34t-9.5 -47q0 -49 41 -90q89 -90 320 -90q242 0 473 82q-7 116 58 211q53 78 89 78q32 0 51 -53q13 -40 13 -80q0 -78 -43 -158q60 -21 123 -21q101 0 98 29q-6 54 -37 95q-6 7 -33 38q-6 24 17 107q13 0 42 -48q37 -63 38 -149zM1145 213
q4 21 -15.5 59t-37.5 39t-48 -39t-30 -61q0 -9 19 -30t28 -21q11 0 46.5 21.5t37.5 31.5z" />
    <glyph glyph-name="S2NoonQaf" unicode="&#xfee7;&#xfed6;" horiz-adv-x="872" 
d="M779 753q-28 -55 -53 -96q-48 21 -101 66q6 14 53 94q42 -27 101 -64zM539 510q-17 -49 -54 -98q-37 22 -82 53q-31 -59 -43 -76q-71 41 -100 66q6 17 53 96q33 -21 82 -53q18 29 43 75q68 -43 101 -63zM854 289q0 -180 -113 -213q2 -79 -18 -150q-31 -112 -169 -199
q-131 -82 -253 -83q-98 -1 -152 64q-50 61 -49 163q1 63 26 142q23 71 36 71q4 -1 4 -6q0 -23 -12.5 -72t-12.5 -74q-1 -85 50.5 -132.5t136.5 -45.5q102 3 215 65q95 52 155 122q8 10 7 50q-2 42 -15 66q-58 -8 -94 -8q-110 0 -111 80q0 48 33 114q37 76 80 76
q63 0 127 -143q100 20 100 49q0 58 -65 148l-31 43q0 39 19 106q12 0 54 -67q52 -83 52 -166zM639 164q-36 45 -64 45q-10 0 -22 -7q-15 -9 -12 -18q0 -25 46 -25q21 0 52 5z" />
    <glyph glyph-name="S2NoonMeem" unicode="&#xfee7;&#xfee2;" horiz-adv-x="539" 
d="M401 692q-28 -55 -53 -96q-48 21 -101 66q6 14 53 94q42 -27 101 -64zM518 6q0 -33 -20 -78q-24 -53 -52 -53q-67 0 -120 35q-45 -83 -119 -135q-52 -37 -225 -70q-70 -13 -70 -4q0 8 29 23l194 97q143 76 164 113q-18 19 -18 41q0 26 25 88q28 68 48 68q32 0 70 9
q53 14 53 36q0 107 -98 193q-4 5 -1 65q3 62 9 62q19 0 70 -84q59 -97 59 -183q0 -38 -19.5 -90t-19.5 -49q0 22 20.5 -22.5t20.5 -61.5zM463 -14q0 28 -57 61q-28 16 -48 16t-20 -18q0 -21 46 -45q42 -23 66 -23q13 0 13 9z" />
    <glyph glyph-name="S2NoonNoon" unicode="&#xfee7;&#xfee6;" horiz-adv-x="831" 
d="M791 613q-28 -55 -53 -96q-48 21 -101 66q6 14 53 94q42 -27 101 -64zM479 473q-38 -76 -53 -96q-48 20 -100 65q16 33 53 95zM812 320q0 -70 -35 -119q-39 -53 -107 -58q2 -37 2 -73q0 -162 -49 -236q-58 -87 -181 -132q-87 -32 -161 -32q-110 0 -155 86q-26 49 -26 113
q0 81 38 176q35 87 55 87q5 0 5 -4q0 47 -25.5 -54t-25.5 -137q0 -152 162 -152q117 0 227 63q91 52 91 78q0 111 -11 161q-13 61 -61 142q-1 3 -1 7q0 15 14.5 59.5t23.5 44.5q4 0 18 -31q22 -51 82 -51q79 0 99 70q8 29 12 30q9 0 9 -38z" />
    <glyph glyph-name="S2NoonWawhamzaabove" unicode="&#xfee7;&#xfe86;" horiz-adv-x="547" 
d="M465 641q-28 -55 -53 -96q-48 21 -101 66q6 14 53 94q42 -27 101 -64zM243 516q3 -1 3 -6q0 -11 -10 -41q-1 -5 -18 -15q-75 -28 -137 -78q-17 -14 -17 4q0 23 39 54q-43 23 -45 51q-2 33 34 73t69 42q26 2 28 -21q0 -26 -18 -55q-3 -6 -7 -4q-3 2 -3 8q-3 16 -35 10
q-26 -5 -25 -22q2 -29 49 -33q11 -2 18 -2q13 0 19 6q48 29 56 29zM526 197q0 -147 -133 -181q-37 -167 -144 -273q-82 -81 -136 -81q-108 0 -240 66q-23 11 -20 18q1 4 10 4t26 -4q54 -8 70 -8q118 0 242 78q58 37 110 102q47 59 47 84q0 8 -13 4q-29 -8 -69 -8
q-114 0 -114 88q0 47 32 108q36 70 78 70q26 0 69 -57q34 -44 50 -80q19 2 54 12q44 13 44 23q0 73 -86 155q-3 5 0 62q4 59 11 59q20 0 62 -71q50 -84 50 -170zM311 109q-33 47 -63 47q-27 0 -27 -27q0 -38 90 -20z" />
    <glyph glyph-name="S2NoonYeh" unicode="&#xfee7;&#xfef2;" horiz-adv-x="899" 
d="M617 778q-28 -55 -53 -96q-48 21 -101 66q6 14 53 94q42 -27 101 -64zM879 59q-3 -98 -174 -211q-205 -135 -359 -135q-246 0 -246 258q0 34 20.5 115t37.5 111q13 24 20 24q11 0 2 -26q-37 -110 -37 -172q0 -70 50 -127q63 -72 180 -72q150 0 407 164q49 31 49 41
q0 33 -145 45q-135 11 -135 20q0 67 20 72q158 11 158 53q0 58 -62 138q-41 53 -81 85q-9 7 -7 68q1 61 11 61q23 0 94 -102q80 -115 80 -199q0 -76 -35 -129q154 0 152 -82zM632 -402q-20 -46 -53 -98q-26 12 -84 53q-25 -54 -43 -76q-55 31 -101 66q10 21 54 94
q4 -2 84 -51q17 34 43 75q10 -7 100 -63z" />
    <glyph glyph-name="S2NoonYehdotless" unicode="&#xfee7;&#xfef0;" horiz-adv-x="899" 
d="M612 797q-28 -55 -53 -96q-48 21 -101 66q6 14 53 94q42 -27 101 -64zM879 59q-3 -98 -174 -211q-205 -135 -359 -135q-246 0 -246 258q0 34 20.5 115t37.5 111q13 24 20 24q11 0 2 -26q-37 -110 -37 -172q0 -70 50 -127q63 -72 180 -72q150 0 407 164q49 31 49 41
q0 33 -145 45q-135 11 -135 20q0 67 20 72q158 11 158 53q0 58 -62 138q-41 53 -81 85q-9 7 -7 68q1 61 11 61q23 0 94 -102q80 -115 80 -199q0 -76 -35 -129q154 0 152 -82z" />
    <glyph glyph-name="S2NoonAlefmaksura" unicode="&#xfee7;&#xfc90;" horiz-adv-x="899" 
d="M612 797q-28 -55 -53 -96q-48 21 -101 66q6 14 53 94q42 -27 101 -64zM309 341q-3 -19 -10 -19q-8 0 -8 21q0 126 -94 229q-2 3 -2 8q0 10 7 34q10 34 19 34t37 -49q74 -128 51 -258zM879 59q-3 -98 -174 -211q-205 -135 -359 -135q-246 0 -246 258q0 34 20.5 115
t37.5 111q13 24 20 24q11 0 2 -26q-37 -110 -37 -172q0 -70 50 -127q63 -72 180 -72q150 0 407 164q49 31 49 41q0 33 -145 45q-135 11 -135 20q0 67 20 72q158 11 158 53q0 58 -62 138q-41 53 -81 85q-9 7 -7 68q1 61 11 61q23 0 94 -102q80 -115 80 -199q0 -76 -35 -129
q154 0 152 -82z" />
    <glyph glyph-name="S2YehBeh" unicode="&#xfef3;&#xfe90;" horiz-adv-x="1281" 
d="M1281 -198q-20 -46 -53 -98q-26 12 -84 53q-25 -54 -43 -76q-55 31 -101 66q10 21 54 94q4 -2 84 -51q17 34 43 75q10 -7 100 -63zM1223 162q0 -52 -19 -96q-26 -58 -71 -58q-29 0 -75 24q-39 20 -54 36q-6 -9 -25 -27q-56 -53 -249 -81q-142 -21 -271 -21
q-201 0 -294 81q-65 56 -65 132q0 32 21 98q24 71 41 63q2 -1 2 -5q0 -8 -8.5 -34.5t-8.5 -40.5q0 -68 80 -120q99 -64 283 -64q138 0 284 27q82 15 125 28q87 27 107 64q12 21 14 22q12 0 12 -15q0 -16 -14 -50q28 -18 87 -24q55 -6 57 1q2 11 -8 44l-11 32q0 90 39 90
q8 0 15 -47q6 -39 6 -59zM628 -292q-28 -55 -53 -96q-48 21 -101 66q6 14 53 94q42 -27 101 -64z" />
    <glyph glyph-name="S2YehTeh" unicode="&#xfef3;&#xfe96;" horiz-adv-x="1243" 
d="M716 419q-20 -46 -53 -98q-26 12 -84 53q-25 -54 -43 -76q-55 31 -101 66q10 21 54 94q4 -2 84 -51q17 34 43 75q10 -7 100 -63zM1243 -221q-20 -46 -53 -98q-26 12 -84 53q-25 -54 -43 -76q-55 31 -101 66q10 21 54 94q4 -2 84 -51q17 34 43 75q10 -7 100 -63zM1223 162
q0 -52 -19 -96q-26 -58 -71 -58q-29 0 -75 24q-39 20 -54 36q-6 -9 -25 -27q-56 -53 -249 -81q-142 -21 -271 -21q-201 0 -294 81q-65 56 -65 132q0 32 21 98q24 71 41 63q2 -1 2 -5q0 -8 -8.5 -34.5t-8.5 -40.5q0 -68 80 -120q99 -64 283 -64q138 0 284 27q82 15 125 28
q87 27 107 64q12 21 14 22q12 0 12 -15q0 -16 -14 -50q28 -18 87 -24q55 -6 57 1q2 11 -8 44l-11 32q0 90 39 90q8 0 15 -47q6 -39 6 -59z" />
    <glyph glyph-name="S2YehTheh" unicode="&#xfef3;&#xfe9a;" horiz-adv-x="1268" 
d="M625 601q-19 -56 -54 -96q-42 26 -100 63q13 29 53 96q42 -26 101 -63zM731 455q-25 -57 -53 -96q-20 7 -84 51q-22 -47 -43 -73q-29 12 -101 63q13 29 54 96q28 -18 84 -53q17 35 43 76q10 -7 100 -64zM1268 -209q-20 -46 -53 -98q-26 12 -84 53q-25 -54 -43 -76
q-55 31 -101 66q10 21 54 94q4 -2 84 -51q17 34 43 75q10 -7 100 -63zM1223 162q0 -52 -19 -96q-26 -58 -71 -58q-29 0 -75 24q-39 20 -54 36q-6 -9 -25 -27q-56 -53 -249 -81q-142 -21 -271 -21q-201 0 -294 81q-65 56 -65 132q0 32 21 98q24 71 41 63q2 -1 2 -5
q0 -8 -8.5 -34.5t-8.5 -40.5q0 -68 80 -120q99 -64 283 -64q138 0 284 27q82 15 125 28q87 27 107 64q12 21 14 22q12 0 12 -15q0 -16 -14 -50q28 -18 87 -24q55 -6 57 1q2 11 -8 44l-11 32q0 90 39 90q8 0 15 -47q6 -39 6 -59z" />
    <glyph glyph-name="S2YehReh" unicode="&#xfef3;&#xfeae;" horiz-adv-x="510" 
d="M451 169q-4 -40 -13 -65q-29 -85 -127 -106q0 -95 -89 -222q-95 -136 -185 -136q-58 0 -159 36q-95 34 -95 45q0 7 33 3q62 -8 110 -7q154 4 295 155q58 62 58 81q0 28 -43 72q-6 6 -3 16q18 59 33 92q1 2 1 5q1 1 2 0q2 -2 5 -7q21 -20 52 -20q50 0 75 28q14 15 26 52
q9 28 17 28q12 0 7 -50zM521 -347q-20 -46 -53 -98q-26 12 -84 53q-25 -54 -43 -76q-55 31 -101 66q10 21 54 94q4 -2 84 -51q17 34 43 75q10 -7 100 -63z" />
    <glyph glyph-name="S2YehZain" unicode="&#xfef3;&#xfeb0;" horiz-adv-x="510" 
d="M293 313q-28 -55 -53 -96q-48 21 -101 66q6 14 53 94q42 -27 101 -64zM451 169q-4 -40 -13 -65q-29 -85 -127 -106q0 -95 -89 -222q-95 -136 -185 -136q-58 0 -159 36q-95 34 -95 45q0 7 33 3q62 -8 110 -7q154 4 295 155q58 62 58 81q0 28 -43 72q-6 6 -3 16
q18 59 33 92q1 2 1 5q1 1 2 0q2 -2 5 -7q21 -20 52 -20q50 0 75 28q14 15 26 52q9 28 17 28q12 0 7 -50zM512 -359q-20 -46 -53 -98q-26 12 -84 53q-25 -54 -43 -76q-55 31 -101 66q10 21 54 94q4 -2 84 -51q17 34 43 75q10 -7 100 -63z" />
    <glyph glyph-name="S2YehSad" unicode="&#xfef3;&#xfeba;" horiz-adv-x="1520" 
d="M1430 -265q-20 -46 -53 -98q-26 12 -84 53q-25 -54 -43 -76q-55 31 -101 66q10 21 54 94q4 -2 84 -51q17 34 43 75q10 -7 100 -63zM1499 162q0 -67 -41 -105q-117 -108 -429 -108q-55 0 -99 6q-62 -19 -170 -19q-57 0 -88 7q-7 -155 -30 -219q-36 -99 -135 -156
q-91 -53 -202 -53q-99 0 -152 61t-53 160q0 81 47 196q9 23 20 23q4 -1 4 -6q0 -7 -3 -15q-31 -81 -27 -139q12 -164 203 -164q101 0 197 59q84 52 86 85q1 24 1 47q0 135 -50 223q-1 2 -1 6q0 13 11 54q15 53 20 53q6 -8 37 -62q15 -26 30 -33q9 -4 52 -8q223 250 342 250
q36 0 90 -21q63 -24 64 -53q1 -46 -24.5 -102.5t-61.5 -85.5q111 4 228 41q98 31 99 45q3 48 -69 145q-13 13 14 111q14 0 47 -59q43 -76 43 -164zM1149 145q-3 25 -67 42q-49 12 -85 12q-72 0 -221 -150q16 -3 36 -3q70 0 187 32q41 11 90 32q61 26 60 35z" />
    <glyph glyph-name="S2YehDad" unicode="&#xfef3;&#xfebe;" horiz-adv-x="1520" 
d="M918 487q-28 -55 -53 -96q-48 21 -101 66q6 14 53 94q42 -27 101 -64zM1478 -240q-20 -46 -53 -98q-26 12 -84 53q-25 -54 -43 -76q-55 31 -101 66q10 21 54 94q4 -2 84 -51q17 34 43 75q10 -7 100 -63zM1499 162q0 -67 -41 -105q-117 -108 -429 -108q-55 0 -99 6
q-62 -19 -170 -19q-57 0 -88 7q-7 -155 -30 -219q-36 -99 -135 -156q-91 -53 -202 -53q-99 0 -152 61t-53 160q0 81 47 196q9 23 20 23q4 -1 4 -6q0 -7 -3 -15q-31 -81 -27 -139q12 -164 203 -164q101 0 197 59q84 52 86 85q1 24 1 47q0 135 -50 223q-1 2 -1 6q0 13 11 54
q15 53 20 53q6 -8 37 -62q15 -26 30 -33q9 -4 52 -8q223 250 342 250q36 0 90 -21q63 -24 64 -53q1 -46 -24.5 -102.5t-61.5 -85.5q111 4 228 41q98 31 99 45q3 48 -69 145q-13 13 14 111q14 0 47 -59q43 -76 43 -164zM1149 145q-3 25 -67 42q-49 12 -85 12q-72 0 -221 -150
q16 -3 36 -3q70 0 187 32q41 11 90 32q61 26 60 35z" />
    <glyph glyph-name="S2YehTah" unicode="&#xfef3;&#xfec2;" horiz-adv-x="1161" 
d="M1143 178q0 -129 -182 -172q-119 -28 -290 -28q-48 0 -91 4q-163 -48 -277 -48q-47 0 -118 44q-17 10 -68 45q-18 8 -17 14q3 2 19 2q148 -3 252 8l61 70q4 91 -39 360q-10 64 -47 291q-14 14 -14 47q0 25 12 67q15 52 33 52q5 0 5 -5q-1 -4 -3 -9q-11 -42 24 -64l8 -5
q19 -12 19 -22q-5 -10 -33 -75q61 -344 68 -455q6 -92 -4 -154q158 164 248 164q40 0 90 -17q63 -22 65 -54q2 -39 -35.5 -99.5t-72.5 -85.5q153 12 264 46q84 26 84 40q0 27 -19 64q-13 25 -57 84q-10 13 16 114q14 0 51 -59q48 -76 48 -164zM1062 -187q-20 -46 -53 -98
q-26 12 -84 53q-25 -54 -43 -76q-55 31 -101 66q10 21 54 94q4 -2 84 -51q17 34 43 75q10 -7 100 -63zM801 164q7 8 -38 32q-50 27 -108 27q-92 0 -239 -172q85 9 203 38q147 37 182 75z" />
    <glyph glyph-name="S2YehAin" unicode="&#xfef3;&#xfeca;" horiz-adv-x="730" 
d="M730 -99q-20 -46 -53 -98q-26 12 -84 53q-25 -54 -43 -76q-55 31 -101 66q10 21 54 94q4 -2 84 -51q17 34 43 75q10 -7 100 -63zM991 -662q-11 -7 -80 -30q-57 -20 -172 -58q-70 -22 -153 -22q-486 0 -486 379q0 355 226 545q-37 39 -69 39q-13 0 -30 -7q-12 -7 -16 -6
t-4 11q0 58 29 92q16 19 64 35q44 14 73 14q50 0 88 -21q45 -26 45 -73t-31 -82q46 -29 98 -29q60 0 60 43q0 47 -40 113q-26 43 -46 63q-14 14 24 109q16 0 52 -76q41 -86 41 -162q0 -59 -21 -111q-27 -67 -78 -67q-66 0 -168 67q-120 -47 -193 -177q-69 -121 -69 -257
q0 -336 510 -336q42 0 168 5q99 4 167 3q11 0 11 -4z" />
    <glyph glyph-name="S2YehGhain" unicode="&#xfef3;&#xfece;" horiz-adv-x="730" 
d="M407 585q-28 -55 -53 -96q-48 21 -101 66q6 14 53 94q42 -27 101 -64zM730 -99q-20 -46 -53 -98q-26 12 -84 53q-25 -54 -43 -76q-55 31 -101 66q10 21 54 94q4 -2 84 -51q17 34 43 75q10 -7 100 -63zM991 -662q-11 -7 -80 -30q-57 -20 -172 -58q-70 -22 -153 -22
q-486 0 -486 379q0 355 226 545q-37 39 -69 39q-13 0 -30 -7q-12 -7 -16 -6t-4 11q0 58 29 92q16 19 64 35q44 14 73 14q50 0 88 -21q45 -26 45 -73t-31 -82q46 -29 98 -29q60 0 60 43q0 47 -40 113q-26 43 -46 63q-14 14 24 109q16 0 52 -76q41 -86 41 -162q0 -59 -21 -111
q-27 -67 -78 -67q-66 0 -168 67q-120 -47 -193 -177q-69 -121 -69 -257q0 -336 510 -336q42 0 168 5q99 4 167 3q11 0 11 -4z" />
    <glyph glyph-name="S2YehFeh" unicode="&#xfef3;&#xfed2;" horiz-adv-x="1415" 
d="M1033 613q-28 -55 -53 -96q-48 21 -101 66q6 14 53 94q42 -27 101 -64zM1392 -220q-20 -46 -53 -98q-26 12 -84 53q-25 -54 -43 -76q-55 31 -101 66q10 21 54 94q4 -2 84 -51q17 34 43 75q10 -7 100 -63zM1395 178q0 -54 -25 -106q-31 -64 -86 -64q-82 0 -223 62
q-269 -131 -576 -131q-239 0 -334 95q-51 51 -51 118q0 54 26 112q22 49 32 49q6 0 6 -5t-9.5 -34t-9.5 -47q0 -49 41 -90q89 -90 320 -90q242 0 473 82q-7 116 58 211q53 78 89 78q32 0 51 -53q13 -40 13 -80q0 -78 -43 -158q60 -21 123 -21q101 0 98 29q-6 54 -37 95
q-6 7 -33 38q-6 24 17 107q13 0 42 -48q37 -63 38 -149zM1145 213q4 21 -15.5 59t-37.5 39t-48 -39t-30 -61q0 -9 19 -30t28 -21q11 0 46.5 21.5t37.5 31.5z" />
    <glyph glyph-name="S2YehQaf" unicode="&#xfef3;&#xfed6;" horiz-adv-x="962" 
d="M539 510q-17 -49 -54 -98q-37 22 -82 53q-31 -59 -43 -76q-71 41 -100 66q6 17 53 96q33 -21 82 -53q18 29 43 75q68 -43 101 -63zM854 289q0 -180 -113 -213q2 -79 -18 -150q-31 -112 -169 -199q-131 -82 -253 -83q-98 -1 -152 64q-50 61 -49 163q1 63 26 142
q23 71 36 71q4 -1 4 -6q0 -23 -12.5 -72t-12.5 -74q-1 -85 50.5 -132.5t136.5 -45.5q102 3 215 65q95 52 155 122q8 10 7 50q-2 42 -15 66q-58 -8 -94 -8q-110 0 -111 80q0 48 33 114q37 76 80 76q63 0 127 -143q100 20 100 49q0 58 -65 148l-31 43q0 39 19 106q12 0 54 -67
q52 -83 52 -166zM962 -275q-20 -46 -53 -98q-26 12 -84 53q-25 -54 -43 -76q-55 31 -101 66q10 21 54 94q4 -2 84 -51q17 34 43 75q10 -7 100 -63zM639 164q-36 45 -64 45q-10 0 -22 -7q-15 -9 -12 -18q0 -25 46 -25q21 0 52 5z" />
    <glyph glyph-name="S2YehMeem" unicode="&#xfef3;&#xfee2;" horiz-adv-x="623" 
d="M518 6q0 -33 -20 -78q-24 -53 -52 -53q-67 0 -120 35q-45 -83 -119 -135q-52 -37 -225 -70q-70 -13 -70 -4q0 8 29 23l194 97q143 76 164 113q-18 19 -18 41q0 26 25 88q28 68 48 68q32 0 70 9q53 14 53 36q0 107 -98 193q-4 5 -1 65q3 62 9 62q19 0 70 -84
q59 -97 59 -183q0 -38 -19.5 -90t-19.5 -49q0 22 20.5 -22.5t20.5 -61.5zM623 -368q-20 -46 -53 -98q-26 12 -84 53q-25 -54 -43 -76q-55 31 -101 66q10 21 54 94q4 -2 84 -51q17 34 43 75q10 -7 100 -63zM463 -14q0 28 -57 61q-28 16 -48 16t-20 -18q0 -21 46 -45
q42 -23 66 -23q13 0 13 9z" />
    <glyph glyph-name="S2YehNoon" unicode="&#xfef3;&#xfee6;" horiz-adv-x="918" 
d="M479 473q-38 -76 -53 -96q-48 20 -100 65q16 33 53 95zM812 320q0 -70 -35 -119q-39 -53 -107 -58q2 -37 2 -73q0 -162 -49 -236q-58 -87 -181 -132q-87 -32 -161 -32q-110 0 -155 86q-26 49 -26 113q0 81 38 176q35 87 55 87q5 0 5 -4q0 47 -25.5 -54t-25.5 -137
q0 -152 162 -152q117 0 227 63q91 52 91 78q0 111 -11 161q-13 61 -61 142q-1 3 -1 7q0 15 14.5 59.5t23.5 44.5q4 0 18 -31q22 -51 82 -51q79 0 99 70q8 29 12 30q9 0 9 -38zM918 -317q-20 -46 -53 -98q-26 12 -84 53q-25 -54 -43 -76q-55 31 -101 66q10 21 54 94
q4 -2 84 -51q17 34 43 75q10 -7 100 -63z" />
    <glyph glyph-name="S2YehWawhamzaabove" unicode="&#xfef3;&#xfe86;" horiz-adv-x="618" 
d="M243 527q3 -1 3 -6q0 -11 -10 -41q-1 -5 -18 -15q-75 -28 -137 -78q-17 -14 -17 4q0 23 39 54q-43 23 -45 51q-2 33 34 73t69 42q26 2 28 -21q0 -26 -18 -55q-3 -6 -7 -4q-3 2 -3 8q-3 16 -35 10q-26 -5 -25 -22q2 -29 49 -33q11 -2 18 -2q13 0 19 6q48 29 56 29z
M526 197q0 -147 -133 -181q-37 -167 -144 -273q-82 -81 -136 -81q-108 0 -240 66q-23 11 -20 18q1 4 10 4t26 -4q54 -8 70 -8q118 0 242 78q58 37 110 102q47 59 47 84q0 8 -13 4q-29 -8 -69 -8q-114 0 -114 88q0 47 32 108q36 70 78 70q26 0 69 -57q34 -44 50 -80
q19 2 54 12q44 13 44 23q0 73 -86 155q-3 5 0 62q4 59 11 59q20 0 62 -71q50 -84 50 -170zM618 -275q-20 -46 -53 -98q-26 12 -84 53q-25 -54 -43 -76q-55 31 -101 66q10 21 54 94q4 -2 84 -51q17 34 43 75q10 -7 100 -63zM311 109q-33 47 -63 47q-27 0 -27 -27
q0 -38 90 -20z" />
    <glyph glyph-name="S2YehYeh" unicode="&#xfef3;&#xfef2;" horiz-adv-x="962" 
d="M879 59q-3 -98 -174 -211q-205 -135 -359 -135q-246 0 -246 258q0 34 20.5 115t37.5 111q13 24 20 24q11 0 2 -26q-37 -110 -37 -172q0 -70 50 -127q63 -72 180 -72q150 0 407 164q49 31 49 41q0 33 -145 45q-135 11 -135 20q0 67 20 72q158 11 158 53q0 58 -62 138
q-41 53 -81 85q-9 7 -7 68q1 61 11 61q23 0 94 -102q80 -115 80 -199q0 -76 -35 -129q154 0 152 -82zM962 -285q-20 -46 -53 -98q-26 12 -84 53q-25 -54 -43 -76q-55 31 -101 66q10 21 54 94q4 -2 84 -51q17 34 43 75q10 -7 100 -63zM576 -458q-20 -46 -53 -98
q-26 12 -84 53q-25 -54 -43 -76q-55 31 -101 66q10 21 54 94q4 -2 84 -51q17 34 43 75q10 -7 100 -63z" />
    <glyph glyph-name="S2YehYehdotless" unicode="&#xfef3;&#xfef0;" horiz-adv-x="962" 
d="M879 59q-3 -98 -174 -211q-205 -135 -359 -135q-246 0 -246 258q0 34 20.5 115t37.5 111q13 24 20 24q11 0 2 -26q-37 -110 -37 -172q0 -70 50 -127q63 -72 180 -72q150 0 407 164q49 31 49 41q0 33 -145 45q-135 11 -135 20q0 67 20 72q158 11 158 53q0 58 -62 138
q-41 53 -81 85q-9 7 -7 68q1 61 11 61q23 0 94 -102q80 -115 80 -199q0 -76 -35 -129q154 0 152 -82zM962 -285q-20 -46 -53 -98q-26 12 -84 53q-25 -54 -43 -76q-55 31 -101 66q10 21 54 94q4 -2 84 -51q17 34 43 75q10 -7 100 -63z" />
    <glyph glyph-name="S2YehAlefmaksura" unicode="&#xfef3;&#xfc90;" horiz-adv-x="962" 
d="M309 347q-3 -19 -10 -19q-8 0 -8 21q0 126 -94 229q-2 3 -2 8q0 10 7 34q10 34 19 34t37 -49q74 -128 51 -258zM879 59q-3 -98 -174 -211q-205 -135 -359 -135q-246 0 -246 258q0 34 20.5 115t37.5 111q13 24 20 24q11 0 2 -26q-37 -110 -37 -172q0 -70 50 -127
q63 -72 180 -72q150 0 407 164q49 31 49 41q0 33 -145 45q-135 11 -135 20q0 67 20 72q158 11 158 53q0 58 -62 138q-41 53 -81 85q-9 7 -7 68q1 61 11 61q23 0 94 -102q80 -115 80 -199q0 -76 -35 -129q154 0 152 -82zM962 -285q-20 -46 -53 -98q-26 12 -84 53
q-25 -54 -43 -76q-55 31 -101 66q10 21 54 94q4 -2 84 -51q17 34 43 75q10 -7 100 -63z" />
    <glyph glyph-name="S2JeemBeh" unicode="&#xfe9f;&#xfe90;" horiz-adv-x="1794" 
d="M1480 -138q-28 -55 -53 -96q-48 21 -101 66q6 14 53 94q42 -27 101 -64zM1774 248q0 -13 -22 -56.5t-30 -41.5q-53 8 -90 8q-96 0 -233 -64q-56 -27 -168 -79q-78 -35 -121 -35q-74 0 -125 92q-14 -27 -26 -39q-55 -55 -277 -103q-148 -32 -260 -32q-99 0 -187 33
q-136 51 -135 163q1 104 56 162q13 13 16 14q6 0 -2 -20q-18 -45 -18 -86q0 -154 337 -154q112 0 252 28q159 32 230 79q13 9 28 37q7 13 12 14q5 0 7 -18q8 -72 102 -74q69 -2 285 106q-189 70 -299 51q-4 -1 -7 -1q-7 0 -7 6q0 26 30 63q39 47 95 47q30 0 108 -29
q99 -37 154 -49q112 -25 276 -20q18 0 19 -2zM641 -288q-28 -55 -53 -96q-48 21 -101 66q6 14 53 94q42 -27 101 -64z" />
    <glyph glyph-name="S2JeemTeh" unicode="&#xfe9f;&#xfe96;" horiz-adv-x="1794" 
d="M1448 -132q-28 -55 -53 -96q-48 21 -101 66q6 14 53 94q42 -27 101 -64zM1774 248q0 -13 -22 -56.5t-30 -41.5q-53 8 -90 8q-96 0 -233 -64q-56 -27 -168 -79q-78 -35 -121 -35q-74 0 -125 92q-14 -27 -26 -39q-55 -55 -277 -103q-148 -32 -260 -32q-99 0 -187 33
q-136 51 -135 163q1 104 56 162q13 13 16 14q6 0 -2 -20q-18 -45 -18 -86q0 -154 337 -154q112 0 252 28q159 32 230 79q13 9 28 37q7 13 12 14q5 0 7 -18q8 -72 102 -74q69 -2 285 106q-189 70 -299 51q-4 -1 -7 -1q-7 0 -7 6q0 26 30 63q39 47 95 47q30 0 108 -29
q99 -37 154 -49q112 -25 276 -20q18 0 19 -2zM731 364q-20 -46 -53 -98q-26 12 -84 53q-25 -54 -43 -76q-55 31 -101 66q10 21 54 94q4 -2 84 -51q17 34 43 75q10 -7 100 -63z" />
    <glyph glyph-name="S2JeemTheh" unicode="&#xfe9f;&#xfe9a;" horiz-adv-x="1794" 
d="M1398 -155q-28 -55 -53 -96q-48 21 -101 66q6 14 53 94q42 -27 101 -64zM1774 248q0 -13 -22 -56.5t-30 -41.5q-53 8 -90 8q-96 0 -233 -64q-56 -27 -168 -79q-78 -35 -121 -35q-74 0 -125 92q-14 -27 -26 -39q-55 -55 -277 -103q-148 -32 -260 -32q-99 0 -187 33
q-136 51 -135 163q1 104 56 162q13 13 16 14q6 0 -2 -20q-18 -45 -18 -86q0 -154 337 -154q112 0 252 28q159 32 230 79q13 9 28 37q7 13 12 14q5 0 7 -18q8 -72 102 -74q69 -2 285 106q-189 70 -299 51q-4 -1 -7 -1q-7 0 -7 6q0 26 30 63q39 47 95 47q30 0 108 -29
q99 -37 154 -49q112 -25 276 -20q18 0 19 -2zM579 527q-19 -56 -54 -96q-42 26 -100 63q13 29 53 96q42 -26 101 -63zM685 381q-25 -57 -53 -96q-20 7 -84 51q-22 -47 -43 -73q-29 12 -101 63q13 29 54 96q28 -18 84 -53q17 35 43 76q10 -7 100 -64z" />
    <glyph glyph-name="S2JeemReh" unicode="&#xfe9f;&#xfeae;" horiz-adv-x="1047" 
d="M749 -100q-28 -55 -53 -96q-48 21 -101 66q6 14 53 94q42 -27 101 -64zM1024 164q0 -8 -27 -46t-32 -38q-2 0 -7 1t-8 1q-112 22 -202 22q-87 0 -252 -25q-161 -24 -179 -38q3 -107 -78 -244q-90 -151 -190 -151q-68 0 -209 47q-26 9 -26 18q7 4 30 4q112 0 125 2
q129 20 256 157q56 60 56 89q0 17 -18.5 37t-18.5 23q0 8 17.5 52.5t21.5 47.5q72 35 305 61q-73 41 -101 43q-63 5 -190 15q15 33 29 67q35 53 100 53q51 0 133 -45q128 -70 176 -88q95 -36 266 -59q22 -3 23 -6z" />
    <glyph glyph-name="S2JeemZain" unicode="&#xfe9f;&#xfeb0;" horiz-adv-x="1047" 
d="M218 356q-28 -55 -53 -96q-48 21 -101 66q6 14 53 94q42 -27 101 -64zM1024 164q0 -8 -27 -46t-32 -38q-2 0 -7 1t-8 1q-112 22 -202 22q-87 0 -252 -25q-161 -24 -179 -38q3 -107 -78 -244q-90 -151 -190 -151q-68 0 -209 47q-26 9 -26 18q7 4 30 4q112 0 125 2
q129 20 256 157q56 60 56 89q0 17 -18.5 37t-18.5 23q0 8 17.5 52.5t21.5 47.5q72 35 305 61q-73 41 -101 43q-63 5 -190 15q15 33 29 67q35 53 100 53q51 0 133 -45q128 -70 176 -88q95 -36 266 -59q22 -3 23 -6zM749 -100q-28 -55 -53 -96q-48 21 -101 66q6 14 53 94
q42 -27 101 -64z" />
    <glyph glyph-name="S2JeemSad" unicode="&#xfe9f;&#xfeba;" horiz-adv-x="1987" 
d="M1659 -140q-28 -55 -53 -96q-48 21 -101 66q6 14 53 94q42 -27 101 -64zM1968 225q0 -8 -26.5 -50t-30.5 -42q-10 0 -23 4q-47 15 -110 15q-71 0 -226 -62q-194 -78 -252 -92q-199 -50 -370 -43q-62 -19 -170 -19q-57 0 -88 7q0 -123 -17 -179q-75 -249 -350 -249
q-99 0 -152 61t-53 160q0 80 47 196q13 31 21 23v-21q-27 -66 -27 -139q0 -164 189 -164q112 0 210 58q87 51 87 88q0 182 -49 268q-1 2 -1 6q0 14 11 54q14 53 20 53q6 -7 37 -62q23 -41 82 -41q226 250 342 250q36 0 90 -21q63 -24 64 -53q2 -98 -70 -174q202 40 444 136
q-75 31 -155 43q-29 1 -81 1q-51 0 -71 -1q26 112 129 112q35 0 116 -28q42 -15 126 -44q150 -47 262 -47q43 0 45 -4zM1149 145q-3 25 -67 42q-49 12 -85 12q-72 0 -221 -150q16 -3 36 -3q70 0 187 32q41 11 90 32q61 26 60 35z" />
    <glyph glyph-name="S2JeemAin" unicode="&#xfe9f;&#xfeca;" horiz-adv-x="1212" 
d="M894 -112q-28 -55 -53 -96q-48 21 -101 66q6 14 53 94q42 -27 101 -64zM1192 244q0 -10 -23 -50t-30 -40q-4 0 -11 2t-10 2q-37 12 -104 12q-89 0 -228 -78q-164 -92 -254 -92q-62 0 -151 70q-117 -29 -185 -162q-59 -115 -59 -248q0 -198 156 -274q123 -60 405 -62
q98 -1 183 9q52 6 55 3q0 -10 -119 -52q-105 -37 -141 -46q-40 -10 -125 -10q-268 0 -374 124q-77 90 -77 269q0 320 205 498q-31 31 -61 26q-31 -5 -43 -2q-2 2 -2 5q0 18 15 59t28 51q41 33 125 33q131 0 131 -92q0 -41 -31 -80q22 -23 80 -23q74 0 156 34q23 9 143 71
q-72 21 -170 45q-45 4 -156 4q21 117 123 117q37 0 100 -27q89 -38 156 -57q117 -33 256 -33q37 0 37 -6z" />
    <glyph glyph-name="S2JeemFeh" unicode="&#xfe9f;&#xfed2;" horiz-adv-x="2003" 
d="M1139 571q-34 -67 -56 -96q-30 13 -100 66q27 53 55 94q42 -27 101 -64zM1725 -136q-28 -55 -53 -96q-48 21 -101 66q6 14 53 94q42 -27 101 -64zM1982 231q0 -6 -25 -50t-30 -44t-15 1t-33 2t-34 1q-139 0 -344 -84q-219 -90 -301 -90q-122 0 -164 58q-126 -61 -307 -97
q-140 -28 -225 -28q-404 0 -404 198q0 80 45 158q17 29 25 29q10 0 0 -27q-18 -49 -18 -80q0 -99 142 -143q95 -29 222 -29q251 0 471 88q-8 20 -8 44q0 72 55 148q60 83 129 83q49 0 49 -97q0 -77 -65 -182q23 -18 96 -18q115 0 346 104q-79 35 -119 39q-72 8 -206 8
q21 123 133 123q30 0 116 -31q103 -37 160 -49q157 -33 297 -33q11 0 12 -2zM1163 172q0 31 -9 58q-12 36 -32 36q-23 0 -59 -22q-39 -24 -39 -45q0 -11 21 -40.5t30 -29.5q10 0 49 20t39 23z" />
    <glyph glyph-name="S2JeemMeem" unicode="&#xfe9f;&#xfee2;" horiz-adv-x="1071" 
d="M809 -74q-28 -55 -53 -96q-48 21 -101 66q6 14 53 94q42 -27 101 -64zM1049 201q-5 -13 -64 -78q-3 -3 -39 10q-93 35 -231 35q-49 0 -136 -12q-108 -16 -108 -35q0 1 25.5 -31t25.5 -65t-20 -78q-23 -53 -51 -53q-72 0 -129 40q-49 -87 -119 -137q-27 -19 -135.5 -47.5
t-147.5 -28.5q-12 0 -13 4q0 5 32 21q64 32 193 97q142 74 163 114q-20 20 -2 80q19 64 55 98q53 50 152 75q23 6 137 23q-49 28 -95.5 37t-141.5 11q-14 0 -15 4q0 22 29 61q41 55 108 55q32 0 106 -43q106 -62 146 -79q111 -48 236 -66q42 -6 39 -12zM465 2q1 2 1 4
q0 31 -55 59q-26 13 -51 13q-16 0 -16 -12q0 -24 44 -47q39 -21 67 -21q6 0 10 4z" />
    <glyph glyph-name="S2JeemWawhamzaabove" unicode="&#xfe9f;&#xfe86;" horiz-adv-x="1092" 
d="M262 399q3 -1 3 -6q0 -11 -10 -41q-1 -5 -18 -15q-75 -28 -137 -78q-17 -14 -17 4q0 23 39 54q-43 23 -45 51q-2 33 34 73t69 42q26 2 28 -21q0 -26 -18 -55q-3 -6 -7 -4q-3 2 -3 8q-3 16 -35 10q-26 -5 -25 -22q2 -29 49 -33q11 -2 18 -2q13 0 19 6q48 29 56 29z
M798 -187q-28 -55 -53 -96q-48 21 -101 66q6 14 53 94q42 -27 101 -64zM1071 176q0 -14 -57 -96q-40 11 -123 12q-98 1 -259 -56q-74 -26 -212 -77q-19 -122 -154 -245q-100 -91 -160 -91q-66 0 -171 26q-97 24 -97 32q0 5 29 4q127 -4 205 20q167 51 309 221q13 15 10 25
q-77 -24 -117 -19q-90 0 -90 88q0 55 36 111q39 62 91 62q29 0 70 -55q38 -50 43 -83q44 12 246 86q-157 66 -299 62q-28 -1 -29 0v10q10 49 48.5 81t88.5 32q25 0 113 -38q106 -46 184 -65q153 -38 271 -45zM336 41q-19 45 -55 45q-9 0 -22 -9t-13 -18q0 -12 34 -18
q17 -3 31 -3t25 3z" />
    <glyph glyph-name="S2JeemYeh" unicode="&#xfe9f;&#xfef2;" horiz-adv-x="1282" 
d="M1098 -98q-28 -55 -53 -96q-48 21 -101 66q6 14 53 94q42 -27 101 -64zM1262 150q0 -12 -70 -89q-51 24 -156 25q-81 1 -200 -20q-147 -26 -250 -70q47 -10 141 -31q84 -20 84 -71q0 -117 -256 -231q-152 -67 -242 -66q-100 2 -156.5 63t-56.5 162q0 126 76 241
q14 21 19 21q9 0 -5 -33q-45 -110 -45 -155q0 -61 33 -110q54 -81 180 -81q111 0 269 74q139 65 139 82q0 20 -137 50t-137 52q0 52 79 98q42 24 157 59l140 42q-46 22 -118 51q-65 15 -131 17q-49 1 -50 3q0 16 34 63q42 58 85 56q42 -2 120 -41q110 -56 155 -73
q152 -58 282 -84q16 0 17 -4zM722 -525q-20 -46 -53 -98q-26 12 -84 53q-25 -54 -43 -76q-55 31 -101 66q10 21 54 94q4 -2 84 -51q17 34 43 75q10 -7 100 -63z" />
    <glyph glyph-name="S2JeemYehdotless" unicode="&#xfe9f;&#xfef0;" horiz-adv-x="1282" 
d="M1104 -106q-28 -55 -53 -96q-48 21 -101 66q6 14 53 94q42 -27 101 -64zM1262 150q0 -12 -70 -89q-51 24 -156 25q-81 1 -200 -20q-147 -26 -250 -70q47 -10 141 -31q84 -20 84 -71q0 -117 -256 -231q-152 -67 -242 -66q-100 2 -156.5 63t-56.5 162q0 126 76 241
q14 21 19 21q9 0 -5 -33q-45 -110 -45 -155q0 -61 33 -110q54 -81 180 -81q111 0 269 74q139 65 139 82q0 20 -137 50t-137 52q0 52 79 98q42 24 157 59l140 42q-46 22 -118 51q-65 15 -131 17q-49 1 -50 3q0 16 34 63q42 58 85 56q42 -2 120 -41q110 -56 155 -73
q152 -58 282 -84q16 0 17 -4z" />
    <glyph glyph-name="S2JeemAlefmaksura" unicode="&#xfe9f;&#xfc90;" horiz-adv-x="1282" 
d="M1104 -106q-28 -55 -53 -96q-48 21 -101 66q6 14 53 94q42 -27 101 -64zM349 245q-3 -19 -10 -19q-8 0 -8 21q0 126 -94 229q-2 3 -2 8q0 10 7 34q10 34 19 34t37 -49q74 -128 51 -258zM1262 150q0 -12 -70 -89q-51 24 -156 25q-81 1 -200 -20q-147 -26 -250 -70
q47 -10 141 -31q84 -20 84 -71q0 -117 -256 -231q-152 -67 -242 -66q-100 2 -156.5 63t-56.5 162q0 126 76 241q14 21 19 21q9 0 -5 -33q-45 -110 -45 -155q0 -61 33 -110q54 -81 180 -81q111 0 269 74q139 65 139 82q0 20 -137 50t-137 52q0 52 79 98q42 24 157 59l140 42
q-46 22 -118 51q-65 15 -131 17q-49 1 -50 3q0 16 34 63q42 58 85 56q42 -2 120 -41q110 -56 155 -73q152 -58 282 -84q16 0 17 -4z" />
    <glyph glyph-name="S2HahBeh" unicode="&#xfea3;&#xfe90;" horiz-adv-x="1794" 
d="M1774 248q0 -13 -22 -56.5t-30 -41.5q-53 8 -90 8q-96 0 -233 -64q-56 -27 -168 -79q-78 -35 -121 -35q-74 0 -125 92q-14 -27 -26 -39q-55 -55 -277 -103q-148 -32 -260 -32q-99 0 -187 33q-136 51 -135 163q1 104 56 162q13 13 16 14q6 0 -2 -20q-18 -45 -18 -86
q0 -154 337 -154q112 0 252 28q159 32 230 79q13 9 28 37q7 13 12 14q5 0 7 -18q8 -72 102 -74q69 -2 285 106q-189 70 -299 51q-4 -1 -7 -1q-7 0 -7 6q0 26 30 63q39 47 95 47q30 0 108 -29q99 -37 154 -49q112 -25 276 -20q18 0 19 -2zM633 -304q-28 -55 -53 -96
q-48 21 -101 66q6 14 53 94q42 -27 101 -64z" />
    <glyph glyph-name="S2HahTeh" unicode="&#xfea3;&#xfe96;" horiz-adv-x="1794" 
d="M1774 248q0 -13 -22 -56.5t-30 -41.5q-53 8 -90 8q-96 0 -233 -64q-56 -27 -168 -79q-78 -35 -121 -35q-74 0 -125 92q-14 -27 -26 -39q-55 -55 -277 -103q-148 -32 -260 -32q-99 0 -187 33q-136 51 -135 163q1 104 56 162q13 13 16 14q6 0 -2 -20q-18 -45 -18 -86
q0 -154 337 -154q112 0 252 28q159 32 230 79q13 9 28 37q7 13 12 14q5 0 7 -18q8 -72 102 -74q69 -2 285 106q-189 70 -299 51q-4 -1 -7 -1q-7 0 -7 6q0 26 30 63q39 47 95 47q30 0 108 -29q99 -37 154 -49q112 -25 276 -20q18 0 19 -2zM705 364q-20 -46 -53 -98
q-26 12 -84 53q-25 -54 -43 -76q-55 31 -101 66q10 21 54 94q4 -2 84 -51q17 34 43 75q10 -7 100 -63z" />
    <glyph glyph-name="S2HahTheh" unicode="&#xfea3;&#xfe9a;" horiz-adv-x="1794" 
d="M1774 248q0 -13 -22 -56.5t-30 -41.5q-53 8 -90 8q-96 0 -233 -64q-56 -27 -168 -79q-78 -35 -121 -35q-74 0 -125 92q-14 -27 -26 -39q-55 -55 -277 -103q-148 -32 -260 -32q-99 0 -187 33q-136 51 -135 163q1 104 56 162q13 13 16 14q6 0 -2 -20q-18 -45 -18 -86
q0 -154 337 -154q112 0 252 28q159 32 230 79q13 9 28 37q7 13 12 14q5 0 7 -18q8 -72 102 -74q69 -2 285 106q-189 70 -299 51q-4 -1 -7 -1q-7 0 -7 6q0 26 30 63q39 47 95 47q30 0 108 -29q99 -37 154 -49q112 -25 276 -20q18 0 19 -2zM579 493q-19 -56 -54 -96
q-42 26 -100 63q13 29 53 96q42 -26 101 -63zM685 347q-25 -57 -53 -96q-20 7 -84 51q-22 -47 -43 -73q-29 12 -101 63q13 29 54 96q28 -18 84 -53q17 35 43 76q10 -7 100 -64z" />
    <glyph glyph-name="S2HahReh" unicode="&#xfea3;&#xfeae;" horiz-adv-x="1047" 
d="M1024 164q0 -8 -27 -46t-32 -38q-2 0 -7 1t-8 1q-112 22 -202 22q-87 0 -252 -25q-161 -24 -179 -38q3 -107 -78 -244q-90 -151 -190 -151q-68 0 -209 47q-26 9 -26 18q7 4 30 4q112 0 125 2q129 20 256 157q56 60 56 89q0 17 -18.5 37t-18.5 23q0 8 17.5 52.5t21.5 47.5
q72 35 305 61q-73 41 -101 43q-63 5 -190 15q15 33 29 67q35 53 100 53q51 0 133 -45q128 -70 176 -88q95 -36 266 -59q22 -3 23 -6z" />
    <glyph glyph-name="S2HahZain" unicode="&#xfea3;&#xfeb0;" horiz-adv-x="1047" 
d="M1024 164q0 -8 -27 -46t-32 -38q-2 0 -7 1t-8 1q-112 22 -202 22q-87 0 -252 -25q-161 -24 -179 -38q3 -107 -78 -244q-90 -151 -190 -151q-68 0 -209 47q-26 9 -26 18q7 4 30 4q112 0 125 2q129 20 256 157q56 60 56 89q0 17 -18.5 37t-18.5 23q0 8 17.5 52.5t21.5 47.5
q72 35 305 61q-73 41 -101 43q-63 5 -190 15q15 33 29 67q35 53 100 53q51 0 133 -45q128 -70 176 -88q95 -36 266 -59q22 -3 23 -6zM221 282q-28 -55 -53 -96q-48 21 -101 66q6 14 53 94q42 -27 101 -64z" />
    <glyph glyph-name="S2HahSad" unicode="&#xfea3;&#xfeba;" horiz-adv-x="1987" 
d="M1968 225q0 -8 -26.5 -50t-30.5 -42q-10 0 -23 4q-47 15 -110 15q-71 0 -226 -62q-194 -78 -252 -92q-199 -50 -370 -43q-62 -19 -170 -19q-57 0 -88 7q0 -123 -17 -179q-75 -249 -350 -249q-99 0 -152 61t-53 160q0 80 47 196q13 31 21 23v-21q-27 -66 -27 -139
q0 -164 189 -164q112 0 210 58q87 51 87 88q0 182 -49 268q-1 2 -1 6q0 14 11 54q14 53 20 53q6 -7 37 -62q23 -41 82 -41q226 250 342 250q36 0 90 -21q63 -24 64 -53q2 -98 -70 -174q202 40 444 136q-75 31 -155 43q-29 1 -81 1q-51 0 -71 -1q26 112 129 112q35 0 116 -28
q42 -15 126 -44q150 -47 262 -47q43 0 45 -4zM1149 145q-3 25 -67 42q-49 12 -85 12q-72 0 -221 -150q16 -3 36 -3q70 0 187 32q41 11 90 32q61 26 60 35z" />
    <glyph glyph-name="S2HahDad" unicode="&#xfea3;&#xfebe;" horiz-adv-x="1987" 
d="M908 480q-28 -55 -53 -96q-48 21 -101 66q6 14 53 94q42 -27 101 -64zM1968 225q0 -8 -26.5 -50t-30.5 -42q-10 0 -23 4q-47 15 -110 15q-71 0 -226 -62q-194 -78 -252 -92q-199 -50 -370 -43q-62 -19 -170 -19q-57 0 -88 7q0 -123 -17 -179q-75 -249 -350 -249
q-99 0 -152 61t-53 160q0 80 47 196q13 31 21 23v-21q-27 -66 -27 -139q0 -164 189 -164q112 0 210 58q87 51 87 88q0 182 -49 268q-1 2 -1 6q0 14 11 54q14 53 20 53q6 -7 37 -62q23 -41 82 -41q226 250 342 250q36 0 90 -21q63 -24 64 -53q2 -98 -70 -174q202 40 444 136
q-75 31 -155 43q-29 1 -81 1q-51 0 -71 -1q26 112 129 112q35 0 116 -28q42 -15 126 -44q150 -47 262 -47q43 0 45 -4zM1149 145q-3 25 -67 42q-49 12 -85 12q-72 0 -221 -150q16 -3 36 -3q70 0 187 32q41 11 90 32q61 26 60 35z" />
    <glyph glyph-name="S2HahTah" unicode="&#xfea3;&#xfec2;" horiz-adv-x="1661" 
d="M1640 223q0 -6 -29 -49t-32 -43q-13 0 -35 8q-45 16 -100 16q-107 0 -246 -53q-75 -31 -270 -98q-94 -29 -246 -29q-58 0 -102 7q-156 -45 -277 -45q-43 0 -92 27l-94 56q-16 12 -17 15q0 6 19 6q194 0 252 8l61 68q4 91 -39 360q-10 64 -47 291q-14 17 -14 49
q0 22 12 65q15 52 31 52q9 0 6 -19q-5 -32 22 -57t27 -27q0 -22 -33 -75q61 -347 68 -457q5 -88 -4 -154q158 166 248 166q40 0 90 -18q63 -22 65 -55q2 -37 -34 -97q-30 -50 -52 -67q87 0 204 35q62 19 259 92q-67 22 -119 35q-22 5 -106 8q-76 2 -78 4q25 112 125 112
q52 0 113 -26q101 -43 170 -62q164 -45 276 -45q17 0 18 -4zM801 164q7 8 -38 32q-50 27 -108 27q-52 0 -141 -74q-61 -51 -98 -98q85 9 203 38q147 37 182 75z" />
    <glyph glyph-name="S2HahZah" unicode="&#xfea3;&#xfec6;" horiz-adv-x="1661" 
d="M1640 223q0 -6 -29 -49t-32 -43q-13 0 -35 8q-45 16 -100 16q-107 0 -246 -53q-75 -31 -270 -98q-94 -29 -246 -29q-58 0 -102 7q-156 -45 -277 -45q-43 0 -92 27l-94 56q-16 12 -17 15q0 6 19 6q194 0 252 8l61 68q4 91 -39 360q-10 64 -47 291q-14 17 -14 49
q0 22 12 65q15 52 31 52q9 0 6 -19q-5 -32 22 -57t27 -27q0 -22 -33 -75q61 -347 68 -457q5 -88 -4 -154q158 166 248 166q40 0 90 -18q63 -22 65 -55q2 -37 -34 -97q-30 -50 -52 -67q87 0 204 35q62 19 259 92q-67 22 -119 35q-22 5 -106 8q-76 2 -78 4q25 112 125 112
q52 0 113 -26q101 -43 170 -62q164 -45 276 -45q17 0 18 -4zM725 591q-28 -55 -53 -96q-48 21 -101 66q6 14 53 94q42 -27 101 -64zM801 164q7 8 -38 32q-50 27 -108 27q-52 0 -141 -74q-61 -51 -98 -98q85 9 203 38q147 37 182 75z" />
    <glyph glyph-name="S2HahAin" unicode="&#xfea3;&#xfeca;" horiz-adv-x="1212" 
d="M1192 244q0 -10 -23 -50t-30 -40q-4 0 -11 2t-10 2q-37 12 -104 12q-89 0 -228 -78q-164 -92 -254 -92q-62 0 -151 70q-117 -29 -185 -162q-59 -115 -59 -248q0 -198 156 -274q123 -60 405 -62q98 -1 183 9q52 6 55 3q0 -10 -119 -52q-105 -37 -141 -46q-40 -10 -125 -10
q-268 0 -374 124q-77 90 -77 269q0 320 205 498q-31 31 -61 26q-31 -5 -43 -2q-2 2 -2 5q0 18 15 59t28 51q41 33 125 33q131 0 131 -92q0 -41 -31 -80q22 -23 80 -23q74 0 156 34q23 9 143 71q-72 21 -170 45q-45 4 -156 4q21 117 123 117q37 0 100 -27q89 -38 156 -57
q117 -33 256 -33q37 0 37 -6z" />
    <glyph glyph-name="S2HahFeh" unicode="&#xfea3;&#xfed2;" horiz-adv-x="2003" 
d="M1139 571q-34 -67 -56 -96q-30 13 -100 66q27 53 55 94q42 -27 101 -64zM1982 231q0 -6 -25 -50t-30 -44t-15 1t-33 2t-34 1q-139 0 -344 -84q-219 -90 -301 -90q-122 0 -164 58q-126 -61 -307 -97q-140 -28 -225 -28q-404 0 -404 198q0 80 45 158q17 29 25 29
q10 0 0 -27q-18 -49 -18 -80q0 -99 142 -143q95 -29 222 -29q251 0 471 88q-8 20 -8 44q0 72 55 148q60 83 129 83q49 0 49 -97q0 -77 -65 -182q23 -18 96 -18q115 0 346 104q-79 35 -119 39q-72 8 -206 8q21 123 133 123q30 0 116 -31q103 -37 160 -49q157 -33 297 -33
q11 0 12 -2zM1163 172q0 31 -9 58q-12 36 -32 36q-23 0 -59 -22q-39 -24 -39 -45q0 -11 21 -40.5t30 -29.5q10 0 49 20t39 23z" />
    <glyph glyph-name="S2HahQaf" unicode="&#xfea3;&#xfed6;" horiz-adv-x="1399" 
d="M565 496q-18 -56 -53 -97q-19 8 -82 52q-33 -62 -43 -74q-17 10 -102 63q21 48 55 97q33 -21 82 -54l43 76q67 -43 100 -63zM1378 260q0 -9 -26 -52.5t-31 -43.5q-13 0 -41 4t-43 4q-113 0 -255 -49l-241 -84q3 -77 -18 -152q-32 -113 -169 -200q-130 -82 -253 -82
q-74 0 -128 44q-73 59 -73 183q0 100 39 182q15 31 23 31q7 -2 -2 -33q-19 -62 -19 -118q0 -84 51 -131.5t136 -47.5q103 0 215 63q91 51 155 124q9 10 6 53q-3 46 -16 70q-56 -11 -92 -11q-123 0 -123 74q0 47 35 108q41 72 94 72q35 0 74 -51q33 -43 47 -86q118 24 278 86
l-159 37q-103 10 -178 10q-2 2 -2 5q0 29 25 67q33 50 87 49q26 0 137 -37q126 -42 189 -55q118 -25 243 -29q33 -1 35 -4zM629 121q-31 43 -51 43q-33 0 -33 -23q0 -10 32 -17q20 -4 36 -4q9 0 16 1z" />
    <glyph glyph-name="S2HahMeem" unicode="&#xfea3;&#xfee2;" horiz-adv-x="1071" 
d="M1049 201q-5 -13 -64 -78q-3 -3 -39 10q-93 35 -231 35q-49 0 -136 -12q-108 -16 -108 -35q0 1 25.5 -31t25.5 -65t-20 -78q-23 -53 -51 -53q-72 0 -129 40q-49 -87 -119 -137q-27 -19 -135.5 -47.5t-147.5 -28.5q-12 0 -13 4q0 5 32 21q64 32 193 97q142 74 163 114
q-20 20 -2 80q19 64 55 98q53 50 152 75q23 6 137 23q-49 28 -95.5 37t-141.5 11q-14 0 -15 4q0 22 29 61q41 55 108 55q32 0 106 -43q106 -62 146 -79q111 -48 236 -66q42 -6 39 -12zM465 2q1 2 1 4q0 31 -55 59q-26 13 -51 13q-16 0 -16 -12q0 -24 44 -47q39 -21 67 -21
q6 0 10 4z" />
    <glyph glyph-name="S2HahWawhamzaabove" unicode="&#xfea3;&#xfe86;" horiz-adv-x="1092" 
d="M270 399q3 -1 3 -6q0 -11 -10 -41q-1 -5 -18 -15q-75 -28 -137 -78q-17 -14 -17 4q0 23 39 54q-43 23 -45 51q-2 33 34 73t69 42q26 2 28 -21q0 -26 -18 -55q-3 -6 -7 -4q-3 2 -3 8q-3 16 -35 10q-26 -5 -25 -22q2 -29 49 -33q11 -2 18 -2q13 0 19 6q48 29 56 29z
M1071 176q0 -14 -57 -96q-40 11 -123 12q-98 1 -259 -56q-74 -26 -212 -77q-19 -122 -154 -245q-100 -91 -160 -91q-66 0 -171 26q-97 24 -97 32q0 5 29 4q127 -4 205 20q167 51 309 221q13 15 10 25q-77 -24 -117 -19q-90 0 -90 88q0 55 36 111q39 62 91 62q29 0 70 -55
q38 -50 43 -83q44 12 246 86q-157 66 -299 62q-28 -1 -29 0v10q10 49 48.5 81t88.5 32q25 0 113 -38q106 -46 184 -65q153 -38 271 -45zM336 41q-19 45 -55 45q-9 0 -22 -9t-13 -18q0 -12 34 -18q17 -3 31 -3t25 3z" />
    <glyph glyph-name="S2HahYeh" unicode="&#xfea3;&#xfef2;" horiz-adv-x="1282" 
d="M1262 150q0 -12 -70 -89q-51 24 -156 25q-81 1 -200 -20q-147 -26 -250 -70q47 -10 141 -31q84 -20 84 -71q0 -117 -256 -231q-152 -67 -242 -66q-100 2 -156.5 63t-56.5 162q0 126 76 241q14 21 19 21q9 0 -5 -33q-45 -110 -45 -155q0 -61 33 -110q54 -81 180 -81
q111 0 269 74q139 65 139 82q0 20 -137 50t-137 52q0 52 79 98q42 24 157 59l140 42q-46 22 -118 51q-65 15 -131 17q-49 1 -50 3q0 16 34 63q42 58 85 56q42 -2 120 -41q110 -56 155 -73q152 -58 282 -84q16 0 17 -4zM722 -525q-20 -46 -53 -98q-26 12 -84 53
q-25 -54 -43 -76q-55 31 -101 66q10 21 54 94q4 -2 84 -51q17 34 43 75q10 -7 100 -63z" />
    <glyph glyph-name="S2HahYehdotless" unicode="&#xfea3;&#xfef0;" horiz-adv-x="1282" 
d="M1262 150q0 -12 -70 -89q-51 24 -156 25q-81 1 -200 -20q-147 -26 -250 -70q47 -10 141 -31q84 -20 84 -71q0 -117 -256 -231q-152 -67 -242 -66q-100 2 -156.5 63t-56.5 162q0 126 76 241q14 21 19 21q9 0 -5 -33q-45 -110 -45 -155q0 -61 33 -110q54 -81 180 -81
q111 0 269 74q139 65 139 82q0 20 -137 50t-137 52q0 52 79 98q42 24 157 59l140 42q-46 22 -118 51q-65 15 -131 17q-49 1 -50 3q0 16 34 63q42 58 85 56q42 -2 120 -41q110 -56 155 -73q152 -58 282 -84q16 0 17 -4z" />
    <glyph glyph-name="S2HahAlefmaksura" unicode="&#xfea3;&#xfc90;" horiz-adv-x="1282" 
d="M1262 150q0 -12 -70 -89q-51 24 -156 25q-81 1 -200 -20q-147 -26 -250 -70q47 -10 141 -31q84 -20 84 -71q0 -117 -256 -231q-152 -67 -242 -66q-100 2 -156.5 63t-56.5 162q0 126 76 241q14 21 19 21q9 0 -5 -33q-45 -110 -45 -155q0 -61 33 -110q54 -81 180 -81
q111 0 269 74q139 65 139 82q0 20 -137 50t-137 52q0 52 79 98q42 24 157 59l140 42q-46 22 -118 51q-65 15 -131 17q-49 1 -50 3q0 16 34 63q42 58 85 56q42 -2 120 -41q110 -56 155 -73q152 -58 282 -84q16 0 17 -4zM349 245q-3 -19 -10 -19q-8 0 -8 21q0 126 -94 229
q-2 3 -2 8q0 10 7 34q10 34 19 34t37 -49q74 -128 51 -258z" />
    <glyph glyph-name="S2KhahBeh" unicode="&#xfea7;&#xfe90;" horiz-adv-x="1794" 
d="M1522 519q-28 -55 -53 -96q-48 21 -101 66q6 14 53 94q42 -27 101 -64zM1774 248q0 -13 -22 -56.5t-30 -41.5q-53 8 -90 8q-96 0 -233 -64q-56 -27 -168 -79q-78 -35 -121 -35q-74 0 -125 92q-14 -27 -26 -39q-55 -55 -277 -103q-148 -32 -260 -32q-99 0 -187 33
q-136 51 -135 163q1 104 56 162q13 13 16 14q6 0 -2 -20q-18 -45 -18 -86q0 -154 337 -154q112 0 252 28q159 32 230 79q13 9 28 37q7 13 12 14q5 0 7 -18q8 -72 102 -74q69 -2 285 106q-189 70 -299 51q-4 -1 -7 -1q-7 0 -7 6q0 26 30 63q39 47 95 47q30 0 108 -29
q99 -37 154 -49q112 -25 276 -20q18 0 19 -2zM592 -305q-28 -55 -53 -96q-48 21 -101 66q6 14 53 94q42 -27 101 -64z" />
    <glyph glyph-name="S2KhahTeh" unicode="&#xfea7;&#xfe96;" horiz-adv-x="1794" 
d="M1556 509q-28 -55 -53 -96q-48 21 -101 66q6 14 53 94q42 -27 101 -64zM1774 248q0 -13 -22 -56.5t-30 -41.5q-53 8 -90 8q-96 0 -233 -64q-56 -27 -168 -79q-78 -35 -121 -35q-74 0 -125 92q-14 -27 -26 -39q-55 -55 -277 -103q-148 -32 -260 -32q-99 0 -187 33
q-136 51 -135 163q1 104 56 162q13 13 16 14q6 0 -2 -20q-18 -45 -18 -86q0 -154 337 -154q112 0 252 28q159 32 230 79q13 9 28 37q7 13 12 14q5 0 7 -18q8 -72 102 -74q69 -2 285 106q-189 70 -299 51q-4 -1 -7 -1q-7 0 -7 6q0 26 30 63q39 47 95 47q30 0 108 -29
q99 -37 154 -49q112 -25 276 -20q18 0 19 -2zM697 355q-20 -46 -53 -98q-26 12 -84 53q-25 -54 -43 -76q-55 31 -101 66q10 21 54 94q4 -2 84 -51q17 34 43 75q10 -7 100 -63z" />
    <glyph glyph-name="S2KhahReh" unicode="&#xfea7;&#xfeae;" horiz-adv-x="1047" 
d="M761 567q-28 -55 -53 -96q-48 21 -101 66q6 14 53 94q42 -27 101 -64zM1024 164q0 -8 -27 -46t-32 -38q-2 0 -7 1t-8 1q-112 22 -202 22q-87 0 -252 -25q-161 -24 -179 -38q3 -107 -78 -244q-90 -151 -190 -151q-68 0 -209 47q-26 9 -26 18q7 4 30 4q112 0 125 2
q129 20 256 157q56 60 56 89q0 17 -18.5 37t-18.5 23q0 8 17.5 52.5t21.5 47.5q72 35 305 61q-73 41 -101 43q-63 5 -190 15q15 33 29 67q35 53 100 53q51 0 133 -45q128 -70 176 -88q95 -36 266 -59q22 -3 23 -6z" />
    <glyph glyph-name="S2KhahZain" unicode="&#xfea7;&#xfeb0;" horiz-adv-x="1047" 
d="M768 519q-28 -55 -53 -96q-48 21 -101 66q6 14 53 94q42 -27 101 -64zM1024 164q0 -8 -27 -46t-32 -38q-2 0 -7 1t-8 1q-112 22 -202 22q-87 0 -252 -25q-161 -24 -179 -38q3 -107 -78 -244q-90 -151 -190 -151q-68 0 -209 47q-26 9 -26 18q7 4 30 4q112 0 125 2
q129 20 256 157q56 60 56 89q0 17 -18.5 37t-18.5 23q0 8 17.5 52.5t21.5 47.5q72 35 305 61q-73 41 -101 43q-63 5 -190 15q15 33 29 67q35 53 100 53q51 0 133 -45q128 -70 176 -88q95 -36 266 -59q22 -3 23 -6zM189 304q-28 -55 -53 -96q-48 21 -101 66q6 14 53 94
q42 -27 101 -64z" />
    <glyph glyph-name="S2KhahSad" unicode="&#xfea7;&#xfeba;" horiz-adv-x="1987" 
d="M1720 550q-28 -55 -53 -96q-48 21 -101 66q6 14 53 94q42 -27 101 -64zM1968 225q0 -8 -26.5 -50t-30.5 -42q-10 0 -23 4q-47 15 -110 15q-71 0 -226 -62q-194 -78 -252 -92q-199 -50 -370 -43q-62 -19 -170 -19q-57 0 -88 7q0 -123 -17 -179q-75 -249 -350 -249
q-99 0 -152 61t-53 160q0 80 47 196q13 31 21 23v-21q-27 -66 -27 -139q0 -164 189 -164q112 0 210 58q87 51 87 88q0 182 -49 268q-1 2 -1 6q0 14 11 54q14 53 20 53q6 -7 37 -62q23 -41 82 -41q226 250 342 250q36 0 90 -21q63 -24 64 -53q2 -98 -70 -174q202 40 444 136
q-75 31 -155 43q-29 1 -81 1q-51 0 -71 -1q26 112 129 112q35 0 116 -28q42 -15 126 -44q150 -47 262 -47q43 0 45 -4zM1149 145q-3 25 -67 42q-49 12 -85 12q-72 0 -221 -150q16 -3 36 -3q70 0 187 32q41 11 90 32q61 26 60 35z" />
    <glyph glyph-name="S2KhahDad" unicode="&#xfea7;&#xfebe;" horiz-adv-x="1987" 
d="M1741 526q-28 -55 -53 -96q-48 21 -101 66q6 14 53 94q42 -27 101 -64zM876 432q-28 -55 -53 -96q-48 21 -101 66q6 14 53 94q42 -27 101 -64zM1968 225q0 -8 -26.5 -50t-30.5 -42q-10 0 -23 4q-47 15 -110 15q-71 0 -226 -62q-194 -78 -252 -92q-199 -50 -370 -43
q-62 -19 -170 -19q-57 0 -88 7q0 -123 -17 -179q-75 -249 -350 -249q-99 0 -152 61t-53 160q0 80 47 196q13 31 21 23v-21q-27 -66 -27 -139q0 -164 189 -164q112 0 210 58q87 51 87 88q0 182 -49 268q-1 2 -1 6q0 14 11 54q14 53 20 53q6 -7 37 -62q23 -41 82 -41
q226 250 342 250q36 0 90 -21q63 -24 64 -53q2 -98 -70 -174q202 40 444 136q-75 31 -155 43q-29 1 -81 1q-51 0 -71 -1q26 112 129 112q35 0 116 -28q42 -15 126 -44q150 -47 262 -47q43 0 45 -4zM1149 145q-3 25 -67 42q-49 12 -85 12q-72 0 -221 -150q16 -3 36 -3
q70 0 187 32q41 11 90 32q61 26 60 35z" />
    <glyph glyph-name="S2KhahTah" unicode="&#xfea7;&#xfec2;" horiz-adv-x="1661" 
d="M1388 539q-28 -55 -53 -96q-48 21 -101 66q6 14 53 94q42 -27 101 -64zM1640 223q0 -6 -29 -49t-32 -43q-13 0 -35 8q-45 16 -100 16q-107 0 -246 -53q-75 -31 -270 -98q-94 -29 -246 -29q-58 0 -102 7q-156 -45 -277 -45q-43 0 -92 27l-94 56q-16 12 -17 15q0 6 19 6
q194 0 252 8l61 68q4 91 -39 360q-10 64 -47 291q-14 17 -14 49q0 22 12 65q15 52 31 52q9 0 6 -19q-5 -32 22 -57t27 -27q0 -22 -33 -75q61 -347 68 -457q5 -88 -4 -154q158 166 248 166q40 0 90 -18q63 -22 65 -55q2 -37 -34 -97q-30 -50 -52 -67q87 0 204 35
q62 19 259 92q-67 22 -119 35q-22 5 -106 8q-76 2 -78 4q25 112 125 112q52 0 113 -26q101 -43 170 -62q164 -45 276 -45q17 0 18 -4zM801 164q7 8 -38 32q-50 27 -108 27q-52 0 -141 -74q-61 -51 -98 -98q85 9 203 38q147 37 182 75z" />
    <glyph glyph-name="S2KhahAin" unicode="&#xfea7;&#xfeca;" horiz-adv-x="1212" 
d="M987 548q-28 -55 -53 -96q-48 21 -101 66q6 14 53 94q42 -27 101 -64zM1192 244q0 -10 -23 -50t-30 -40q-4 0 -11 2t-10 2q-37 12 -104 12q-89 0 -228 -78q-164 -92 -254 -92q-62 0 -151 70q-117 -29 -185 -162q-59 -115 -59 -248q0 -198 156 -274q123 -60 405 -62
q98 -1 183 9q52 6 55 3q0 -10 -119 -52q-105 -37 -141 -46q-40 -10 -125 -10q-268 0 -374 124q-77 90 -77 269q0 320 205 498q-31 31 -61 26q-31 -5 -43 -2q-2 2 -2 5q0 18 15 59t28 51q41 33 125 33q131 0 131 -92q0 -41 -31 -80q22 -23 80 -23q74 0 156 34q23 9 143 71
q-72 21 -170 45q-45 4 -156 4q21 117 123 117q37 0 100 -27q89 -38 156 -57q117 -33 256 -33q37 0 37 -6z" />
    <glyph glyph-name="S2KhahFeh" unicode="&#xfea7;&#xfed2;" horiz-adv-x="2003" 
d="M1659 539q-28 -55 -53 -96q-48 21 -101 66q6 14 53 94q42 -27 101 -64zM1139 571q-34 -67 -56 -96q-30 13 -100 66q27 53 55 94q42 -27 101 -64zM1982 231q0 -6 -25 -50t-30 -44t-15 1t-33 2t-34 1q-139 0 -344 -84q-219 -90 -301 -90q-122 0 -164 58q-126 -61 -307 -97
q-140 -28 -225 -28q-404 0 -404 198q0 80 45 158q17 29 25 29q10 0 0 -27q-18 -49 -18 -80q0 -99 142 -143q95 -29 222 -29q251 0 471 88q-8 20 -8 44q0 72 55 148q60 83 129 83q49 0 49 -97q0 -77 -65 -182q23 -18 96 -18q115 0 346 104q-79 35 -119 39q-72 8 -206 8
q21 123 133 123q30 0 116 -31q103 -37 160 -49q157 -33 297 -33q11 0 12 -2zM1163 172q0 31 -9 58q-12 36 -32 36q-23 0 -59 -22q-39 -24 -39 -45q0 -11 21 -40.5t30 -29.5q10 0 49 20t39 23z" />
    <glyph glyph-name="S2KhahMeem" unicode="&#xfea7;&#xfee2;" horiz-adv-x="1071" 
d="M866 584q-28 -55 -53 -96q-48 21 -101 66q6 14 53 94q42 -27 101 -64zM1049 201q-5 -13 -64 -78q-3 -3 -39 10q-93 35 -231 35q-49 0 -136 -12q-108 -16 -108 -35q0 1 25.5 -31t25.5 -65t-20 -78q-23 -53 -51 -53q-72 0 -129 40q-49 -87 -119 -137q-27 -19 -135.5 -47.5
t-147.5 -28.5q-12 0 -13 4q0 5 32 21q64 32 193 97q142 74 163 114q-20 20 -2 80q19 64 55 98q53 50 152 75q23 6 137 23q-49 28 -95.5 37t-141.5 11q-14 0 -15 4q0 22 29 61q41 55 108 55q32 0 106 -43q106 -62 146 -79q111 -48 236 -66q42 -6 39 -12zM465 2q1 2 1 4
q0 31 -55 59q-26 13 -51 13q-16 0 -16 -12q0 -24 44 -47q39 -21 67 -21q6 0 10 4z" />
    <glyph glyph-name="S2KhahWawhamzaabove" unicode="&#xfea7;&#xfe86;" horiz-adv-x="1092" 
d="M763 547q-28 -55 -53 -96q-48 21 -101 66q6 14 53 94q42 -27 101 -64zM271 399q3 -1 3 -7q0 -10 -10 -40q-2 -6 -18 -15q-76 -29 -137 -78q-17 -14 -17 4q0 23 39 54q-43 22 -45 51q-3 32 33 72t70 43q25 1 28 -21q0 -27 -18 -55q-4 -7 -7 -4q-3 1 -3 8q-4 16 -35 10
q-27 -5 -25 -22q1 -29 49 -33q10 -3 18 -3q13 0 19 7q48 29 56 29zM1071 176q0 -14 -57 -96q-40 11 -123 12q-98 1 -259 -56q-74 -26 -212 -77q-19 -122 -154 -245q-100 -91 -160 -91q-66 0 -171 26q-97 24 -97 32q0 5 29 4q127 -4 205 20q167 51 309 221q13 15 10 25
q-77 -24 -117 -19q-90 0 -90 88q0 55 36 111q39 62 91 62q29 0 70 -55q38 -50 43 -83q44 12 246 86q-157 66 -299 62q-28 -1 -29 0v10q10 49 48.5 81t88.5 32q25 0 113 -38q106 -46 184 -65q153 -38 271 -45zM336 41q-19 45 -55 45q-9 0 -22 -9t-13 -18q0 -12 34 -18
q17 -3 31 -3t25 3z" />
    <glyph glyph-name="S2KhahYeh" unicode="&#xfea7;&#xfef2;" horiz-adv-x="1282" 
d="M1004 528q-28 -55 -53 -96q-48 21 -101 66q6 14 53 94q42 -27 101 -64zM1262 150q0 -12 -70 -89q-51 24 -156 25q-81 1 -200 -20q-147 -26 -250 -70q47 -10 141 -31q84 -20 84 -71q0 -117 -256 -231q-152 -67 -242 -66q-100 2 -156.5 63t-56.5 162q0 126 76 241
q14 21 19 21q9 0 -5 -33q-45 -110 -45 -155q0 -61 33 -110q54 -81 180 -81q111 0 269 74q139 65 139 82q0 20 -137 50t-137 52q0 52 79 98q42 24 157 59l140 42q-46 22 -118 51q-65 15 -131 17q-49 1 -50 3q0 16 34 63q42 58 85 56q42 -2 120 -41q110 -56 155 -73
q152 -58 282 -84q16 0 17 -4zM739 -540q-20 -46 -53 -98q-26 12 -84 53q-25 -54 -43 -76q-55 31 -101 66q10 21 54 94q4 -2 84 -51q17 34 43 75q10 -7 100 -63z" />
    <glyph glyph-name="S2KhahYehdotless" unicode="&#xfea7;&#xfef0;" horiz-adv-x="1282" 
d="M1017 520q-28 -55 -53 -96q-48 21 -101 66q6 14 53 94q42 -27 101 -64zM1262 150q0 -12 -70 -89q-51 24 -156 25q-81 1 -200 -20q-147 -26 -250 -70q47 -10 141 -31q84 -20 84 -71q0 -117 -256 -231q-152 -67 -242 -66q-100 2 -156.5 63t-56.5 162q0 126 76 241
q14 21 19 21q9 0 -5 -33q-45 -110 -45 -155q0 -61 33 -110q54 -81 180 -81q111 0 269 74q139 65 139 82q0 20 -137 50t-137 52q0 52 79 98q42 24 157 59l140 42q-46 22 -118 51q-65 15 -131 17q-49 1 -50 3q0 16 34 63q42 58 85 56q42 -2 120 -41q110 -56 155 -73
q152 -58 282 -84q16 0 17 -4z" />
    <glyph glyph-name="S2KhahAlefmaksura" unicode="&#xfea7;&#xfc90;" horiz-adv-x="1282" 
d="M1017 520q-28 -55 -53 -96q-48 21 -101 66q6 14 53 94q42 -27 101 -64zM1262 150q0 -12 -70 -89q-51 24 -156 25q-81 1 -200 -20q-147 -26 -250 -70q47 -10 141 -31q84 -20 84 -71q0 -117 -256 -231q-152 -67 -242 -66q-100 2 -156.5 63t-56.5 162q0 126 76 241
q14 21 19 21q9 0 -5 -33q-45 -110 -45 -155q0 -61 33 -110q54 -81 180 -81q111 0 269 74q139 65 139 82q0 20 -137 50t-137 52q0 52 79 98q42 24 157 59l140 42q-46 22 -118 51q-65 15 -131 17q-49 1 -50 3q0 16 34 63q42 58 85 56q42 -2 120 -41q110 -56 155 -73
q152 -58 282 -84q16 0 17 -4zM349 245q-3 -19 -10 -19q-8 0 -8 21q0 126 -94 229q-2 3 -2 8q0 10 7 34q10 34 19 34t37 -49q74 -128 51 -258z" />
    <glyph glyph-name="S2SeenJeem" unicode="&#xfeb3;&#xfe9e;" horiz-adv-x="963" 
d="M958 -668q0 -10 -237 -88q-91 -30 -219 -30q-195 0 -291 78q-104 84 -111 272q-7 181 90 334q101 160 269 213q-201 22 -324 18q-6 -1 -10 -1q-6 0 -6 3q0 9 26 56.5t33 52.5q127 47 195 112q31 30 93 114q44 60 60 60q6 0 15 -30q25 -88 98 -88q100 0 135 75
q26 54 35 54t9 -15q0 -18 -13 -57q52 -45 84 -45q14 0 14 20q0 16 -10 41q-3 9 14 53t23 44q12 0 12 -78q0 -41 -18 -99q-22 -73 -54 -73q-52 0 -100 59q-45 -90 -164 -90q-73 0 -101 89q-10 32 -16 32q-12 0 -60 -68q-59 -83 -110 -121q271 -39 484 -26q16 1 16 -4
q-41 -97 -51 -97q-92 -10 -236 -47q-385 -99 -391 -424q-2 -134 84 -221q68 -69 228 -84q75 -7 167 -7q91 0 205 8l120 8q12 0 13 -3zM598 -239q-28 -55 -53 -96q-48 21 -101 66q6 14 53 94q42 -27 101 -64z" />
    <glyph glyph-name="S2SeenHah" unicode="&#xfeb3;&#xfea2;" horiz-adv-x="963" 
d="M958 -668q0 -10 -237 -88q-91 -30 -219 -30q-195 0 -291 78q-104 84 -111 272q-7 181 90 334q101 160 269 213q-201 22 -324 18q-6 -1 -10 -1q-6 0 -6 3q0 9 26 56.5t33 52.5q127 47 195 112q31 30 93 114q44 60 60 60q6 0 15 -30q26 -88 98 -88q100 0 135 75
q26 54 35 54t9 -15q0 -18 -13 -57q52 -45 84 -45q14 0 14 20q0 16 -10 41q-3 9 14 53t23 44q12 0 12 -78q0 -41 -18 -99q-22 -73 -54 -73q-52 0 -100 59q-45 -90 -164 -90q-73 0 -101 89q-10 32 -16 32q-12 0 -60 -68q-59 -83 -110 -121q271 -39 484 -26q16 1 16 -4
q-41 -97 -51 -97q-92 -10 -236 -47q-385 -99 -391 -424q-2 -134 84 -221q68 -69 228 -84q75 -7 167 -7q91 0 205 8l120 8q12 0 13 -3z" />
    <glyph glyph-name="S2SeenKhah" unicode="&#xfeb3;&#xfea6;" horiz-adv-x="963" 
d="M271 566q-28 -55 -53 -96q-48 21 -101 66q6 14 53 94q42 -27 101 -64zM958 -668q0 -10 -237 -88q-91 -30 -219 -30q-195 0 -291 78q-104 84 -111 272q-7 181 90 334q101 160 269 213q-201 22 -324 18q-6 -1 -10 -1q-6 0 -6 3q0 9 26 56.5t33 52.5q127 47 195 112
q31 30 93 114q44 60 60 60q6 0 15 -30q25 -88 98 -88q100 0 135 75q26 54 35 54t9 -15q0 -18 -13 -57q52 -45 84 -45q14 0 14 20q0 16 -10 41q-3 9 14 53t23 44q12 0 12 -78q0 -41 -18 -99q-22 -73 -54 -73q-52 0 -100 59q-45 -90 -164 -90q-73 0 -101 89q-10 32 -16 32
q-12 0 -60 -68q-59 -83 -110 -121q271 -39 484 -26q16 1 16 -4q-41 -97 -51 -97q-92 -10 -236 -47q-385 -99 -391 -424q-2 -134 84 -221q68 -69 228 -84q75 -7 167 -7q91 0 205 8l120 8q12 0 13 -3z" />
    <glyph glyph-name="S2SeenReh" unicode="&#xfeb3;&#xfeae;" horiz-adv-x="907" 
d="M887 225q0 -41 -20 -100q-25 -72 -58 -72q-40 0 -100 66q-36 -56 -55 -70q-41 -31 -122 -31q-72 0 -65 70q-72 -36 -158 -57q-5 -159 -107 -281q-90 -108 -173 -108q-39 0 -148 36q-101 33 -96 48q2 8 33 4q49 -6 69 -6q130 0 215 53q55 34 114 107q56 69 56 91
q0 13 -39 52q-1 2 -1 5q0 13 12.5 53t19.5 40q89 0 236 80q13 6 18 6q6 -3 -6 -27q-8 -16 -8 -26q0 -29 69 -29q102 0 140 78q26 53 35 53q11 0 11 -15q0 -18 -16 -57q58 -45 91 -45q12 0 12 23q0 17 -12 41q-5 10 14.5 51t30.5 41q8 0 8 -74z" />
    <glyph glyph-name="S2SeenTah" unicode="&#xfeb3;&#xfec2;" horiz-adv-x="1597" 
d="M1579 174q0 -41 -19 -97q-25 -70 -59 -67q-58 5 -112 60q-31 -50 -68 -67q-33 -15 -96 -15q-90 0 -90 30q0 5 2 9q-137 -62 -360 -62q-47 0 -97 2q-174 -22 -265 -22q-68 0 -136 18q-35 9 -110 63q-69 50 -69 56q0 7 47 0q95 -14 291 -19q36 41 101 87q3 138 -33 389
l-39 270q-10 13 -10 45q0 17 13 63q13 50 22 50q3 -3 4 -23q2 -49 57 -80q0 -17 -11 -53t-22 -45q5 -41 30 -232q28 -212 28 -247q0 -39 -13 -113l118 88q80 51 144 51q40 0 96 -20q70 -25 70 -62q0 -46 -92 -176q228 10 307 103q14 16 21 16q9 0 2 -27q-7 -26 -23 -43
q77 -11 144 13q26 9 61 76q12 22 21 22q7 0 7 -12q0 -18 -14 -60q53 -43 105 -43q10 0 10 17q0 14 -14 41q-1 2 -1 5q0 13 16 50t24 37q12 0 12 -76zM915 162q0 19 -62 36q-52 15 -79 15q-81 0 -254 -147q87 0 237 34q158 36 158 62z" />
    <glyph glyph-name="S2SeenMeem" unicode="&#xfeb3;&#xfee2;" horiz-adv-x="1087" 
d="M1067 258q0 -34 -16 -92q-19 -72 -43 -72q-35 0 -121 43q-48 -100 -164 -100q-84 0 -116 85q-11 30 -17 30q-11 0 -36 -40q-39 -62 -81 -110q64 -26 64 -88q0 -34 -19 -78q-23 -53 -51 -53q-63 0 -123 39q-55 -103 -119 -139q-59 -33 -248 -72q-45 -9 -47 -2q0 6 31 22
q65 32 193 97q142 73 163 112q-22 13 -16 45q24 129 86 146q77 21 126 79q5 6 81 121q15 23 31 23q17 0 20 -18q13 -86 107 -86q62 0 94 23q26 18 55 75q11 22 21 22t10 -14q0 -20 -12 -45q40 -27 78 -27q28 0 28 17q0 18 -12 39q-3 8 13.5 52t21.5 44q18 0 18 -78z
M481 -115q1 3 1 7q0 19 -32 45q-39 32 -69 32q-23 0 -23 -16q0 -25 46 -48q40 -21 68 -21q5 0 9 1z" />
    <glyph glyph-name="S2SeenYeh" unicode="&#xfeb3;&#xfef2;" horiz-adv-x="1225" 
d="M1204 262q-3 -139 -61 -139q-51 0 -101 27q-57 -95 -174 -95q-53 0 -88.5 44t-46.5 44q-51 0 -117 -68q-59 -60 -59 -81q0 -31 63 -46q43 -11 85 -11q145 0 145 -74q0 -90 -88 -166q-54 -46 -154 -98q-144 -74 -252 -74q-115 0 -185.5 72t-70.5 186q0 63 27 154
q25 83 49 122q13 21 21 21q14 0 2 -27q-52 -120 -52 -196q0 -106 72 -163q65 -52 174 -52t272 87q146 78 146 99q0 28 -139 31q-150 3 -150 110q0 83 74 181q78 104 158 104q30 0 55 -37q34 -51 86 -51q69 0 104 19q41 23 62 83q6 19 16 19q23 0 -2 -62q48 -28 80 -28
q16 0 16 12q0 25 -16 47q2 12 15 45q16 43 22 43q14 0 12 -82zM742 -565q-20 -46 -53 -98q-26 12 -84 53q-25 -54 -43 -76q-55 31 -101 66q10 21 54 94q4 -2 84 -51q17 34 43 75q10 -7 100 -63z" />
    <glyph glyph-name="S2SeenYehdotless" unicode="&#xfeb3;&#xfef0;" horiz-adv-x="1225" 
d="M1204 262q-3 -139 -61 -139q-51 0 -101 27q-57 -95 -174 -95q-53 0 -88.5 44t-46.5 44q-51 0 -117 -68q-59 -60 -59 -81q0 -31 63 -46q43 -11 85 -11q145 0 145 -74q0 -90 -88 -166q-54 -46 -154 -98q-144 -74 -252 -74q-115 0 -185.5 72t-70.5 186q0 63 27 154
q25 83 49 122q13 21 21 21q14 0 2 -27q-52 -120 -52 -196q0 -106 72 -163q65 -52 174 -52t272 87q146 78 146 99q0 28 -139 31q-150 3 -150 110q0 83 74 181q78 104 158 104q30 0 55 -37q34 -51 86 -51q69 0 104 19q41 23 62 83q6 19 16 19q23 0 -2 -62q48 -28 80 -28
q16 0 16 12q0 25 -16 47q2 12 15 45q16 43 22 43q14 0 12 -82z" />
    <glyph glyph-name="S2SeenYehhamzaabove" unicode="&#xfeb3;&#xfe8a;" horiz-adv-x="1225" 
d="M386 368q3 -1 3 -6q0 -11 -10 -41q-1 -5 -18 -15q-75 -28 -137 -78q-17 -14 -17 4q0 23 39 54q-43 23 -45 51q-2 33 34 73t69 42q26 2 28 -21q0 -26 -18 -55q-3 -6 -7 -4q-3 2 -3 8q-3 16 -35 10q-26 -5 -25 -22q2 -29 49 -33q11 -2 18 -2q13 0 19 6q48 29 56 29z
M1204 262q-3 -139 -61 -139q-51 0 -101 27q-57 -95 -174 -95q-53 0 -88.5 44t-46.5 44q-51 0 -117 -68q-59 -60 -59 -81q0 -31 63 -46q43 -11 85 -11q145 0 145 -74q0 -90 -88 -166q-54 -46 -154 -98q-144 -74 -252 -74q-115 0 -185.5 72t-70.5 186q0 63 27 154
q25 83 49 122q13 21 21 21q14 0 2 -27q-52 -120 -52 -196q0 -106 72 -163q65 -52 174 -52t272 87q146 78 146 99q0 28 -139 31q-150 3 -150 110q0 83 74 181q78 104 158 104q30 0 55 -37q34 -51 86 -51q69 0 104 19q41 23 62 83q6 19 16 19q23 0 -2 -62q48 -28 80 -28
q16 0 16 12q0 25 -16 47q2 12 15 45q16 43 22 43q14 0 12 -82z" />
    <glyph glyph-name="S2SeenAlefmaksura" unicode="&#xfeb3;&#xfc90;" horiz-adv-x="1225" 
d="M362 248q-3 -19 -10 -19q-8 0 -8 21q0 126 -94 229q-2 3 -2 8q0 10 7 34q10 34 19 34t37 -49q74 -128 51 -258zM1204 262q-3 -139 -61 -139q-51 0 -101 27q-57 -95 -174 -95q-53 0 -88.5 44t-46.5 44q-51 0 -117 -68q-59 -60 -59 -81q0 -31 63 -46q43 -11 85 -11
q145 0 145 -74q0 -90 -88 -166q-54 -46 -154 -98q-144 -74 -252 -74q-115 0 -185.5 72t-70.5 186q0 63 27 154q25 83 49 122q13 21 21 21q14 0 2 -27q-52 -120 -52 -196q0 -106 72 -163q65 -52 174 -52t272 87q146 78 146 99q0 28 -139 31q-150 3 -150 110q0 83 74 181
q78 104 158 104q30 0 55 -37q34 -51 86 -51q69 0 104 19q41 23 62 83q6 19 16 19q23 0 -2 -62q48 -28 80 -28q16 0 16 12q0 25 -16 47q2 12 15 45q16 43 22 43q14 0 12 -82z" />
    <glyph glyph-name="S2SheenJeem" unicode="&#xfeb7;&#xfe9e;" horiz-adv-x="963" 
d="M745 938q-19 -56 -54 -96q-42 26 -100 63q13 29 53 96q42 -26 101 -63zM851 792q-25 -57 -53 -96q-20 7 -84 51q-22 -47 -43 -73q-29 12 -101 63q13 29 54 96q28 -18 84 -53q17 35 43 76q10 -7 100 -64zM958 -668q0 -10 -237 -88q-91 -30 -219 -30q-195 0 -291 78
q-104 84 -111 272q-7 181 90 334q101 160 269 213q-201 22 -324 18q-6 -1 -10 -1q-6 0 -6 3q0 9 26 56.5t33 52.5q127 47 195 112q31 30 93 114q44 60 60 60q6 0 15 -30q25 -88 98 -88q100 0 135 75q26 54 35 54t9 -15q0 -18 -13 -57q52 -45 84 -45q14 0 14 20q0 16 -10 41
q-3 9 14 53t23 44q12 0 12 -78q0 -41 -18 -99q-22 -73 -54 -73q-52 0 -100 59q-45 -90 -164 -90q-73 0 -101 89q-10 32 -16 32q-12 0 -60 -68q-59 -83 -110 -121q271 -39 484 -26q16 1 16 -4q-41 -97 -51 -97q-92 -10 -236 -47q-385 -99 -391 -424q-2 -134 84 -221
q68 -69 228 -84q75 -7 167 -7q91 0 205 8l120 8q12 0 13 -3zM598 -239q-28 -55 -53 -96q-48 21 -101 66q6 14 53 94q42 -27 101 -64z" />
    <glyph glyph-name="S2SheenHah" unicode="&#xfeb7;&#xfea2;" horiz-adv-x="963" 
d="M958 -668q0 -10 -237 -88q-91 -30 -219 -30q-195 0 -291 78q-104 84 -111 272q-7 181 90 334q101 160 269 213q-201 22 -324 18q-6 -1 -10 -1q-6 0 -6 3q0 9 26 56.5t33 52.5q127 47 195 112q31 30 93 114q44 60 60 60q6 0 15 -30q25 -88 98 -88q100 0 135 75
q26 54 35 54t9 -15q0 -18 -13 -57q52 -45 84 -45q14 0 14 20q0 16 -10 41q-3 9 14 53t23 44q12 0 12 -78q0 -41 -18 -99q-22 -73 -54 -73q-52 0 -100 59q-45 -90 -164 -90q-73 0 -101 89q-10 32 -16 32q-12 0 -60 -68q-59 -83 -110 -121q271 -39 484 -26q16 1 16 -4
q-41 -97 -51 -97q-92 -10 -236 -47q-385 -99 -391 -424q-2 -134 84 -221q68 -69 228 -84q75 -7 167 -7q91 0 205 8l120 8q12 0 13 -3zM745 938q-19 -56 -54 -96q-42 26 -100 63q13 29 53 96q42 -26 101 -63zM851 792q-25 -57 -53 -96q-20 7 -84 51q-22 -47 -43 -73
q-29 12 -101 63q13 29 54 96q28 -18 84 -53q17 35 43 76q10 -7 100 -64z" />
    <glyph glyph-name="S2SheenKhah" unicode="&#xfeb7;&#xfea6;" horiz-adv-x="963" 
d="M265 566q-28 -55 -53 -96q-48 21 -101 66q6 14 53 94q42 -27 101 -64zM958 -668q0 -10 -237 -88q-91 -30 -219 -30q-195 0 -291 78q-104 84 -111 272q-7 181 90 334q101 160 269 213q-201 22 -324 18q-6 -1 -10 -1q-6 0 -6 3q0 9 26 56.5t33 52.5q127 47 195 112
q31 30 93 114q44 60 60 60q6 0 15 -30q25 -88 98 -88q100 0 135 75q26 54 35 54t9 -15q0 -18 -13 -57q52 -45 84 -45q14 0 14 20q0 16 -10 41q-3 9 14 53t23 44q12 0 12 -78q0 -41 -18 -99q-22 -73 -54 -73q-52 0 -100 59q-45 -90 -164 -90q-73 0 -101 89q-10 32 -16 32
q-12 0 -60 -68q-59 -83 -110 -121q271 -39 484 -26q16 1 16 -4q-41 -97 -51 -97q-92 -10 -236 -47q-385 -99 -391 -424q-2 -134 84 -221q68 -69 228 -84q75 -7 167 -7q91 0 205 8l120 8q12 0 13 -3zM745 938q-19 -56 -54 -96q-42 26 -100 63q13 29 53 96q42 -26 101 -63z
M851 792q-25 -57 -53 -96q-20 7 -84 51q-22 -47 -43 -73q-29 12 -101 63q13 29 54 96q28 -18 84 -53q17 35 43 76q10 -7 100 -64z" />
    </font>
</defs>
</svg>
